<?xml version="1.0" standalone="no"?>
<!DOCTYPE svg PUBLIC "-//W3C//DTD SVG 20010904//EN"
 "http://www.w3.org/TR/2001/REC-SVG-20010904/DTD/svg10.dtd">
<svg version="1.0" xmlns="http://www.w3.org/2000/svg"
 width="3508.000000pt" height="1281.000000pt" viewBox="0 0 3508.000000 1281.000000"
 preserveAspectRatio="xMidYMid meet">

<g transform="translate(0.000000,1281.000000) scale(0.100000,-0.100000)"
fill="#000000" stroke="none">
<path d="M4630 9469 c-543 -55 -1003 -328 -1146 -680 -52 -128 -57 -176 -63
-599 l-6 -394 -94 -18 c-51 -9 -104 -24 -116 -32 -37 -24 -49 -77 -41 -180 9
-131 35 -435 45 -543 16 -160 48 -190 194 -178 102 8 140 -3 162 -44 18 -36
23 -71 35 -251 6 -85 26 -375 44 -645 19 -269 38 -537 41 -595 9 -155 21 -206
58 -247 48 -52 86 -56 321 -38 111 8 304 22 429 30 132 9 242 21 260 29 75 31
81 68 51 299 -54 403 -179 1555 -170 1564 2 2 104 8 227 14 262 12 281 14 309
37 35 29 39 76 19 263 -10 96 -23 257 -29 359 -15 247 -18 266 -43 296 -32 37
-77 39 -351 14 -131 -11 -240 -19 -242 -17 -11 11 -26 188 -28 317 -1 119 2
154 17 192 34 89 111 135 322 192 136 38 177 56 199 88 18 26 21 97 6 148 -6
19 -33 118 -61 220 -74 273 -89 318 -116 351 -50 59 -72 64 -233 48z"/>
<path d="M7965 9146 c-162 -44 -280 -125 -356 -244 -92 -145 -94 -374 -6 -524
63 -108 206 -202 355 -233 107 -22 290 -20 386 5 188 48 303 165 342 348 38
181 -7 357 -122 482 -65 70 -125 110 -219 146 -60 23 -88 27 -200 30 -88 2
-146 -1 -180 -10z"/>
<path d="M1406 8630 c-16 -5 -42 -21 -57 -36 -30 -29 -39 -48 -114 -264 -96
-277 -232 -661 -430 -1215 -415 -1162 -735 -2069 -731 -2073 3 -2 193 -4 423
-5 446 -2 470 0 543 48 46 29 86 105 140 265 48 140 74 183 123 199 22 8 198
12 518 14 460 2 486 1 523 -17 54 -27 90 -90 132 -226 50 -164 77 -215 133
-248 l46 -27 305 -3 c323 -4 567 8 613 29 53 24 50 59 -24 257 -466 1246
-1226 3168 -1278 3232 -53 66 -73 72 -238 69 -164 -4 -345 -1 -498 6 -55 2
-113 0 -129 -5z m492 -1376 c65 -213 161 -540 187 -637 l26 -98 -26 -44 c-16
-29 -36 -48 -53 -52 -15 -5 -118 -8 -230 -8 l-204 0 -29 33 c-16 18 -29 43
-29 56 0 40 276 846 294 858 22 15 32 -1 64 -108z"/>
<path d="M9855 8070 c-146 -23 -314 -79 -423 -142 -330 -188 -610 -592 -677
-972 -19 -113 -19 -316 0 -429 43 -242 140 -466 299 -687 69 -97 246 -283 345
-364 234 -191 528 -334 822 -400 189 -42 371 -52 522 -30 l39 6 -21 22 c-22
24 -27 51 -11 61 5 3 1 19 -10 38 -11 18 -20 38 -20 45 0 8 -10 27 -21 44 -15
20 -25 58 -33 121 -9 70 -21 110 -49 167 -20 41 -37 89 -37 105 0 43 36 166
50 175 9 5 10 17 5 36 -5 16 -9 45 -11 64 -3 51 -30 116 -76 188 -43 67 -42
54 -22 181 6 36 5 39 -14 35 -25 -7 -38 12 -20 33 11 14 10 15 -12 8 -14 -4
-27 -7 -30 -7 -23 0 -32 5 -40 27 -19 50 -88 52 -181 4 -31 -15 -42 -16 -73
-7 -31 10 -47 9 -91 -7 -50 -16 -56 -17 -78 -2 -49 32 -124 114 -162 177 -21
36 -46 70 -56 77 -25 19 -33 98 -12 130 20 31 22 117 4 161 -11 26 -9 35 18
83 17 30 37 65 44 79 26 53 63 100 78 100 8 0 27 12 41 28 20 21 26 38 27 75
0 57 5 67 32 67 21 0 64 38 85 75 10 17 15 18 31 8 27 -15 78 -9 138 17 28 12
76 23 107 25 32 2 62 6 67 10 6 3 21 3 35 -1 13 -3 33 -1 44 5 14 7 26 7 43
-1 20 -9 25 -20 26 -52 0 -23 -3 -46 -9 -53 -11 -14 7 -24 75 -43 26 -7 54
-21 60 -31 11 -15 85 -48 110 -49 4 0 7 13 7 29 0 23 7 33 32 45 29 15 33 15
52 -2 24 -21 179 -68 194 -58 6 3 18 30 28 59 9 28 38 106 64 172 56 142 62
171 49 219 -17 62 -56 81 -326 162 -491 148 -613 174 -843 179 -85 2 -182 0
-215 -5z m25 -857 c0 -28 -16 -47 -34 -40 -9 4 -16 2 -16 -3 0 -15 -29 -12
-63 8 -18 9 -34 18 -36 19 -1 1 0 6 3 11 6 9 50 3 88 -13 11 -4 18 0 23 14 8
25 35 28 35 4z"/>
<path d="M6180 7975 c-396 -69 -506 -88 -630 -105 -79 -11 -159 -28 -179 -37
-57 -28 -59 -56 -22 -278 86 -513 94 -644 93 -1610 0 -734 1 -782 18 -822 35
-80 48 -82 535 -84 458 -1 468 0 503 65 20 38 20 35 4 776 -9 393 -10 611 -4
663 18 137 73 212 183 244 43 13 113 17 332 19 299 3 317 6 336 57 8 22 36
715 36 877 -1 156 -35 200 -155 200 -120 -1 -219 -32 -524 -165 -159 -69 -291
-124 -293 -121 -6 6 -32 155 -33 187 0 14 -7 48 -15 76 -13 42 -21 53 -47 62
-37 13 -41 13 -138 -4z"/>
<path d="M7600 7881 c-15 -4 -34 -24 -49 -51 l-24 -43 17 -211 c10 -116 22
-258 26 -316 5 -58 9 -555 10 -1105 0 -932 1 -1002 18 -1034 9 -19 30 -44 45
-55 28 -20 41 -21 460 -24 396 -2 435 -1 467 15 72 37 70 6 63 762 -6 682 2
1108 32 1716 8 160 15 305 15 323 l0 32 -527 -1 c-291 -1 -539 -4 -553 -8z"/>
<path d="M13840 7820 c-118 -22 -294 -51 -390 -65 -204 -30 -208 -31 -237 -58
-30 -27 -30 -76 2 -261 75 -435 85 -613 85 -1521 0 -815 -3 -777 70 -820 34
-19 51 -20 450 -20 461 0 453 -1 481 67 16 39 16 22 1 715 -8 396 -9 594 -2
645 26 183 109 238 361 238 l108 0 25 -32 c69 -91 100 -247 99 -498 0 -279
-45 -568 -133 -861 -42 -139 -43 -162 -8 -212 40 -57 61 -61 298 -53 118 3
310 11 425 17 245 12 266 18 304 93 l25 48 0 596 c1 619 -3 703 -45 997 -77
541 -252 899 -480 986 -54 20 -82 24 -179 24 -147 0 -196 -15 -588 -182 -162
-69 -295 -123 -297 -121 -2 2 -11 55 -20 118 -21 148 -31 179 -62 191 -36 13
-57 11 -293 -31z"/>
<path d="M11870 7463 c-197 -20 -419 -76 -603 -153 l-79 -33 7 -36 c4 -20 12
-42 18 -50 14 -17 49 -80 78 -141 12 -25 30 -56 40 -69 11 -13 19 -38 19 -56
0 -20 8 -39 24 -54 13 -12 29 -41 35 -64 8 -32 22 -51 61 -82 34 -27 55 -54
67 -83 9 -23 19 -44 22 -47 4 -2 42 5 86 16 121 31 120 31 123 -17 2 -31 -7
-62 -44 -139 -37 -80 -59 -111 -114 -164 -116 -114 -171 -183 -169 -211 1 -14
-1 -32 -4 -40 -18 -47 -17 -106 3 -145 42 -83 14 -228 -50 -255 -14 -6 -47
-31 -73 -56 -47 -45 -48 -47 -37 -80 7 -20 9 -52 5 -75 -6 -33 -12 -43 -36
-51 -31 -11 -49 -35 -49 -66 0 -23 -72 -132 -117 -177 -41 -41 -41 -51 0 -59
194 -35 520 -41 652 -12 183 40 333 122 464 252 40 41 76 74 79 74 3 0 2 -56
-2 -124 -8 -146 2 -184 56 -212 30 -16 67 -18 398 -16 339 1 366 3 390 20 48
36 49 41 39 752 -11 845 -19 982 -70 1139 -100 311 -329 461 -781 510 -90 10
-356 13 -438 4z m-146 -1660 c17 -44 17 -105 0 -131 -10 -15 -21 -43 -25 -62
-4 -19 -23 -77 -42 -129 -46 -126 -91 -162 -135 -106 -32 41 -36 99 -10 145
20 33 21 43 11 69 -15 40 9 88 57 114 39 20 76 60 90 95 11 26 45 29 54 5z"/>
<path d="M127 4654 c-4 -4 -7 -211 -7 -461 l0 -453 289 0 c254 0 290 2 295 16
9 22 7 117 -2 131 -6 9 -63 13 -207 15 l-200 3 -5 375 -5 375 -75 3 c-42 1
-79 0 -83 -4z"/>
<path d="M1255 4646 c-204 -65 -335 -243 -335 -456 0 -235 166 -427 401 -463
248 -38 486 138 529 392 38 228 -107 460 -329 525 -65 19 -209 20 -266 2z
m249 -175 c57 -25 122 -90 149 -150 33 -71 31 -199 -5 -266 -31 -60 -77 -105
-138 -137 -36 -18 -61 -23 -125 -23 -70 0 -87 4 -134 30 -74 41 -117 95 -143
178 -35 117 -5 229 83 312 91 85 199 104 313 56z"/>
<path d="M2074 4647 c-2 -7 49 -148 114 -312 66 -165 143 -361 172 -435 29
-74 57 -141 63 -147 13 -18 131 -17 146 1 6 7 56 127 112 267 55 140 132 334
171 432 38 97 68 184 64 192 -7 20 -158 22 -173 3 -6 -7 -61 -152 -123 -323
-63 -170 -116 -313 -120 -317 -3 -4 -57 131 -119 300 -63 169 -120 317 -128
330 -12 20 -21 22 -94 22 -56 0 -81 -4 -85 -13z"/>
<path d="M3177 4653 c-4 -3 -7 -210 -7 -460 l0 -453 328 2 327 3 0 75 0 75
-240 5 -240 5 0 110 0 110 180 5 180 5 0 80 0 80 -180 5 -180 5 0 90 0 90 224
3 c145 1 229 6 238 13 16 14 18 111 3 140 -10 18 -24 19 -319 19 -169 0 -311
-3 -314 -7z"/>
<path d="M4117 4654 c-4 -4 -7 -211 -7 -461 l0 -453 253 0 c252 0 253 0 305
26 157 78 198 285 82 417 l-41 46 28 42 c22 34 28 56 31 114 6 114 -39 194
-136 242 -56 28 -59 28 -282 31 -124 2 -229 0 -233 -4z m441 -179 c37 -31 48
-73 32 -120 -21 -65 -46 -75 -186 -75 l-124 0 0 110 0 110 124 0 c119 0 126
-1 154 -25z m29 -361 c15 -11 34 -39 42 -61 13 -35 13 -46 0 -78 -26 -70 -51
-80 -210 -83 l-139 -4 0 127 0 127 139 -4 c123 -3 143 -6 168 -24z"/>
<path d="M5087 4653 c-4 -3 -7 -210 -7 -460 l0 -453 85 0 85 0 0 454 c0 405
-2 455 -16 460 -21 8 -139 8 -147 -1z"/>
<path d="M5585 4648 c-3 -7 -4 -213 -3 -458 l3 -445 85 0 85 0 3 153 3 152 94
0 94 0 78 -152 78 -153 93 -3 c64 -2 92 1 92 9 0 6 -38 86 -84 178 l-85 167
47 35 c62 45 105 129 110 212 7 119 -58 231 -166 284 -57 28 -58 28 -290 31
-186 3 -233 1 -237 -10z m369 -147 c62 -7 72 -11 102 -43 60 -66 55 -159 -11
-217 l-36 -31 -124 0 -125 0 0 150 0 150 63 -1 c34 0 93 -3 131 -8z"/>
<path d="M6561 4646 c-8 -9 -10 -138 -9 -457 l3 -444 202 -3 c183 -2 208 0
264 18 237 80 366 315 304 555 -22 84 -60 147 -125 209 -113 108 -208 136
-461 136 -129 0 -169 -3 -178 -14z m434 -184 c225 -102 225 -425 0 -527 -40
-18 -72 -24 -155 -27 l-105 -3 -3 294 -2 293 107 -4 c84 -3 119 -9 158 -26z"/>
<path d="M8200 4638 c-9 -21 -88 -746 -93 -848 l-2 -45 82 -3 82 -3 6 33 c6
40 44 394 52 496 3 39 9 72 12 72 3 0 39 -94 80 -208 41 -114 87 -244 103
-289 l30 -83 69 0 70 0 17 43 c10 23 58 154 107 291 49 136 91 242 94 235 2
-8 18 -142 35 -299 l31 -285 85 0 85 0 -2 30 c-7 92 -84 816 -91 845 l-7 35
-91 3 c-65 2 -94 -1 -101 -10 -5 -7 -58 -149 -118 -316 -59 -167 -111 -299
-115 -295 -4 4 -53 139 -110 298 -56 160 -107 298 -112 308 -7 14 -23 17 -99
17 -83 0 -90 -2 -99 -22z"/>
<path d="M9431 4646 c-9 -11 -11 -96 -9 -328 3 -268 6 -319 21 -358 40 -103
124 -183 226 -217 82 -26 217 -23 296 7 81 31 163 113 195 195 23 58 24 72 28
373 3 235 1 317 -8 327 -16 19 -140 21 -158 3 -9 -9 -12 -89 -12 -299 0 -302
-3 -328 -48 -388 -72 -96 -253 -92 -319 8 -39 57 -43 96 -43 387 0 204 -3 283
-12 292 -18 18 -142 16 -157 -2z"/>
<path d="M10444 4647 c-3 -8 -4 -45 -2 -83 l3 -69 127 -3 128 -3 2 -372 3
-372 79 -3 c57 -2 82 1 87 10 5 7 9 176 9 375 l0 362 128 3 127 3 3 74 c2 53
-1 77 -10 82 -7 5 -163 9 -346 9 -270 0 -334 -3 -338 -13z"/>
<path d="M11703 4648 c-14 -19 -353 -876 -353 -893 0 -12 17 -15 84 -15 l85 0
32 85 33 85 190 -2 191 -3 34 -82 34 -83 83 0 c70 0 84 3 84 16 0 9 -38 111
-84 227 -216 546 -259 653 -269 665 -6 7 -34 12 -72 12 -38 0 -66 -5 -72 -12z
m142 -417 l63 -171 -134 0 -133 0 13 33 c7 17 37 96 66 175 29 79 55 141 57
138 3 -2 33 -81 68 -175z"/>
<path d="M12332 4648 c-13 -13 -16 -126 -4 -145 5 -8 48 -13 132 -15 l125 -3
3 -372 2 -373 85 0 85 0 0 375 0 375 129 0 c108 0 130 3 135 16 11 28 6 130
-6 142 -17 17 -669 17 -686 0z"/>
<path d="M13307 4654 c-4 -4 -7 -211 -7 -461 l0 -453 85 0 85 0 -2 458 -3 457
-75 3 c-42 1 -79 0 -83 -4z"/>
<path d="M14105 4646 c-159 -51 -282 -178 -325 -335 -17 -66 -14 -187 8 -258
27 -86 60 -139 126 -201 183 -174 462 -172 647 5 253 241 154 673 -179 782
-72 24 -212 28 -277 7z m252 -178 c59 -28 106 -75 140 -141 36 -69 39 -188 7
-258 -30 -63 -79 -116 -138 -147 -72 -37 -188 -39 -259 -2 -58 29 -112 86
-140 149 -32 69 -30 178 4 252 72 153 238 217 386 147z"/>
<path d="M15002 4652 c-10 -7 -12 -105 -10 -458 l3 -449 82 -3 83 -3 2 323 3
323 219 -322 220 -323 88 0 88 0 0 455 0 455 -23 5 c-13 4 -50 5 -82 3 l-60
-3 -3 -302 c-1 -167 -6 -303 -10 -303 -4 1 -92 125 -197 277 -104 152 -201
289 -213 305 -22 26 -28 28 -100 28 -43 0 -83 -4 -90 -8z"/>
</g>
</svg>
