<?xml version="1.0" encoding="UTF-8"?>
<svg version="1.1" xmlns="http://www.w3.org/2000/svg" width="3508" height="1281">
<path d="M0 0 C9.48335578 0.44204539 18.94313399 0.75 28.4375 0.75 C29.51797607 0.75 30.59845215 0.75 31.71166992 0.75 C37.77302603 0.72013421 43.77162926 0.48187208 49.8125 0 C57.71177959 -0.54706448 63.51125383 -0.44326629 69.9375 4.5 C77.59197178 12.03867801 80.94310722 23.26434172 84.64459229 33.11981201 C85.92470909 36.52457827 87.22754573 39.92061483 88.53125 43.31640625 C88.79737091 44.01004272 89.06349182 44.7036792 89.337677 45.41833496 C92.06485166 52.49564149 94.95421877 59.50051425 97.875 66.5 C105.688787 85.24148105 113.16533246 104.10799799 120.56347656 123.0168457 C124.2430054 132.39574368 128.02457561 141.73075087 131.87084961 151.04248047 C134.5024131 157.44358084 136.99545692 163.88314397 139.40870667 170.36862183 C142.07099726 177.51515175 144.83765102 184.61983737 147.61141968 191.72369385 C149.16163911 195.6949432 150.70753278 199.66787684 152.25390625 203.640625 C152.5600032 204.42684235 152.86610016 205.21305969 153.18147278 206.02310181 C162.51217295 229.99366756 171.64871893 254.03910886 180.7558136 278.09536743 C183.2890552 284.7832394 185.83398219 291.46648774 188.39018536 298.14560509 C190.34958042 303.26685494 192.29996015 308.39148532 194.24441242 313.5184269 C195.41826673 316.61241936 196.59759426 319.70413923 197.78482056 322.79302979 C199.11011984 326.24322724 200.41996372 329.6989351 201.7265625 333.15625 C202.31737358 334.67815445 202.31737358 334.67815445 202.92012024 336.23080444 C205.16937043 342.2386067 206.95165411 348.14045954 206.75 354.625 C204.80498544 358.00763402 203.08658244 358.50433837 199.4375 359.8125 C188.12848497 362.19207935 175.90705051 361.79093766 164.41796875 361.828125 C163.72708979 361.83095238 163.03621082 361.83377975 162.32439613 361.83669281 C158.68183665 361.85149494 155.03931497 361.8608485 151.39672852 361.86523438 C147.67065295 361.87075297 143.94493645 361.89490609 140.21897411 361.92320633 C137.31481418 361.94193015 134.4107402 361.94704302 131.50652504 361.94857025 C130.13318184 361.95156525 128.75983897 361.9594848 127.38655663 361.97275543 C118.23235918 362.05505781 110.06442304 361.57745724 101.9375 357.0625 C95.44795809 349.83129616 93.0796581 339.87000556 90.43359375 330.74804688 C87.25325842 319.80398652 87.25325842 319.80398652 79.828125 311.63671875 C60.41280149 305.25528628 37.17983253 308.70441971 16.98599625 309.25189114 C13.0796775 309.35777606 9.17340708 309.45790628 5.26660156 309.54418945 C1.43291882 309.6289118 -2.40017266 309.72749059 -6.23325348 309.83600426 C-7.67953747 309.87468004 -9.12595819 309.90857193 -10.57247162 309.93741798 C-12.58606536 309.97858064 -14.59923004 310.03931125 -16.61230469 310.10083008 C-17.75270203 310.12969803 -18.89309937 310.15856598 -20.0680542 310.18830872 C-24.22844541 310.75928217 -27.9485824 311.96517687 -30.60546875 315.35375977 C-30.88003906 315.98080811 -31.15460938 316.60785645 -31.4375 317.25390625 C-31.74945313 317.95918457 -32.06140625 318.66446289 -32.3828125 319.39111328 C-33.81282195 323.07483696 -35.06712788 326.79289869 -36.25 330.5625 C-43.80817412 353.78026613 -43.80817412 353.78026613 -52.6875 359 C-65.26492924 364.1204249 -80.38768288 362.90669471 -93.6875 362.8125 C-95.67081583 362.80562677 -97.65413297 362.79912027 -99.63745117 362.79296875 C-116.18550354 362.71972157 -132.71631146 362.30762511 -149.25 361.625 C-148.57112556 355.95192525 -146.70930949 350.86647879 -144.78515625 345.5234375 C-144.43635406 344.54239548 -144.08755188 343.56135345 -143.72817993 342.55058289 C-142.59439498 339.3653298 -141.45354927 336.18265721 -140.3125 333 C-139.52731791 330.79890107 -138.74257028 328.5976471 -137.95825195 326.39624023 C-136.4160038 322.06997356 -134.8710055 317.74470676 -133.32324219 313.42041016 C-131.6497329 308.74458401 -129.98220076 304.06668593 -128.3203125 299.38671875 C-125.02616985 290.11985962 -121.70744557 280.86256857 -118.33203125 271.625 C-113.64721698 258.80214949 -108.98163518 245.98011607 -104.5625 233.0625 C-100.06195429 219.90806653 -95.45237682 206.79340045 -90.8125 193.6875 C-90.44291168 192.6434903 -90.07332336 191.59948059 -89.6925354 190.52383423 C-84.8568159 176.87448296 -79.94895132 163.25547209 -74.92773438 149.67333984 C-71.74351499 141.03864387 -68.71174552 132.35857111 -65.73022461 123.65209961 C-62.6977908 114.83211816 -59.51856869 106.07035325 -56.3125 97.3125 C-52.07763816 85.73962466 -47.97215703 74.1327074 -43.97998047 62.47338867 C-41.08110197 54.01395535 -38.13828267 45.57134701 -35.15213013 37.14239502 C-34.68588148 35.8261789 -34.22025576 34.50974191 -33.75534058 33.1930542 C-31.42402631 26.59343374 -29.05335914 20.00799506 -26.609375 13.44921875 C-26.22620117 12.41627686 -25.84302734 11.38333496 -25.44824219 10.3190918 C-23.33050855 5.557643 -20.58095157 2.74731002 -15.82421875 0.45703125 C-10.50549126 -0.78109876 -5.42445963 -0.30697956 0 0 Z M27.75 128.625 C21.95858458 144.62754723 16.32149188 160.66216748 11 176.828125 C9.42878671 181.6002675 7.81971677 186.35775599 6.1875 191.109375 C5.76927979 192.3358374 5.35105957 193.5622998 4.92016602 194.82592773 C4.11778676 197.17680836 3.3087196 199.52542043 2.49194336 201.87133789 C2.13237549 202.9308667 1.77280762 203.99039551 1.40234375 205.08203125 C0.92269165 206.4738562 0.92269165 206.4738562 0.43334961 207.89379883 C-0.32960163 210.94315058 -0.48971799 213.49299119 -0.25 216.625 C1.90090451 219.96261045 2.95412799 221.35970933 6.75 222.625 C9.72536621 222.73444933 12.67659619 222.78905872 15.65234375 222.79296875 C16.96350914 222.79796135 16.96350914 222.79796135 18.30116272 222.80305481 C20.14958164 222.80811649 21.9980097 222.81046337 23.84643555 222.81030273 C26.6731675 222.81248892 29.49950898 222.8306517 32.32617188 222.84960938 C34.1223945 222.85254351 35.91861898 222.85452817 37.71484375 222.85546875 C38.98218605 222.86624702 38.98218605 222.86624702 40.27513123 222.87724304 C41.0659761 222.87416641 41.85682098 222.87108978 42.67163086 222.86791992 C43.3642955 222.86934494 44.05696014 222.87076996 44.77061462 222.87223816 C47.16884274 222.57268381 48.70352507 221.90731264 50.75 220.625 C54.23658677 216.00295995 54.23658677 216.00295995 54.40625 210.42431641 C53.77139208 206.74884807 52.91551473 203.27511521 51.88671875 199.69140625 C51.69857605 199.03236801 51.51043335 198.37332977 51.31658936 197.69432068 C50.69516705 195.52392624 50.06660507 193.35567892 49.4375 191.1875 C48.99799662 189.66084518 48.55862762 188.13415167 48.11938477 186.60742188 C43.57184591 170.84915424 38.85719895 155.13994639 34.12109375 139.4375 C33.89548767 138.68907333 33.66988159 137.94064667 33.43743896 137.16954041 C32.5728642 134.30949882 31.69490507 131.45971522 30.75 128.625 C29.76 128.625 28.77 128.625 27.75 128.625 Z " fill="#FFFFFF" transform="translate(155.25,416.375)"/>
<path d="M0 0 C6.04686421 7.71427527 7.90507037 18.31645911 10.3125 27.625 C12.23883215 34.98868716 14.24152511 42.29158124 16.56958008 49.53881836 C21.61643101 65.3524886 21.61643101 65.3524886 19.9375 73.1875 C16.24323764 80.0834564 9.5459988 81.78782389 2.34912109 83.97363281 C-0.24185573 84.68821463 -2.83860195 85.37733816 -5.4375 86.0625 C-21.6539057 90.48627942 -21.6539057 90.48627942 -33.25 102.0625 C-38.93802985 116.93888577 -34.38417215 137.83360647 -33.0625 153.1875 C-31.03075044 152.98432504 -28.99900633 152.7810954 -26.96728516 152.57763672 C-25.17538259 152.39867717 -23.38338779 152.22063909 -21.59130859 152.04345703 C-16.98281227 151.58654217 -12.37666418 151.11681731 -7.7734375 150.609375 C19.6041816 147.62884175 19.6041816 147.62884175 25.9375 152.1875 C29.80212863 156.60421844 30.10234404 160.48968182 30.3671875 166.23046875 C30.4393477 167.69646505 30.51178861 169.16244755 30.58447266 170.62841797 C30.63997284 171.78878571 30.63997284 171.78878571 30.69659424 172.97259521 C31.39732121 187.49672068 32.4298043 201.94364658 33.97216797 216.40307617 C36.46604135 240.61162188 36.46604135 240.61162188 31.9375 246.1875 C26.65890165 249.92611972 21.08830556 249.74497758 14.8515625 249.91796875 C13.26618179 249.97818962 13.26618179 249.97818962 11.64877319 250.03962708 C8.2870001 250.16435992 4.92493966 250.26993879 1.5625 250.375 C-0.72270165 250.4564178 -3.00785912 250.53908604 -5.29296875 250.62304688 C-10.88238177 250.82568788 -16.47215308 251.01262513 -22.0625 251.1875 C-21.7325 251.8475 -21.4025 252.5075 -21.0625 253.1875 C-20.86709206 254.54634148 -20.72095885 255.91245404 -20.60107422 257.2800293 C-20.52335281 258.14014618 -20.44563141 259.00026306 -20.36555481 259.88644409 C-20.2835936 260.83528473 -20.20163239 261.78412537 -20.1171875 262.76171875 C-19.929379 264.8428784 -19.74129521 266.92401322 -19.55297852 269.00512695 C-19.45332794 270.1203775 -19.35367737 271.23562805 -19.25100708 272.38467407 C-17.28407456 294.28285758 -15.05951953 316.14931982 -12.625 338 C-12.55167576 338.6598011 -12.47835152 339.3196022 -12.40280533 339.99939728 C-10.79456576 354.46529925 -9.12565669 368.92151125 -7.28125 383.359375 C-7.14017319 384.46645309 -6.99909637 385.57353119 -6.85374451 386.7141571 C-6.19760021 391.84322293 -5.52957192 396.97028004 -4.84008789 402.0949707 C-1.19971504 429.61063225 -1.19971504 429.61063225 -5.25 434.9375 C-9.35745157 438.22346125 -12.96784701 439.38731784 -18.17456055 439.75 C-19.669795 439.86021484 -19.669795 439.86021484 -21.19523621 439.97265625 C-22.26905045 440.04355469 -23.34286469 440.11445312 -24.44921875 440.1875 C-25.57906693 440.26871094 -26.7089151 440.34992188 -27.8730011 440.43359375 C-31.49817458 440.69253138 -35.12400827 440.94031169 -38.75 441.1875 C-41.10877776 441.35340346 -43.46750247 441.52006309 -45.82617188 441.6875 C-49.35946332 441.93823493 -52.89280178 442.18792207 -56.42648315 442.43310547 C-62.39161792 442.848175 -68.35423072 443.28313594 -74.31494141 443.7578125 C-75.48370316 443.850625 -76.6524649 443.9434375 -77.85664368 444.0390625 C-80.060337 444.21562044 -82.26379923 444.39509826 -84.46696472 444.578125 C-105.11937327 446.23187641 -105.11937327 446.23187641 -111.82421875 440.74609375 C-118.46547627 433.81538674 -118.39563381 424.2405159 -118.95703125 415.08203125 C-119.02940506 413.99743118 -119.10177887 412.91283112 -119.17634583 411.79536438 C-119.3330029 409.43679305 -119.48652822 407.07801207 -119.63726807 404.71905518 C-120.00705823 398.93409394 -120.39570474 393.150401 -120.78190613 387.36651611 C-120.91950838 385.30110896 -121.05621655 383.23564415 -121.19274902 381.17016602 C-122.24391779 365.29839817 -123.38462849 349.43309359 -124.52544785 333.5675621 C-124.83915271 329.20215299 -125.15181414 324.83666895 -125.46412563 320.47115993 C-125.71117536 317.01934676 -125.95931766 313.56762009 -126.21006775 310.11607361 C-126.6444796 304.12327066 -127.07140896 298.13031976 -127.45677376 292.13414955 C-127.58273351 290.17814392 -127.7120368 288.22235452 -127.84140015 286.26657104 C-127.99937488 283.86863958 -128.15150259 281.4703125 -128.29653931 279.07156372 C-128.82157009 270.95048493 -128.82157009 270.95048493 -131.0625 263.1875 C-134.06445988 262.18684671 -135.83913558 262.12018017 -138.95703125 262.23046875 C-139.91287109 262.25173828 -140.86871094 262.27300781 -141.85351562 262.29492188 C-143.85647445 262.34800611 -145.85915602 262.41297594 -147.86132812 262.49023438 C-153.75302143 262.5970683 -157.57478772 262.4497699 -162.0625 258.1875 C-168.67391209 246.62285981 -167.84956586 230.42596803 -168.92236328 217.39257812 C-169.18701632 214.19334686 -169.46228095 210.99514493 -169.73828125 207.796875 C-172.33670096 177.09272216 -172.33670096 177.09272216 -168.0625 171.1875 C-164.46962397 168.5035909 -160.97274568 167.46787271 -156.625 166.5 C-154.98724609 166.12294922 -154.98724609 166.12294922 -153.31640625 165.73828125 C-150.1546296 165.20309457 -147.26033835 165.14813769 -144.0625 165.1875 C-144.1332373 164.45821289 -144.20397461 163.72892578 -144.27685547 162.97753906 C-145.20434809 152.04649245 -145.21439752 141.1486338 -145.19287109 130.18505859 C-145.18753384 126.95795951 -145.19283235 123.73100099 -145.19921875 120.50390625 C-145.20311765 111.04697825 -145.14249717 101.60230358 -144.65625 92.15625 C-144.62274445 91.4620697 -144.58923889 90.7678894 -144.55471802 90.05267334 C-143.27989218 68.74202527 -132.72658088 49.79620088 -117.43359375 35.2109375 C-96.00230938 16.92196666 -28.13764845 -21.80929257 0 0 Z " fill="#FFFFFF" transform="translate(486.0625,335.8125)"/>
<path d="M0 0 C1.45977928 3.4354204 2.09631862 6.90578384 2.6640625 10.5703125 C2.78523438 11.27929688 2.90640625 11.98828125 3.03125 12.71875 C3.94992662 18.27075219 4.52997539 23.84243685 5.0390625 29.4453125 C5.87038696 29.05545166 5.87038696 29.05545166 6.71850586 28.65771484 C19.17331644 22.83714399 31.70625645 17.21702829 44.34915161 11.81842041 C45.79978563 11.1986579 47.24956776 10.57689731 48.69845581 9.95306396 C50.75725821 9.06780831 52.81943879 8.1909455 54.8828125 7.31640625 C56.66461914 6.55734985 56.66461914 6.55734985 58.48242188 5.78295898 C62.31797524 4.34041389 66.05498006 3.39185758 70.0390625 2.4453125 C71.95775203 1.74247703 73.87449776 1.03430764 75.7890625 0.3203125 C88.09626354 -3.49076489 103.45082137 -3.56089154 115.0390625 2.4453125 C134.70114784 13.99246411 145.61359651 37.72366756 151.6015625 58.9453125 C151.8996582 59.98921143 152.19775391 61.03311035 152.50488281 62.10864258 C155.13268424 71.47822727 157.33455588 80.86586309 159.0390625 90.4453125 C159.1726416 91.17492187 159.3062207 91.90453125 159.44384766 92.65625 C160.55300164 98.89267681 161.32905866 105.15218136 162.0390625 111.4453125 C162.17731445 112.61610352 162.31556641 113.78689453 162.45800781 114.99316406 C165.32877025 140.64857824 165.31066775 166.35273232 165.2890625 192.1328125 C165.28856211 193.42999899 165.28856211 193.42999899 165.28805161 194.75339127 C165.28173658 206.98502282 165.21124981 219.21484475 165.0390625 231.4453125 C165.02890106 232.18022163 165.01873962 232.91513077 165.00827026 233.67230988 C164.93873261 238.43751514 164.8343615 243.20072702 164.7109375 247.96484375 C164.68944641 249.13826828 164.66795532 250.31169281 164.64581299 251.52067566 C164.40597452 259.09641988 163.7035145 264.3709448 158.6015625 270.2578125 C154.53664432 273.72786461 151.63647285 274.69125244 146.30786133 275.01660156 C144.57205307 275.12687683 144.57205307 275.12687683 142.80117798 275.23937988 C140.93893082 275.34131653 140.93893082 275.34131653 139.0390625 275.4453125 C137.78217621 275.51745972 136.52528992 275.58960693 135.23031616 275.66394043 C126.35308535 276.15167409 117.47177252 276.55920845 108.59057617 276.96728516 C105.33845329 277.11767754 102.08697978 277.27733592 98.83569336 277.44482422 C94.87260541 277.6488656 90.90905058 277.83636908 86.94462013 278.01233673 C85.44655632 278.08156736 83.94874393 278.15650275 82.45126915 278.23748016 C65.18635837 279.16160853 65.18635837 279.16160853 59.53422546 274.09686279 C56.93323988 271.19900655 54.98295116 268.22086713 54.0390625 264.4453125 C54.66707725 258.48868773 56.61880957 252.79871686 58.2890625 247.0703125 C65.21657876 222.7723874 70.3363288 197.76129417 71.0390625 172.4453125 C71.06097656 171.73197754 71.08289062 171.01864258 71.10546875 170.28369141 C71.58865666 152.19233084 72.23506494 127.94656998 60.7590332 112.75952148 C57.02219238 109.90424623 52.21890871 110.95783996 47.7890625 111.3828125 C46.79003906 111.44533203 45.79101562 111.50785156 44.76171875 111.57226562 C35.96088114 112.1992534 27.26164443 113.06378086 20.0390625 118.4453125 C14.04940474 126.6998096 13.74015546 137.07089821 13.80859375 146.87890625 C13.80866928 148.52028564 13.80866928 148.52028564 13.80874634 150.19482422 C13.8123548 153.75760245 13.83129424 157.32009302 13.8515625 160.8828125 C13.8591076 163.36531485 13.86634743 165.84781816 13.87329102 168.33032227 C13.9632087 192.06483307 14.30744219 215.81174325 15.3341217 239.52629089 C15.46236238 242.49384579 15.58061366 245.46177563 15.69949341 248.42971802 C15.78555099 250.42634179 15.89126084 252.42208907 15.99780273 254.41772461 C16.62412942 269.49118483 16.62412942 269.49118483 11.71734619 274.90309143 C4.56489403 280.19032837 -4.27697319 279.12737217 -12.7421875 279.0390625 C-14.48278724 279.03734908 -16.22338957 279.03741943 -17.96398926 279.03918457 C-21.60205973 279.03753598 -25.23951055 279.01892355 -28.87744141 278.98730469 C-33.52432557 278.9476286 -38.17039953 278.94326244 -42.81742096 278.95076752 C-46.40870493 278.95384734 -49.99980916 278.9416808 -53.59104919 278.92463684 C-55.30373506 278.91764068 -57.01644129 278.91447817 -58.72914124 278.91532898 C-61.12904179 278.91351702 -63.52799859 278.89201789 -65.92773438 278.86523438 C-66.62511215 278.86816498 -67.32248993 278.87109558 -68.04100037 278.87411499 C-74.63376926 278.76145055 -79.96725361 277.26563257 -84.8359375 272.8203125 C-89.87629471 264.81503928 -89.23443258 255.63860916 -89.17211914 246.49389648 C-89.16991359 245.10295725 -89.16861153 243.71201634 -89.1681366 242.32107544 C-89.16521677 239.33863563 -89.15601447 236.35630678 -89.14183235 233.37389946 C-89.11937435 228.63249254 -89.11144237 223.8911256 -89.10533142 219.14967346 C-89.0939683 211.6243076 -89.07327274 204.09900188 -89.04843372 196.57366949 C-89.0042118 183.16486412 -88.97062884 169.75604136 -88.94818968 156.34718186 C-88.93991638 151.66055346 -88.92587465 146.97398925 -88.90735096 142.28739083 C-88.82348017 119.8857085 -88.83459918 97.51098835 -91.7109375 75.2578125 C-91.8832488 73.86752675 -92.05544639 72.4772269 -92.22753906 71.08691406 C-93.57974414 60.39934619 -95.33104073 49.79798665 -97.38574219 39.22192383 C-101.05404176 19.62358705 -101.05404176 19.62358705 -96.84375 13.23046875 C-93.70555482 11.28716902 -91.47144746 10.49732541 -87.8359375 9.8828125 C-87.19382324 9.76969727 -86.55170898 9.65658203 -85.89013672 9.54003906 C-78.52794716 8.28238085 -71.11863298 7.26823176 -63.72460938 6.21777344 C-56.26121173 5.14026823 -48.8377322 3.9186931 -41.4140625 2.59765625 C-40.50103363 2.43639252 -39.58800476 2.27512878 -38.64730835 2.10897827 C-34.97044367 1.4590501 -31.29382562 0.80913577 -27.62164307 0.13317871 C-25.03605531 -0.34270944 -22.4481089 -0.80330173 -19.859375 -1.26171875 C-19.09465881 -1.40730728 -18.32994263 -1.55289581 -17.54205322 -1.70289612 C-11.94797298 -2.6742729 -4.70180399 -3.72772508 0 0 Z " fill="#FFFFFF" transform="translate(1416.9609375,496.5546875)"/>
<path d="M0 0 C1.03922607 0.30741119 2.07845215 0.61482239 3.14916992 0.93154907 C6.16252562 1.82581551 9.17345827 2.727772 12.18359375 3.6328125 C13.08073593 3.89939163 13.97787811 4.16597076 14.90220642 4.44062805 C32.44600046 9.75850046 32.44600046 9.75850046 38.5625 15.875 C41.76158532 25.47225595 38.0895157 33.69545812 34.47412109 42.57470703 C33.49186606 45.05323058 32.57743587 47.54966197 31.67578125 50.05859375 C31.20990601 51.35422241 31.20990601 51.35422241 30.73461914 52.67602539 C30.1283659 54.36830178 29.5246129 56.06147633 28.92358398 57.75561523 C28.64458252 58.52462158 28.36558105 59.29362793 28.078125 60.0859375 C27.71122559 61.11146729 27.71122559 61.11146729 27.33691406 62.15771484 C26.5625 63.875 26.5625 63.875 24.5625 65.875 C21.81640625 65.5859375 21.81640625 65.5859375 18.5625 64.875 C17.56089844 64.66101563 16.55929687 64.44703125 15.52734375 64.2265625 C14.52832031 63.98679687 13.52929688 63.74703125 12.5 63.5 C11.49839844 63.26539063 10.49679687 63.03078125 9.46484375 62.7890625 C6.48364899 61.85016671 4.16654104 60.58554439 1.5625 58.875 C-1.22138975 60.58125501 -2.29134206 61.35126739 -3.1875 64.5625 C-3.27 65.325625 -3.3525 66.08875 -3.4375 66.875 C-4.85745501 66.64440901 -6.27347978 66.38955862 -7.6875 66.125 C-8.47640625 65.98578125 -9.2653125 65.8465625 -10.078125 65.703125 C-12.4375 64.875 -12.4375 64.875 -14.28125 62.96875 C-17.06070403 60.26985985 -20.0808411 59.2905666 -23.6875 58.125 C-24.66203125 57.79435547 -24.66203125 57.79435547 -25.65625 57.45703125 C-27.24647798 56.91916002 -28.8415371 56.39560822 -30.4375 55.875 C-30.4375 54.885 -30.4375 53.895 -30.4375 52.875 C-29.7775 52.875 -29.1175 52.875 -28.4375 52.875 C-28.57247324 48.09897823 -28.57247324 48.09897823 -31.125 44.375 C-34.89847023 43.55911454 -38.17628091 44.58394944 -41.875 45.4375 C-44.4375 45.875 -44.4375 45.875 -47.625 45.75 C-51.758573 45.88552698 -54.97198873 46.82421451 -58.8828125 48.06640625 C-70.33545918 51.69132653 -70.33545918 51.69132653 -76.4375 48.875 C-76.705625 49.638125 -76.97375 50.40125 -77.25 51.1875 C-78.43165892 53.86178071 -79.08103655 55.19181182 -81.4375 56.875 C-84.625 57.5625 -84.625 57.5625 -87.4375 57.875 C-87.37949219 58.61105469 -87.32148437 59.34710937 -87.26171875 60.10546875 C-86.89091615 68.12539929 -86.89091615 68.12539929 -89.625 71.875 C-92.4375 73.875 -92.4375 73.875 -95 75.3125 C-98.13110951 77.31962148 -99.63407929 79.71901375 -101.4375 82.875 C-102.20320312 84.19177734 -102.20320312 84.19177734 -102.984375 85.53515625 C-106.65400803 91.85716953 -106.65400803 91.85716953 -108.4375 98.875 C-108.1075 99.205 -107.7775 99.535 -107.4375 99.875 C-106.11055899 106.97659169 -106.5461376 111.24896118 -109.4375 117.875 C-109.60414072 121.32607559 -109.45202506 124.56531988 -108.4375 127.875 C-107.14730163 129.25011589 -105.80871292 130.58065435 -104.4375 131.875 C-103.22593815 133.65780264 -102.06036034 135.47254021 -100.9375 137.3125 C-96.84604261 143.99831332 -92.53187028 150.16267589 -85.4375 153.875 C-81.86396819 153.81736239 -79.60732793 153.45991397 -76.4375 151.875 C-74.82930614 152.09762793 -73.22560943 152.35315418 -71.625 152.625 C-65.399391 153.31309363 -61.07102277 151.51749014 -55.48046875 148.90625 C-51.95722862 147.71223794 -49.98805493 147.86418393 -46.4375 148.875 C-43.4375 151.975 -43.4375 151.975 -43.4375 154.875 C-40.4675 154.875 -37.4975 154.875 -34.4375 154.875 C-34.7675 155.865 -35.0975 156.855 -35.4375 157.875 C-34.1175 157.875 -32.7975 157.875 -31.4375 157.875 C-31.36254706 161.77255293 -31.49763063 165.11552251 -32.4375 168.875 C-32.92163962 174.66362592 -31.86632176 177.54104077 -28.625 182.3125 C-24.20046078 189.07813189 -21.08397452 194.56715125 -21.4375 202.875 C-21.13586866 205.21264285 -20.80988718 207.54758011 -20.4375 209.875 C-21.4275 210.205 -22.4175 210.535 -23.4375 210.875 C-23.49808594 211.48988281 -23.55867188 212.10476563 -23.62109375 212.73828125 C-23.70488281 213.54652344 -23.78867188 214.35476563 -23.875 215.1875 C-23.99681641 216.38826172 -23.99681641 216.38826172 -24.12109375 217.61328125 C-24.4375 219.875 -24.4375 219.875 -25.4375 222.875 C-26.09032944 228.75046495 -25.60828451 231.98235927 -22.6875 237.125 C-19.07572791 243.68567777 -17.95502053 250.30755409 -16.81933594 257.66503906 C-16.67915039 258.53870117 -16.53896484 259.41236328 -16.39453125 260.3125 C-16.28085205 261.09496094 -16.16717285 261.87742187 -16.05004883 262.68359375 C-15.3269215 265.27059691 -14.12681816 266.80969716 -12.4375 268.875 C-9.86657285 274.00627435 -9.4375 278.13974504 -9.4375 283.875 C-8.4475 284.535 -7.4575 285.195 -6.4375 285.875 C-6.7675 286.865 -7.0975 287.855 -7.4375 288.875 C-49.92740199 296.99708237 -96.71074859 280.98318568 -131.74902344 257.31347656 C-140.15684931 251.40015797 -147.91932091 244.88057597 -155.4375 237.875 C-156.99803766 236.5185724 -158.56050963 235.16436667 -160.125 233.8125 C-164.284558 230.10223223 -167.90082801 226.17691681 -171.4375 221.875 C-171.87465332 221.35550781 -172.31180664 220.83601562 -172.76220703 220.30078125 C-179.80773152 211.91493465 -186.02113489 203.39204997 -191.35205078 193.81835938 C-192.46266947 191.82993726 -193.60423037 189.86123702 -194.74609375 187.890625 C-200.89345534 177.04818694 -205.0693241 165.85923067 -208.4375 153.875 C-208.6634082 153.08319336 -208.88931641 152.29138672 -209.12207031 151.47558594 C-218.43343179 117.39113987 -211.61907867 82.09783782 -194.4375 51.875 C-176.00926133 21.14865545 -149.77410434 -2.81983284 -114.85742188 -12.52294922 C-75.75378474 -22.25151754 -37.47547801 -11.10966082 0 0 Z M-99.4375 69.875 C-100.0975 71.525 -100.7575 73.175 -101.4375 74.875 C-100.4475 74.875 -99.4575 74.875 -98.4375 74.875 C-98.1075 73.555 -97.7775 72.235 -97.4375 70.875 C-98.0975 70.545 -98.7575 70.215 -99.4375 69.875 Z M-109.4375 72.875 C-108.12548827 74.43749809 -108.12548827 74.43749809 -106.4375 75.875 C-105.4475 75.875 -104.4575 75.875 -103.4375 75.875 C-103.7675 74.885 -104.0975 73.895 -104.4375 72.875 C-106.0875 72.875 -107.7375 72.875 -109.4375 72.875 Z " fill="#FFFFFF" transform="translate(1085.4375,488.125)"/>
<path d="M0 0 C4.01302276 3.12123992 4.57313239 6.72779827 5.3203125 11.609375 C5.58134766 13.28193359 5.58134766 13.28193359 5.84765625 14.98828125 C6.10869141 16.72658203 6.10869141 16.72658203 6.375 18.5 C6.55675781 19.67433594 6.73851562 20.84867187 6.92578125 22.05859375 C7.37317271 24.9548648 7.81434052 27.85194496 8.25 30.75 C11.24850581 30.75 12.53695285 30.35541252 15.22387695 29.19287109 C16.01933426 28.85186371 16.81479156 28.51085632 17.63435364 28.15951538 C18.49364975 27.78460968 19.35294586 27.40970398 20.23828125 27.0234375 C21.13306686 26.63813873 22.02785248 26.25283997 22.94975281 25.85586548 C25.82289093 24.61731933 28.69272096 23.37130679 31.5625 22.125 C33.45355989 21.30809321 35.34483374 20.4916815 37.23632812 19.67578125 C39.09116661 18.87504812 40.94598454 18.07426738 42.80078125 17.2734375 C43.70918762 16.88131073 44.61759399 16.48918396 45.55352783 16.08517456 C49.52357599 14.36938892 53.49029995 12.64792768 57.44238281 10.89111328 C69.83731056 5.43211291 85.29480715 0.55011658 98.75 4.875 C102.77974767 7.89731075 105.00480122 11.06391952 105.73583984 16.09082031 C105.72762207 17.32413086 105.7194043 18.55744141 105.7109375 19.828125 C105.71083679 20.528237 105.71073608 21.228349 105.71063232 21.94967651 C105.70331171 24.30045465 105.66505719 26.64956671 105.625 29 C105.60974951 30.6756117 105.59528712 32.35123073 105.58154297 34.02685547 C105.40707498 50.31296582 104.88878644 66.59677251 104.375 82.875 C104.33606628 84.17232056 104.29713257 85.46964111 104.25701904 86.80627441 C104.14254309 90.5197168 104.01488865 94.23245911 103.8828125 97.9453125 C103.8493573 99.06453094 103.8159021 100.18374939 103.78143311 101.33688354 C103.74157288 102.37313873 103.70171265 103.40939392 103.66064453 104.47705078 C103.61401169 105.82949387 103.61401169 105.82949387 103.56643677 107.20925903 C103.03948984 111.44023279 101.97802187 114.06029507 98.875 117 C95.23540514 119.42639658 92.31338987 119.88077591 87.99487305 119.83178711 C86.74657967 119.82199074 86.74657967 119.82199074 85.47306824 119.81199646 C84.57832291 119.80056107 83.68357758 119.78912567 82.76171875 119.77734375 C80.83789255 119.76467794 78.91406432 119.75231847 76.99023438 119.74023438 C73.98032149 119.71563284 70.97051729 119.68787098 67.96069336 119.65405273 C43.88518846 118.35720247 43.88518846 118.35720247 22.9375 127.9375 C17.97360022 136.21066629 17.09430229 145.22227202 17.1171875 154.67578125 C17.11586823 155.55433273 17.11454895 156.43288422 17.1131897 157.33805847 C17.11125797 160.24624033 17.1176776 163.15432764 17.125 166.0625 C17.12588623 167.07296387 17.12677246 168.08342773 17.12768555 169.12451172 C17.14263199 183.82491152 17.34446032 198.51552208 17.68063354 213.21185303 C18.06236603 229.93116473 18.42200899 246.65192576 18.53710938 263.37548828 C18.55388185 265.39818395 18.57767492 267.42083499 18.60888672 269.44335938 C18.65052326 272.23721777 18.66647683 275.03009088 18.67578125 277.82421875 C18.69324905 278.64375534 18.71071686 279.46329193 18.72871399 280.30766296 C18.70886945 285.56452622 17.88287835 288.68203736 14.25 292.75 C9.49154998 295.72366815 5.3746739 296.18194501 -0.10693359 296.13818359 C-0.92401291 296.14344055 -1.74109222 296.14869751 -2.58293152 296.15411377 C-5.27163067 296.16726746 -7.95973279 296.15859058 -10.6484375 296.1484375 C-12.5264192 296.15045996 -14.40440013 296.15337283 -16.28237915 296.15713501 C-20.21469616 296.16155242 -24.1468084 296.15514751 -28.07910156 296.14111328 C-33.10488432 296.12404539 -38.13018555 296.1338511 -43.15595055 296.15183067 C-47.0337177 296.16270441 -50.91137194 296.15920532 -54.78914261 296.1514473 C-56.64139488 296.14945398 -58.4936576 296.15187388 -60.34589767 296.15888596 C-62.94229772 296.16655704 -65.53793377 296.15481671 -68.13427734 296.13818359 C-68.89090164 296.14425629 -69.64752594 296.15032898 -70.42707825 296.15658569 C-76.72111479 296.08238075 -82.51908233 294.98091767 -87.125 290.375 C-89.71609223 286.18938947 -91.00224784 282.7393956 -90.98377991 277.8021698 C-90.98573616 276.34349991 -90.98573616 276.34349991 -90.98773193 274.85536194 C-90.97897034 273.79860764 -90.97020874 272.74185333 -90.96118164 271.65307617 C-90.95921028 269.96810028 -90.95921028 269.96810028 -90.9571991 268.24908447 C-90.95068527 264.51362845 -90.93019215 260.77837465 -90.91015625 257.04296875 C-90.90387115 254.40741701 -90.89863597 251.77186258 -90.89439392 249.13630676 C-90.88169608 242.15296186 -90.8566921 235.16970081 -90.82904053 228.18640137 C-90.78031572 215.84696511 -90.745623 203.50747908 -90.72265625 191.16796875 C-90.72138135 190.49799756 -90.72010645 189.82802636 -90.71879292 189.13775301 C-90.68525109 170.42307941 -90.77592032 151.71535662 -91.14453125 133.00390625 C-91.17017497 131.57416001 -91.17017497 131.57416001 -91.19633675 130.11553001 C-91.75074818 100.40079063 -95.50393918 71.24821794 -100.46337891 41.97363281 C-100.61435028 41.07477859 -100.76532166 40.17592438 -100.92086792 39.24983215 C-101.20347694 37.57580296 -101.49111907 35.90261181 -101.78494263 34.23051453 C-103.74633706 22.63592372 -103.74633706 22.63592372 -101 17.4375 C-97.78457759 13.59685656 -94.93375971 12.60093491 -90.06201172 11.88378906 C-89.12983826 11.74293884 -88.19766479 11.60208862 -87.23724365 11.45697021 C-86.22825012 11.31132629 -85.21925659 11.16568237 -84.1796875 11.015625 C-83.12203186 10.85692932 -82.06437622 10.69823364 -80.97467041 10.534729 C-78.70392434 10.19429732 -76.43274781 9.85672706 -74.16119385 9.52172852 C-68.2458641 8.64898332 -62.33364922 7.75585109 -56.421875 6.859375 C-55.24879791 6.68164551 -54.07572083 6.50391602 -52.86709595 6.32080078 C-41.45052234 4.57699951 -30.08251965 2.59582686 -18.72998047 0.47753906 C-17.48104004 0.24776367 -16.23209961 0.01798828 -14.9453125 -0.21875 C-13.88328613 -0.41919922 -12.82125977 -0.61964844 -11.72705078 -0.82617188 C-7.43309704 -1.43748102 -3.99445735 -1.81566243 0 0 Z " fill="#FFFFFF" transform="translate(633.75,482.25)"/>
<path d="M0 0 C0.73734375 0.68320312 1.4746875 1.36640625 2.234375 2.0703125 C2.93046875 2.71226562 3.6265625 3.35421875 4.34375 4.015625 C20.1551933 20.13349162 24.20727235 44.59544978 24.83203125 66.23046875 C24.87094986 67.38228638 24.90986847 68.534104 24.94996643 69.7208252 C25.07480494 73.5245926 25.1866113 77.32859647 25.296875 81.1328125 C25.33774481 82.46614453 25.37890601 83.79946765 25.42034912 85.13278198 C26.15696648 108.96180453 26.55616128 132.7947552 26.859375 156.6328125 C26.86975422 157.44668049 26.88013344 158.26054848 26.89082718 159.09907913 C27.00529251 168.16073147 27.1050448 177.22231515 27.17752552 186.2844038 C27.21277345 190.43369146 27.27846009 194.58141647 27.36230469 198.72998047 C27.39015224 200.62336978 27.41783735 202.5167615 27.4453125 204.41015625 C27.46904938 205.226017 27.49278625 206.04187775 27.51724243 206.88246155 C27.57994005 212.95168183 26.21109738 216.91917344 22.109375 221.3828125 C14.86141002 225.63705281 4.23543107 224.24643809 -3.92578125 224.2734375 C-4.59156126 224.27626488 -5.25734127 224.27909225 -5.94329643 224.28200531 C-9.46032976 224.29689239 -12.97732311 224.30619039 -16.49438477 224.31054688 C-20.10425218 224.31604553 -23.71374515 224.34013257 -27.32349491 224.36851883 C-30.12293045 224.38722234 -32.92227661 224.39235468 -35.72176933 224.39388275 C-37.69363158 224.39833665 -39.66544579 224.41693073 -41.63722229 224.43585205 C-56.43674244 224.39919506 -56.43674244 224.39919506 -62.203125 218.6328125 C-64.6087283 214.68762309 -64.88988345 211.4427653 -64.86328125 206.8671875 C-64.85844727 205.39765625 -64.85844727 205.39765625 -64.85351562 203.8984375 C-64.84094727 202.37476563 -64.84094727 202.37476563 -64.828125 200.8203125 C-64.82361328 199.7890625 -64.81910156 198.7578125 -64.81445312 197.6953125 C-64.80268588 195.15358677 -64.78624511 192.61197931 -64.765625 190.0703125 C-65.40886719 190.75996094 -66.05210938 191.44960938 -66.71484375 192.16015625 C-86.30274688 212.53045779 -110.87998942 222.68437198 -139.11743164 223.35473633 C-154.55806639 223.51466364 -171.82908887 223.22681933 -186.765625 219.0703125 C-185.60266093 214.18586339 -183.76739536 211.81528779 -180.21875 208.5078125 C-178.27289385 206.58287953 -177.05857182 204.47149946 -175.765625 202.0703125 C-175.270625 201.3071875 -174.775625 200.5440625 -174.265625 199.7578125 C-172.94967235 197.400064 -172.24067914 195.43430369 -171.453125 192.8828125 C-170.7265625 190.80859375 -170.7265625 190.80859375 -169.765625 189.0703125 C-166.578125 187.5703125 -166.578125 187.5703125 -163.765625 187.0703125 C-163.73799143 185.71626753 -163.71895078 184.36204695 -163.703125 183.0078125 C-163.69152344 182.18410156 -163.67992187 181.36039063 -163.66796875 180.51171875 C-163.682381 177.83664285 -163.682381 177.83664285 -164.765625 174.4453125 C-164.765625 171.0703125 -164.765625 171.0703125 -163.296875 169.2578125 C-160.04691491 166.35784811 -156.54076383 163.90365174 -152.953125 161.4453125 C-149.68926039 159.01341338 -148.46976997 157.69476242 -146.765625 154.0703125 C-146.29164612 150.46603122 -146.29164612 150.46603122 -146.390625 146.6328125 C-146.38289063 145.35535156 -146.37515625 144.07789063 -146.3671875 142.76171875 C-146.78983324 138.84603027 -148.00767403 136.5439108 -149.765625 133.0703125 C-149.875 130.1484375 -149.875 130.1484375 -149.515625 127.3203125 C-149.40734375 126.37671875 -149.2990625 125.433125 -149.1875 124.4609375 C-148.765625 122.0703125 -148.765625 122.0703125 -147.765625 120.0703125 C-147.85972656 119.34714844 -147.95382812 118.62398437 -148.05078125 117.87890625 C-147.61236353 113.56079204 -145.04092232 111.27502193 -142.203125 108.1328125 C-141.43258789 107.24045898 -141.43258789 107.24045898 -140.64648438 106.33007812 C-137.99132078 103.31209714 -135.26605405 100.57648087 -132.17578125 98.00390625 C-126.31333487 93.08104298 -122.70767658 87.61458483 -119.515625 80.7578125 C-119.165 80.04947266 -118.814375 79.34113281 -118.453125 78.61132812 C-115.98860687 73.38370602 -115.15262703 68.83550457 -114.765625 63.0703125 C-115.37148437 63.26367188 -115.97734375 63.45703125 -116.6015625 63.65625 C-122.60404717 65.52163754 -128.5815147 66.95190957 -134.765625 68.0703125 C-136.94769656 65.38559574 -137.810407 63.89715543 -138.703125 60.4453125 C-139.37368859 57.05847216 -139.37368859 57.05847216 -141.515625 55.9453125 C-142.258125 55.6565625 -143.000625 55.3678125 -143.765625 55.0703125 C-148.91657306 51.60130666 -150.40743936 49.06600813 -152.046875 43.1328125 C-152.66682516 40.8577796 -152.66682516 40.8577796 -154.890625 39.0078125 C-157.06442488 36.76155262 -157.06068772 36.02057533 -157.328125 33.0078125 C-157.80601403 28.70681125 -157.93587756 28.75652203 -160.765625 26.0703125 C-161.59139409 24.59983998 -162.35776641 23.09519529 -163.078125 21.5703125 C-164.91613965 17.7434431 -166.89910687 14.06261021 -169.015625 10.3828125 C-171.36128888 6.14858847 -172.55124709 2.89381553 -172.765625 -1.9296875 C-157.45071641 -10.58594018 -139.98672801 -15.65453166 -122.765625 -18.9296875 C-121.62311279 -19.15398438 -121.62311279 -19.15398438 -120.45751953 -19.3828125 C-82.955432 -26.44346116 -30.39339958 -26.12243166 0 0 Z M-121.765625 144.0703125 C-121.8584375 144.905625 -121.8584375 144.905625 -121.953125 145.7578125 C-123.98920887 151.55282044 -129.78085063 154.51148301 -134.77734375 157.54296875 C-137.02213454 159.26735617 -137.87659506 160.39323358 -138.765625 163.0703125 C-138.68304553 165.2777787 -138.68304553 165.2777787 -138.203125 167.5078125 C-137.57351694 171.85140066 -138.46918753 173.33860161 -140.765625 177.0703125 C-140.9923832 182.08991451 -139.70381692 185.98239331 -136.765625 190.0703125 C-133.8613357 189.96238429 -133.8613357 189.96238429 -130.765625 189.0703125 C-128.26652905 185.61385144 -126.96727196 182.05615358 -125.703125 178.0078125 C-123.95704189 172.44699359 -123.95704189 172.44699359 -122.671875 169.91796875 C-121.5492877 167.88285135 -121.5492877 167.88285135 -121.328125 164.5703125 C-120.765625 161.0703125 -120.765625 161.0703125 -119.203125 159.1328125 C-117.00876689 155.98438565 -117.32261026 152.73789357 -117.765625 149.0703125 C-118.64777387 146.18816363 -118.64777387 146.18816363 -119.765625 144.0703125 C-120.425625 144.0703125 -121.085625 144.0703125 -121.765625 144.0703125 Z " fill="#FFFFFF" transform="translate(1290.765625,554.9296875)"/>
<path d="M0 0 C0.92126678 -0.00274933 1.84253357 -0.00549866 2.79171753 -0.0083313 C4.30438454 0.00245453 4.30438454 0.00245453 5.84761047 0.01345825 C7.44297638 0.01302017 7.44297638 0.01302017 9.0705719 0.01257324 C12.59309491 0.01396881 16.11540753 0.02954087 19.63789368 0.04519653 C22.07741175 0.04892585 24.51693131 0.05177321 26.95645142 0.05377197 C33.38281883 0.0614148 39.8090961 0.08106894 46.23542786 0.10317993 C52.79079468 0.12362434 59.34617605 0.13277068 65.90156555 0.14285278 C78.76814051 0.16431415 91.63465293 0.1980745 104.50117493 0.24050903 C104.08023998 17.20073768 103.61433715 34.15170872 102.74946594 51.09597778 C101.09594818 83.96841978 100.22475378 116.76169854 100.27851868 149.67800903 C100.28064133 151.04816036 100.28064133 151.04816036 100.28280687 152.44599152 C100.30355401 164.49279498 100.35339699 176.53941806 100.41175842 188.58609009 C100.48042038 202.81465193 100.5336612 217.04325923 100.56734091 231.27194691 C100.58058875 236.55798831 100.60426509 241.84384195 100.63674343 247.12979889 C100.65484815 250.37723748 100.66473992 253.62466464 100.67251015 256.87214279 C100.67783657 258.36895797 100.68662937 259.8657656 100.69921112 261.36253738 C100.71596284 263.40796925 100.72019697 265.45307386 100.72149658 267.49856567 C100.72723662 268.63878677 100.73297667 269.77900787 100.73889065 270.95378113 C100.42916992 275.23607153 99.84844279 279.5667445 97.09883118 282.98269653 C91.77334456 286.91244493 87.92860329 287.39779792 81.4848175 287.43338013 C80.66817627 287.44155762 79.85153503 287.44973511 79.01014709 287.4581604 C76.30534086 287.48298779 73.6005871 287.49952533 70.89570618 287.51394653 C69.9706748 287.51927021 69.04564342 287.52459389 68.0925808 287.53007889 C63.1945262 287.5568014 58.296497 287.57617751 53.39839172 287.59060669 C49.3506353 287.60393612 45.30338417 287.63177155 41.2558136 287.67263794 C36.36341869 287.72203184 31.47148149 287.74673625 26.57884789 287.75383377 C24.71817212 287.76053449 22.85750609 287.77572579 20.99697304 287.79972458 C18.38561415 287.83148117 15.77600771 287.83139737 13.164505 287.82400513 C12.40316757 287.84041046 11.64183014 287.8568158 10.85742188 287.87371826 C5.02598341 287.80651911 1.01841935 285.91474979 -3.49882507 282.24050903 C-6.53026304 278.13339953 -7.62566891 274.58550448 -7.61235046 269.52505493 C-7.61227619 268.55247018 -7.61220192 267.57988543 -7.6121254 266.57782841 C-7.60438158 264.97516196 -7.60438158 264.97516196 -7.59648132 263.34011841 C-7.59505505 262.21021956 -7.59362877 261.08032072 -7.59215927 259.91618252 C-7.58640809 256.13885155 -7.5737355 252.36157351 -7.56132507 248.58425903 C-7.55639989 245.92227602 -7.55192954 243.26029687 -7.54820251 240.59831238 C-7.54084054 235.65943607 -7.53189213 230.72056762 -7.52089429 225.78169805 C-7.4866533 210.32918076 -7.48355589 194.87665271 -7.48320007 179.42410278 C-7.48316325 178.69734557 -7.48312643 177.97058836 -7.48308849 177.2218082 C-7.47355063 140.51175916 -7.47355063 140.51175916 -7.74882507 103.80300903 C-7.75727825 103.06676678 -7.76573143 102.33052452 -7.77444077 101.57197189 C-8.05600757 78.12003763 -9.35045691 54.836132 -11.65898132 31.49441528 C-13.7041703 10.62289233 -13.7041703 10.62289233 -8.88554382 3.76394653 C-6.08586533 0.6882434 -3.99223781 -0.00918812 0 0 Z " fill="#FFFFFF" transform="translate(764.4988250732422,490.7594909667969)"/>
<path d="M0 0 C0.87398437 0.350625 1.74796875 0.70125 2.6484375 1.0625 C16.65571988 7.26880358 26.55809915 19.52212821 31.9765625 33.5234375 C36.49701527 47.59176248 34.84212088 63.94800222 28.45703125 77.203125 C21.2568383 89.26386011 10.38086869 96.10150263 -3 100 C-9.22834577 101.2162317 -15.42842537 101.18356867 -21.75 101.1875 C-22.7709375 101.19974609 -23.791875 101.21199219 -24.84375 101.22460938 C-42.09245403 101.2574432 -57.81686874 96.40727364 -71 85 C-80.88969951 73.47122552 -85.62138609 60.73719891 -84.875 45.5 C-83.78625533 35.03803969 -80.43063903 26.29910558 -74 18 C-73.49855469 17.32324219 -72.99710938 16.64648438 -72.48046875 15.94921875 C-65.20596983 6.83397071 -55.09809228 1.16640486 -44 -2 C-42.80246094 -2.35578125 -41.60492187 -2.7115625 -40.37109375 -3.078125 C-27.51020588 -6.21853922 -12.10019988 -5.30037574 0 0 Z " fill="#FFFFFF" transform="translate(837,368)"/>
<path d="M0 0 C0.91974609 -0.03287109 1.83949219 -0.06574219 2.78710938 -0.09960938 C3.67076172 -0.10669922 4.55441406 -0.11378906 5.46484375 -0.12109375 C6.67901978 -0.14127563 6.67901978 -0.14127563 7.91772461 -0.16186523 C10.0625 0.4375 10.0625 0.4375 11.73046875 2.64794922 C12.9902955 5.28628874 14.04076677 7.85896249 14.97265625 10.62890625 C15.31820557 11.64355957 15.66375488 12.65821289 16.01977539 13.70361328 C16.38449951 14.7914209 16.74922363 15.87922852 17.125 17 C17.91535159 19.32206261 18.70706997 21.64366036 19.5 23.96484375 C20.12068359 25.78411377 20.12068359 25.78411377 20.75390625 27.64013672 C22.98300098 34.13583173 25.30729035 40.59802524 27.625 47.0625 C28.06658447 48.29556885 28.50816895 49.5286377 28.96313477 50.79907227 C29.9951619 53.67894287 31.02821443 56.55843989 32.0625 59.4375 C37.47173111 47.14260117 41.82309218 34.44099231 46.3503418 21.8034668 C47.41116922 18.8456136 48.47683459 15.88953749 49.54296875 12.93359375 C50.02892769 11.56961708 50.02892769 11.56961708 50.52470398 10.17808533 C50.82874649 9.33613113 51.132789 8.49417694 51.44604492 7.62670898 C51.71076096 6.88791 51.97547699 6.14911102 52.24821472 5.38792419 C53.0625 3.4375 53.0625 3.4375 55.0625 0.4375 C57.12548828 0.09692383 57.12548828 0.09692383 59.6328125 0.14453125 C60.52871094 0.15419922 61.42460938 0.16386719 62.34765625 0.17382812 C63.75337891 0.2115332 63.75337891 0.2115332 65.1875 0.25 C66.13238281 0.26353516 67.07726562 0.27707031 68.05078125 0.29101562 C70.38858779 0.32643694 72.72526237 0.37582729 75.0625 0.4375 C77.05585483 6.52211294 77.79062564 12.52570532 78.46484375 18.87890625 C78.58735001 19.98791794 78.70985626 21.09692963 78.83607483 22.23954773 C79.23042372 25.82570246 79.61575001 29.41275019 80 33 C80.26602892 35.45347733 80.53230541 37.90692783 80.79882812 40.36035156 C81.32162837 45.18593146 81.83999849 50.01195868 82.35498047 54.83837891 C82.87058896 59.66545324 83.39818176 64.49099287 83.93690491 69.3155365 C84.32104362 72.77190976 84.69126098 76.22971775 85.0625 79.6875 C85.19906006 80.89092041 85.33562012 82.09434082 85.47631836 83.33422852 C85.5872583 84.40471436 85.69819824 85.4752002 85.8125 86.578125 C85.91046875 87.48079102 86.0084375 88.38345703 86.109375 89.31347656 C86.0625 91.4375 86.0625 91.4375 84.0625 93.4375 C81.3502875 93.66254349 78.77376815 93.76184995 76.0625 93.75 C75.32515625 93.76611328 74.5878125 93.78222656 73.828125 93.79882812 C71.6875 93.80078125 71.6875 93.80078125 68.0625 93.4375 C65.95865725 90.28173587 65.68625291 88.90706471 65.28466797 85.23168945 C65.16469452 84.17081619 65.04472107 83.10994293 64.92111206 82.016922 C64.80019196 80.87309555 64.67927185 79.7292691 64.5546875 78.55078125 C64.42434113 77.37863571 64.29399475 76.20649017 64.15969849 74.99882507 C63.7446089 71.250017 63.3409303 67.50007895 62.9375 63.75 C62.65830198 61.21020391 62.37836337 58.67048912 62.09765625 56.13085938 C61.41067023 49.9006579 60.73305207 43.66949048 60.0625 37.4375 C58.62652063 41.33075567 57.19253287 45.22473793 55.76049805 49.1194458 C55.25459802 50.49516094 54.74841434 51.87077181 54.24194336 53.24627686 C50.79167909 62.62138018 47.39616245 72.00984224 44.25756836 81.49511719 C41.61661228 89.27414991 41.61661228 89.27414991 39.0625 91.4375 C35.70703125 91.828125 35.70703125 91.828125 31.875 91.6875 C30.60269531 91.65140625 29.33039062 91.6153125 28.01953125 91.578125 C27.04371094 91.53171875 26.06789063 91.4853125 25.0625 91.4375 C21.99285382 84.7708874 19.30634263 78.00311216 16.75 71.125 C16.36336182 70.08988281 15.97672363 69.05476562 15.57836914 67.98828125 C11.93469995 58.18594982 8.46439716 48.32597277 5.0625 38.4375 C3.89796928 40.76656144 3.76639913 42.50586638 3.52172852 45.09912109 C3.42815567 46.06707611 3.33458282 47.03503113 3.23817444 48.03231812 C3.14024094 49.08126251 3.04230743 50.13020691 2.94140625 51.2109375 C2.72613029 53.41929218 2.51062847 55.62762485 2.29492188 57.8359375 C1.95843016 61.32719263 1.62441949 64.81864751 1.29467773 68.31054688 C0.97550272 71.67388625 0.64657333 75.03616194 0.31640625 78.3984375 C0.17254234 79.9657814 0.17254234 79.9657814 0.02577209 81.56478882 C-0.07095291 82.53904816 -0.16767792 83.5133075 -0.26733398 84.51708984 C-0.34870102 85.37265472 -0.43006805 86.2282196 -0.51390076 87.10971069 C-0.9375 89.4375 -0.9375 89.4375 -2.9375 93.4375 C-8.5475 93.4375 -14.1575 93.4375 -19.9375 93.4375 C-20.74069637 88.61832177 -20.96036884 85.77213398 -20.44018555 81.10693359 C-20.30642014 79.87059174 -20.17265472 78.63424988 -20.03483582 77.36044312 C-19.88143028 76.01892597 -19.72788752 74.67742452 -19.57421875 73.3359375 C-19.41989778 71.93519092 -19.26633225 70.53436093 -19.11347961 69.13345337 C-18.70873055 65.44140039 -18.29438891 61.75048765 -17.87780762 58.05975342 C-17.38193486 53.65184927 -16.89689692 49.24274356 -16.41060066 44.83377457 C-16.01857814 41.28123525 -15.62463493 37.72893916 -15.22555542 34.17718506 C-14.54586404 28.10948703 -13.88467031 22.04258545 -13.33056641 15.96191406 C-13.24386185 15.0190152 -13.15715729 14.07611633 -13.06782532 13.10464478 C-12.91597191 11.41213721 -12.77164821 9.71892859 -12.63664246 8.0249939 C-11.83989339 -0.88100182 -7.7095184 0.04841986 0 0 Z " fill="#FFFFFF" transform="translate(829.9375,814.5625)"/>
<path d="M0 0 C0.85142578 -0.05414062 1.70285156 -0.10828125 2.58007812 -0.1640625 C8.71254462 -0.29686147 8.71254462 -0.29686147 11.51806641 1.7355957 C13.14039635 3.56617225 14.47064328 5.45467461 15.8125 7.5 C16.62303833 8.64637939 16.62303833 8.64637939 17.44995117 9.81591797 C19.27412711 12.41646442 21.04623613 15.04731442 22.8125 17.6875 C24.13301533 19.64397156 25.45465662 21.59968355 26.77734375 23.5546875 C27.44491699 24.54178711 28.11249023 25.52888672 28.80029297 26.54589844 C32.49865596 31.97542916 36.28225741 37.34506584 40.06835938 42.71362305 C40.87176758 43.85504761 40.87176758 43.85504761 41.69140625 45.01953125 C42.38085327 45.99563354 42.38085327 45.99563354 43.08422852 46.99145508 C45.7060848 50.79701706 48.25605316 54.65029754 50.8125 58.5 C50.82280746 57.78812027 50.83311493 57.07624054 50.84373474 56.3427887 C50.94154898 49.64717174 51.04404004 42.95164482 51.15183926 36.25618076 C51.2070988 32.8136426 51.26052347 29.371096 51.30981445 25.9284668 C51.36650801 21.97435474 51.43107495 18.02039056 51.49609375 14.06640625 C51.52116249 12.20394005 51.52116249 12.20394005 51.54673767 10.30384827 C51.56668289 9.16274094 51.58662811 8.02163361 51.60717773 6.84594727 C51.62272202 5.835569 51.6382663 4.82519073 51.65428162 3.78419495 C51.8125 1.5 51.8125 1.5 52.8125 0.5 C55.65585048 0.40013025 58.46947163 0.36122119 61.3125 0.375 C62.50939453 0.36919922 62.50939453 0.36919922 63.73046875 0.36328125 C69.68589233 0.37339233 69.68589233 0.37339233 70.8125 1.5 C70.91303508 4.3250333 70.94865716 7.12565285 70.94189453 9.95117188 C70.94452301 11.28034386 70.94452301 11.28034386 70.94720459 12.6363678 C70.9516244 15.58051482 70.94868467 18.52460231 70.9453125 21.46875 C70.9459855 23.50516776 70.9469555 25.54158544 70.94821167 27.57800293 C70.94968882 31.85197716 70.94753355 36.12593053 70.94287109 40.39990234 C70.9371738 45.89158539 70.94045271 51.38321957 70.94644356 56.87490082 C70.95004872 61.08177054 70.94891079 65.28862859 70.94631577 69.49549866 C70.94564637 71.52100124 70.94647535 73.54650486 70.94879532 75.57200623 C70.9513211 78.3976423 70.9474823 81.22319807 70.94189453 84.04882812 C70.94391876 84.89457901 70.94594299 85.7403299 70.94802856 86.61170959 C70.92676241 92.38573759 70.92676241 92.38573759 69.8125 93.5 C66.92779974 93.87221939 64.14737886 94.10318112 61.25 94.25 C60.46302734 94.33765625 59.67605469 94.4253125 58.86523438 94.515625 C56.16298341 94.62255661 54.34877344 94.46782752 51.8125 93.5 C48.52981268 90.2242115 46.2413336 86.4307754 43.8125 82.5 C42.49614659 80.57143081 41.17191207 78.64821727 39.83984375 76.73046875 C38.47478105 74.71735266 37.11155397 72.70299085 35.75 70.6875 C34.64407287 69.05557864 33.53814204 67.42365977 32.43193054 65.79193115 C31.68065166 64.68356726 30.92960373 63.5750468 30.17878723 62.46636963 C26.25764145 56.67673272 22.31693943 50.9004895 18.375 45.125 C17.14699059 43.32561967 15.91911383 41.52614879 14.69140625 39.7265625 C14.1816626 38.97971191 13.67191895 38.23286133 13.14672852 37.46337891 C12.02648463 35.81488826 10.91807577 34.15836365 9.8125 32.5 C9.7970388 33.62419594 9.7970388 33.62419594 9.78126526 34.77110291 C9.68345475 41.81990454 9.58096424 48.86861874 9.47316074 55.91727352 C9.41789903 59.5414158 9.364474 63.1655661 9.31518555 66.78979492 C9.26758968 70.28467099 9.2152489 73.7794462 9.15955925 77.27420235 C9.12913587 79.26233823 9.10368018 81.25054809 9.07826233 83.23875427 C9.05831711 84.43992386 9.03837189 85.64109344 9.01782227 86.87866211 C9.00227798 87.94233505 8.9867337 89.006008 8.97071838 90.10191345 C8.8125 92.5 8.8125 92.5 7.8125 93.5 C4.96914952 93.59986975 2.15552837 93.63877881 -0.6875 93.625 C-1.48542969 93.62886719 -2.28335937 93.63273438 -3.10546875 93.63671875 C-9.06089233 93.62660767 -9.06089233 93.62660767 -10.1875 92.5 C-10.28803508 89.6749667 -10.32365716 86.87434715 -10.31689453 84.04882812 C-10.31864685 83.16271347 -10.32039917 82.27659882 -10.32220459 81.3636322 C-10.3266244 78.41948518 -10.32368467 75.47539769 -10.3203125 72.53125 C-10.3209855 70.49483224 -10.3219555 68.45841456 -10.32321167 66.42199707 C-10.32468882 62.14802284 -10.32253355 57.87406947 -10.31787109 53.60009766 C-10.3121738 48.10841461 -10.31545271 42.61678043 -10.32144356 37.12509918 C-10.32504872 32.91822946 -10.32391079 28.71137141 -10.32131577 24.50450134 C-10.32064637 22.47899876 -10.32147535 20.45349514 -10.32379532 18.42799377 C-10.3263211 15.6023577 -10.3224823 12.77680193 -10.31689453 9.95117188 C-10.31891876 9.10542099 -10.32094299 8.2596701 -10.32302856 7.38829041 C-10.29192244 -1.05741056 -7.54722878 0.20111046 0 0 Z " fill="#FFFFFF" transform="translate(1508.1875,814.5)"/>
<path d="M0 0 C6.93737309 -0.15298183 13.87430631 -0.257562 20.81298828 -0.32958984 C23.16992447 -0.35963715 25.52675002 -0.40048758 27.88330078 -0.45263672 C31.28445837 -0.52598092 34.68412935 -0.55957853 38.0859375 -0.5859375 C39.12801361 -0.61690521 40.17008972 -0.64787292 41.2437439 -0.67977905 C48.84185896 -0.68322144 54.04479824 1.23506356 60 6 C66.76066633 13.34198502 68.45305707 19.60696324 68.328125 29.5390625 C67.76719954 35.45549061 65.26165707 39.1075144 62 44 C62.99 44.33 63.98 44.66 65 45 C71.41774052 52.59479337 73.60909918 59.59335393 72.8046875 69.375 C71.36743314 78.18200546 66.18294089 84.64747447 59.125 89.80859375 C52.72548595 93.39655659 46.65509653 93.2789112 39.51171875 93.23046875 C37.86330742 93.22978142 37.86330742 93.22978142 36.18159485 93.2290802 C33.8677156 93.2260673 31.55383822 93.2182099 29.23999023 93.20581055 C25.68270768 93.1874753 22.1256844 93.18530153 18.56835938 93.18554688 C16.32031023 93.18063439 14.07226286 93.17480725 11.82421875 93.16796875 C10.7545134 93.16685593 9.68480804 93.1657431 8.58268738 93.16459656 C7.60109146 93.15821671 6.61949554 93.15183685 5.6081543 93.14526367 C4.74022751 93.14145187 3.87230072 93.13764008 2.97807312 93.13371277 C1 93 1 93 0 92 C-0.09522418 89.13908182 -0.12553326 86.30236379 -0.11352539 83.44116211 C-0.11367142 82.54368759 -0.11381744 81.64621307 -0.1139679 80.72154236 C-0.11326842 77.74011866 -0.10547441 74.7587566 -0.09765625 71.77734375 C-0.09579219 69.71611058 -0.09436823 67.65487696 -0.09336853 65.59364319 C-0.08954237 60.1569599 -0.07971126 54.72030314 -0.06866455 49.28363037 C-0.05845253 43.74052286 -0.05387136 38.19741108 -0.04882812 32.65429688 C-0.03808908 21.76951957 -0.02101149 10.88476198 0 0 Z M19 16 C19 23.26 19 30.52 19 38 C23.7334375 38.0928125 23.7334375 38.0928125 28.5625 38.1875 C29.5429126 38.21481201 30.5233252 38.24212402 31.53344727 38.27026367 C37.14561082 38.32318177 41.06880387 37.74747327 46 35 C48.51258121 31.623719 49.24588665 29.00128529 49 24.875 C48.44879621 21.67189351 48.02091275 21.02146309 45.625 18.5625 C41.95791883 16.37971359 39.30070202 15.87696544 35.11328125 15.90234375 C33.845448 15.90609009 33.845448 15.90609009 32.55200195 15.90991211 C31.48296631 15.91901611 30.41393066 15.92812012 29.3125 15.9375 C25.909375 15.958125 22.50625 15.97875 19 16 Z M19 53 C19 60.59 19 68.18 19 76 C23.20902296 76.10807762 27.41526202 76.1873684 31.625 76.25 C32.81480469 76.28351563 34.00460937 76.31703125 35.23046875 76.3515625 C43.94381924 76.50931123 43.94381924 76.50931123 51 72 C53.10863429 68.35781349 53.50962203 65.16191328 53 61 C50.86500958 57.03501779 49.2312708 54.58787986 45 53 C42.09627521 52.72530453 42.09627521 52.72530453 38.921875 52.8046875 C37.76171875 52.81113281 36.6015625 52.81757812 35.40625 52.82421875 C34.1996875 52.84097656 32.993125 52.85773437 31.75 52.875 C30.52796875 52.88402344 29.3059375 52.89304687 28.046875 52.90234375 C25.03116634 52.92590397 22.01555842 52.96177461 19 53 Z " fill="#FFFFFF" transform="translate(410,815)"/>
<path d="M0 0 C5.92239601 -0.09964557 11.84429294 -0.17183264 17.76733398 -0.21972656 C19.77783724 -0.23971393 21.78828333 -0.26691326 23.79858398 -0.30175781 C45.25538005 -0.66407769 45.25538005 -0.66407769 54 4 C55.60101562 4.81210937 55.60101562 4.81210937 57.234375 5.640625 C68.44273967 12.8111937 75.37646229 21.97803281 79.375 34.8125 C81.74986517 46.73630222 80.43608295 59.17097241 74.421875 69.78515625 C66.22334819 82.02755101 55.57170179 89.89954215 41 93 C39.6374795 93.09173005 38.27134604 93.13778132 36.90576172 93.14526367 C36.11168915 93.15164352 35.31761658 93.15802338 34.4994812 93.16459656 C33.65144928 93.16570938 32.80341736 93.1668222 31.9296875 93.16796875 C30.61352951 93.17296135 30.61352951 93.17296135 29.27078247 93.17805481 C27.41994754 93.18310926 25.56910354 93.18546359 23.71826172 93.18530273 C20.87843013 93.18749735 18.03898206 93.20569072 15.19921875 93.22460938 C13.401043 93.22754191 11.6028654 93.22952764 9.8046875 93.23046875 C8.95260712 93.23765427 8.10052673 93.24483978 7.22262573 93.25224304 C1.22883428 93.22883428 1.22883428 93.22883428 -1 91 C-1.193426 88.17898625 -1.26221324 85.45651682 -1.24291992 82.63476562 C-1.24481827 81.76961838 -1.24671661 80.90447113 -1.24867249 80.0131073 C-1.25238699 77.14406363 -1.24166645 74.2752713 -1.23046875 71.40625 C-1.22927721 69.41849802 -1.22882373 67.43074548 -1.2290802 65.44299316 C-1.22751416 61.27332036 -1.21921537 57.10373327 -1.20581055 52.93408203 C-1.18882055 47.58040304 -1.18499615 42.22681833 -1.18575573 36.87311554 C-1.18548422 32.7674265 -1.18000612 28.6617582 -1.17275429 24.55607605 C-1.16956465 22.58164121 -1.16759953 20.607204 -1.16686058 18.63276672 C-1.16470014 15.87688159 -1.15596229 13.12109784 -1.14526367 10.36523438 C-1.14571686 9.54335129 -1.14617004 8.7214682 -1.14663696 7.87467957 C-1.11447678 2.22895356 -1.11447678 2.22895356 0 0 Z M19 18 C19 36.81 19 55.62 19 75 C37.4625579 75.3161783 37.4625579 75.3161783 52.71484375 66.36328125 C58.92682439 59.60452481 61.21262496 52.10535118 61 43 C59.41677057 33.89315963 55.46558682 27.52453425 48 22 C38.34010766 16.48006152 30.91263647 18 19 18 Z " fill="#FFFFFF" transform="translate(655,815)"/>
<path d="M0 0 C0.74241943 0.00418945 1.48483887 0.00837891 2.24975586 0.01269531 C8.11055248 0.13286433 13.19807748 1.01380354 18.625 3.3125 C19.29402344 3.56773437 19.96304688 3.82296875 20.65234375 4.0859375 C31.39365242 8.72277966 40.19145801 18.62890298 44.90625 29.1796875 C49.91682711 42.38613716 50.04625679 55.12019462 44.37109375 68.203125 C38.19960235 80.24341885 29.28030046 89.18035518 16.4765625 93.97265625 C4.28187116 97.82988876 -11.06646764 97.04314432 -22.4296875 91.2109375 C-34.405811 83.49157938 -43.41450148 72.91922267 -46.96484375 59 C-49.325585 43.53152402 -46.62279151 30.37308944 -37.47265625 17.671875 C-27.97292868 6.13775511 -14.88968098 -0.11580674 0 0 Z M-23.375 30.3125 C-28.36853365 37.58540389 -29.46611674 46.11615813 -27.94921875 54.73046875 C-26.12386189 61.95350665 -22.57394969 68.15882077 -16.5390625 72.69140625 C-14.53093942 73.9200954 -14.53093942 73.9200954 -11.375 75.3125 C-10.60929687 75.66699219 -9.84359375 76.02148438 -9.0546875 76.38671875 C-2.62881643 78.60673543 5.14423237 78.30014149 11.4375 75.75 C19.07159878 71.7505181 24.64564807 66.47626095 27.625 58.3125 C30.4240449 49.25787152 28.95750046 39.66385381 24.62890625 31.4140625 C20.72940408 25.23422861 14.52512986 20.88816713 7.5 18.9375 C-5.60160493 16.82433791 -14.59364926 20.42344688 -23.375 30.3125 Z " fill="#FFFFFF" transform="translate(138.375,813.6875)"/>
<path d="M0 0 C0.74459473 0.00563965 1.48918945 0.0112793 2.25634766 0.01708984 C14.13216491 0.27812522 25.16528024 4.79470416 33.875 13 C43.27812767 23.11753367 48.60665012 34.45834246 48.625 48.3125 C47.70791807 61.83528996 43.22153761 73.59790305 33.625 83.3125 C30.47446655 86.03269077 27.22215825 88.22519462 23.625 90.3125 C22.80128906 90.82039062 21.97757813 91.32828125 21.12890625 91.8515625 C10.50232067 97.37306851 -3.77428117 97.12256019 -15.24609375 94.390625 C-28.95947087 89.01008977 -39.72270728 77.95778895 -45.61328125 64.5859375 C-49.60921522 52.65961148 -48.3919869 38.38616452 -43.37890625 27.0625 C-37.36653696 15.07936951 -27.20781162 5.97532377 -14.45507812 1.66333008 C-9.62892432 0.32950715 -4.99238147 -0.03995732 0 0 Z M-21.80859375 27.875 C-27.90824575 35.69413846 -29.50690255 44.57050726 -28.375 54.3125 C-26.5161554 61.68486672 -22.89501863 68.12248685 -16.609375 72.55859375 C-8.8381104 77.17067035 -2.32709089 78.16305495 6.625 77.3125 C13.7943976 75.41788442 20.24422441 71.21055745 24.1328125 64.84375 C28.64368372 56.07977163 30.27133099 47.49572496 27.6875 37.75 C24.96346239 30.6058259 19.12641675 24.28584634 12.375 20.75 C0.5172892 15.76835819 -13.05171979 18.3307232 -21.80859375 27.875 Z " fill="#FFFFFF" transform="translate(1423.375,813.6875)"/>
<path d="M0 0 C1.4229966 -0.02409439 1.4229966 -0.02409439 2.8747406 -0.04867554 C7.25258766 -0.09317775 11.63027979 -0.13425786 16.00830078 -0.15722656 C18.30983645 -0.17371344 20.61132249 -0.20090596 22.91259766 -0.23925781 C26.23765538 -0.29439178 29.56150778 -0.31596455 32.88696289 -0.33056641 C33.90402817 -0.35323578 34.92109344 -0.37590515 35.96897888 -0.39926147 C44.96050428 -0.37303293 51.76660882 2.446803 58.42211914 8.50537109 C64.92524942 15.54531637 66.89752612 23.17544062 66.75805664 32.57568359 C66.09576704 40.79298051 62.32232774 48.07944505 56.05952454 53.4743042 C54.5553894 54.7138265 53.05125427 55.9533488 51.54711914 57.19287109 C52.03704346 58.14129883 52.52696777 59.08972656 53.03173828 60.06689453 C54.84597956 63.58678858 56.64433092 67.11459815 58.43798828 70.64501953 C59.21654999 72.1719674 59.99940587 73.69673366 60.78662109 75.21923828 C61.91737418 77.40797674 63.03245685 79.60409391 64.14477539 81.80224609 C64.49991714 82.48156189 64.8550589 83.16087769 65.22096252 83.86077881 C67.15323903 87.7225988 67.63642645 88.83564184 66.54711914 93.19287109 C60.27711914 93.19287109 54.00711914 93.19287109 47.54711914 93.19287109 C45.62959056 89.52665292 43.71307072 85.8599133 41.79711914 82.19287109 C41.25829102 81.16291016 40.71946289 80.13294922 40.16430664 79.07177734 C39.63579102 78.05986328 39.10727539 77.04794922 38.56274414 76.00537109 C37.84006348 74.62285156 37.84006348 74.62285156 37.1027832 73.21240234 C35.21879058 69.55558803 33.38677776 65.87218833 31.54711914 62.19287109 C25.60711914 61.86287109 19.66711914 61.53287109 13.54711914 61.19287109 C13.87711914 61.85287109 14.20711914 62.51287109 14.54711914 63.19287109 C14.79129239 67.47965058 14.73232345 71.77492262 14.73461914 76.06787109 C14.74686523 77.26541016 14.75911133 78.46294922 14.77172852 79.69677734 C14.77462891 81.42347656 14.77462891 81.42347656 14.77758789 83.18505859 C14.78169678 84.24063965 14.78580566 85.2962207 14.79003906 86.38378906 C14.54842972 89.17771575 13.98805152 90.81784904 12.54711914 93.19287109 C9.73455633 93.21971422 6.92224673 93.23963297 4.10961914 93.25537109 C3.30717773 93.26375 2.50473633 93.27212891 1.67797852 93.28076172 C-0.36583307 93.2893854 -2.40971988 93.24515259 -4.45288086 93.19287109 C-6.29523012 91.35052183 -5.57937914 88.75641528 -5.58840942 86.30458069 C-5.58537308 85.03595436 -5.58537308 85.03595436 -5.58227539 83.74169922 C-5.58402771 82.85558456 -5.58578003 81.96946991 -5.58758545 81.0565033 C-5.59200525 78.11235627 -5.58906552 75.16826878 -5.58569336 72.22412109 C-5.58636636 70.18770333 -5.58733636 68.15128565 -5.58859253 66.11486816 C-5.59006968 61.84089393 -5.5879144 57.56694056 -5.58325195 53.29296875 C-5.57755466 47.80128571 -5.58083357 42.30965153 -5.58682442 36.81797028 C-5.59042957 32.61110055 -5.58929165 28.4042425 -5.58669662 24.19737244 C-5.58602723 22.17186986 -5.58685621 20.14636623 -5.58917618 18.12086487 C-5.59170196 15.2952288 -5.58786316 12.46967302 -5.58227539 9.64404297 C-5.58429962 8.79829208 -5.58632385 7.9525412 -5.58840942 7.0811615 C-5.56264338 0.08535752 -5.56264338 0.08535752 0 0 Z M13.54711914 16.19287109 C13.54711914 25.76287109 13.54711914 35.33287109 13.54711914 45.19287109 C18.52805664 45.28568359 18.52805664 45.28568359 23.60961914 45.38037109 C24.64223877 45.40768311 25.6748584 45.43499512 26.73876953 45.46313477 C32.47830099 45.5146228 36.50281965 44.99747503 41.54711914 42.19287109 C45.79767322 37.60674695 46.90107848 34.62682917 46.83227539 28.51318359 C46.28425686 24.05396431 43.77095687 21.30197404 40.54711914 18.38037109 C36.9776153 16.26097819 33.65790765 16.07024433 29.56274414 16.09521484 C28.72001953 16.0977124 27.87729492 16.10020996 27.0090332 16.1027832 C25.94910156 16.11188721 24.88916992 16.12099121 23.79711914 16.13037109 C18.72336914 16.16130859 18.72336914 16.16130859 13.54711914 16.19287109 Z " fill="#FFFFFF" transform="translate(562.452880859375,814.80712890625)"/>
<path d="M0 0 C8.45767334 -0.02312659 16.91533356 -0.0409167 25.37303066 -0.05181217 C29.29988658 -0.05704031 33.22672094 -0.06413669 37.15356445 -0.07543945 C40.94014257 -0.0862708 44.7266999 -0.09227736 48.51329231 -0.09487724 C49.96104319 -0.09673105 51.40879288 -0.10035081 52.85653496 -0.10573006 C54.87757135 -0.11294367 56.89862848 -0.11340808 58.91967773 -0.11352539 C60.64842384 -0.11685631 60.64842384 -0.11685631 62.41209412 -0.12025452 C65 0 65 0 66 1 C66.09981214 3.6773138 66.13879875 6.32304175 66.125 9 C66.12886719 9.75023437 66.13273437 10.50046875 66.13671875 11.2734375 C66.12661053 16.87338947 66.12661053 16.87338947 65 18 C63.58882298 18.12209924 62.17179541 18.17770872 60.75561523 18.20532227 C59.40432777 18.2352401 59.40432777 18.2352401 58.02574158 18.26576233 C57.04658279 18.28247482 56.06742401 18.29918732 55.05859375 18.31640625 C53.56248314 18.3475779 53.56248314 18.3475779 52.03614807 18.37937927 C48.83667157 18.44498637 45.63711018 18.50381134 42.4375 18.5625 C40.27407961 18.60567462 38.11066794 18.64928855 35.94726562 18.69335938 C30.63159836 18.80067909 25.31584536 18.90191469 20 19 C20 23.95 20 28.9 20 34 C22.43117188 34.04898438 24.86234375 34.09796875 27.3671875 34.1484375 C29.71702326 34.20241927 32.0667555 34.25973767 34.41650391 34.31738281 C36.0518424 34.35570852 37.68726624 34.39055507 39.32275391 34.421875 C41.6712091 34.46744842 44.01907495 34.52545367 46.3671875 34.5859375 C47.46726639 34.60326431 47.46726639 34.60326431 48.58956909 34.62094116 C53.77225659 34.77225659 53.77225659 34.77225659 56 37 C56.22503811 39.54848356 56.32440357 41.95263669 56.3125 44.5 C56.32861328 45.18964844 56.34472656 45.87929688 56.36132812 46.58984375 C56.36328125 48.59375 56.36328125 48.59375 56 52 C52.35695136 54.42869909 49.69277661 54.25675675 45.48828125 54.1953125 C44.76005661 54.1924826 44.03183197 54.18965271 43.28153992 54.18673706 C40.95835863 54.17555257 38.63556453 54.15045166 36.3125 54.125 C34.7363337 54.11496794 33.16016135 54.10584248 31.58398438 54.09765625 C27.72238749 54.07732135 23.86162655 54.03817094 20 54 C20 60.6 20 67.2 20 74 C22.12779907 74.03758423 22.12779907 74.03758423 24.29858398 74.07592773 C29.54103271 74.16980881 34.78334291 74.27007589 40.02563477 74.37231445 C42.29838836 74.41573665 44.57117613 74.45740616 46.84399414 74.49731445 C50.10313232 74.55484119 53.36209731 74.61858552 56.62109375 74.68359375 C57.64400009 74.70030624 58.66690643 74.71701874 59.72080994 74.73423767 C61.13215965 74.7641555 61.13215965 74.7641555 62.57202148 74.79467773 C63.40475082 74.81022202 64.23748016 74.8257663 65.09544373 74.84178162 C67 75 67 75 68 76 C68.09997642 78.49058914 68.13879627 80.94727395 68.125 83.4375 C68.12886719 84.13166016 68.13273437 84.82582031 68.13671875 85.54101562 C68.12663994 90.74672012 68.12663994 90.74672012 67 93 C58.4119428 93.02312635 49.82389851 93.04091658 41.23581791 93.05181217 C37.248428 93.05704036 33.26105933 93.06413684 29.27368164 93.07543945 C25.42874886 93.08627061 21.58383655 93.09227732 17.73888969 93.09487724 C16.26881017 93.09673108 14.79873182 93.10035091 13.32866096 93.10573006 C11.27645533 93.11294355 9.22433533 93.11399081 7.17211914 93.11352539 C6.00185684 93.115746 4.83159454 93.11796661 3.62586975 93.12025452 C1 93 1 93 0 92 C-0.09522418 89.13908182 -0.12553326 86.30236379 -0.11352539 83.44116211 C-0.11367142 82.54368759 -0.11381744 81.64621307 -0.1139679 80.72154236 C-0.11326842 77.74011866 -0.10547441 74.7587566 -0.09765625 71.77734375 C-0.09579219 69.71611058 -0.09436823 67.65487696 -0.09336853 65.59364319 C-0.08954237 60.1569599 -0.07971126 54.72030314 -0.06866455 49.28363037 C-0.05845253 43.74052286 -0.05387136 38.19741108 -0.04882812 32.65429688 C-0.03808908 21.76951957 -0.02101149 10.88476198 0 0 Z " fill="#FFFFFF" transform="translate(316,815)"/>
<path d="M0 0 C2.97922593 -0.02683987 5.95821295 -0.04676037 8.9375 -0.0625 C9.78763672 -0.07087891 10.63777344 -0.07925781 11.51367188 -0.08789062 C12.32255859 -0.09111328 13.13144531 -0.09433594 13.96484375 -0.09765625 C14.7137085 -0.10289307 15.46257324 -0.10812988 16.23413086 -0.11352539 C18 0 18 0 19 1 C19.09720684 2.81877047 19.12516016 4.64128037 19.12597656 6.46264648 C19.13168671 8.21598549 19.13168671 8.21598549 19.13751221 10.00474548 C19.13853943 11.28064041 19.13956665 12.55653534 19.140625 13.87109375 C19.15426206 15.86808463 19.1679296 17.86507581 19.18333054 19.86205387 C19.22128511 24.79665607 19.25263166 29.73100676 19.25048828 34.66577148 C19.24985 37.42678381 19.26244798 40.18713299 19.28948975 42.94801331 C19.3146818 45.54680501 19.32131054 48.14586297 19.30670166 50.74473572 C19.41320458 58.51255552 20.48344017 64.54100396 25 71 C30.14458701 75.50151363 35.1045802 75.68509015 41.8359375 75.4375 C46.63211592 74.77432471 49.57112069 73.37921531 53 70 C57.75170542 62.90846594 57.58669655 55.28806492 57.57421875 47.03125 C57.59585417 45.02014837 57.61749335 43.00904678 57.63936329 40.99794769 C57.66478149 38.20750683 57.67219939 35.41712403 57.67993164 32.62658691 C57.69743448 27.70857243 57.74412782 22.79074252 57.78999329 17.8729248 C57.81254862 15.25879904 57.82832642 12.64460472 57.83683777 10.03039551 C57.84387222 8.85827515 57.85090668 7.68615479 57.8581543 6.47851562 C57.86163376 5.44198853 57.86511322 4.40546143 57.86869812 3.33752441 C58 1 58 1 59 0 C61.82256491 -0.10007008 64.6152319 -0.13875598 67.4375 -0.125 C68.22705078 -0.12886719 69.01660156 -0.13273438 69.83007812 -0.13671875 C75.74673867 -0.12663067 75.74673867 -0.12663067 78 1 C78.06997515 8.61570795 78.12304972 16.23138192 78.15543652 23.84733963 C78.17099244 27.38499683 78.19204237 30.92243166 78.22631836 34.45996094 C78.26560662 38.54103546 78.27979226 42.62188195 78.29296875 46.703125 C78.30845261 47.95361633 78.32393646 49.20410767 78.33988953 50.49249268 C78.3423847 63.71025936 76.10471369 74.36447436 66.9609375 84.19140625 C58.72836837 92.08943635 50.27703475 94.68953 39 94.5 C37.61941406 94.52320313 37.61941406 94.52320313 36.2109375 94.546875 C25.95122006 94.48907378 17.61018012 90.81000458 10 84 C-0.54488642 72.97580056 -1.3193557 60.17076836 -1.23046875 45.52734375 C-1.23001053 44.28247696 -1.22955231 43.03761017 -1.2290802 41.75502014 C-1.22607806 39.14567094 -1.21825359 36.53632321 -1.20581055 33.92700195 C-1.18741053 29.91800621 -1.18530214 25.90942411 -1.18554688 21.90039062 C-1.18063628 19.35937299 -1.17480998 16.81835692 -1.16796875 14.27734375 C-1.16685593 13.0753685 -1.1657431 11.87339325 -1.16459656 10.63499451 C-1.15821671 9.52946732 -1.15183685 8.42394012 -1.14526367 7.28491211 C-1.14145187 6.30993271 -1.13764008 5.33495331 -1.13371277 4.33042908 C-1 2 -1 2 0 0 Z " fill="#FFFFFF" transform="translate(942,815)"/>
<path d="M0 0 C0.68578125 -0.03738281 1.3715625 -0.07476563 2.078125 -0.11328125 C4.0859375 -0.1484375 4.0859375 -0.1484375 7.625 0.375 C9.95065694 3.61212143 11.44704773 7.10288124 12.9375 10.78515625 C13.36740234 11.84283203 13.79730469 12.90050781 14.24023438 13.99023438 C14.69720703 15.12783203 15.15417969 16.26542969 15.625 17.4375 C16.10775391 18.63052734 16.59050781 19.82355469 17.08789062 21.05273438 C20.95295864 30.62043148 24.72900423 40.22303693 28.47387695 49.83837891 C30.84346216 55.90652754 33.25982055 61.95031865 35.76171875 67.96484375 C36.01861481 68.58477203 36.27551086 69.20470032 36.54019165 69.84341431 C37.77402211 72.82016076 39.0160772 75.79286598 40.2734375 78.75976562 C40.71300781 79.81744141 41.15257812 80.87511719 41.60546875 81.96484375 C41.99629639 82.89159912 42.38712402 83.81835449 42.78979492 84.77319336 C43.65994888 87.48387174 43.86489131 89.54751007 43.625 92.375 C41.50639109 94.49360891 37.15950493 93.69770498 34.25 93.75 C33.07824219 93.80607422 33.07824219 93.80607422 31.8828125 93.86328125 C29.69287943 93.89703022 27.76265711 93.85562093 25.625 93.375 C23.72265625 91.17578125 23.72265625 91.17578125 22.625 88.375 C22.23957031 87.51519531 21.85414062 86.65539062 21.45703125 85.76953125 C21.12058594 84.91746094 20.78414062 84.06539062 20.4375 83.1875 C20.09332031 82.32769531 19.74914063 81.46789062 19.39453125 80.58203125 C18.625 78.375 18.625 78.375 18.625 76.375 C6.415 76.375 -5.795 76.375 -18.375 76.375 C-19.365 79.345 -20.355 82.315 -21.375 85.375 C-22.59621073 88.12374522 -23.97042017 90.7111417 -25.375 93.375 C-28.18756281 93.40184312 -30.99987241 93.42176188 -33.8125 93.4375 C-34.61494141 93.44587891 -35.41738281 93.45425781 -36.24414062 93.46289062 C-38.28795221 93.4715143 -40.33183902 93.4272815 -42.375 93.375 C-42.705 93.045 -43.035 92.715 -43.375 92.375 C-42.93588058 86.79203834 -41.32312467 82.14507597 -39.19921875 76.99609375 C-38.71717232 75.80046059 -38.71717232 75.80046059 -38.22538757 74.58067322 C-37.1783406 71.98827894 -36.12051544 69.40043473 -35.0625 66.8125 C-34.33402671 65.0147981 -33.60633161 63.21678068 -32.87939453 61.41845703 C-31.41327783 57.7934164 -29.94352671 54.16988231 -28.47119141 50.54736328 C-26.58119854 45.89156923 -24.71219878 41.22774027 -22.85546875 36.55859375 C-22.58733871 35.88479172 -22.31920868 35.21098969 -22.04295349 34.51676941 C-20.81349967 31.42628181 -19.58536382 28.33527622 -18.3581543 25.24389648 C-8.35490827 0.17082526 -8.35490827 0.17082526 0 0 Z M-0.375 27.375 C-1.64618845 30.70819801 -2.91688521 34.04158327 -4.1875 37.375 C-4.54392578 38.30957031 -4.90035156 39.24414062 -5.26757812 40.20703125 C-5.97250896 42.05666629 -6.67581937 43.9069198 -7.37744141 45.7578125 C-8.01194678 47.4224962 -8.65402052 49.08432955 -9.30615234 50.7421875 C-10.48348755 53.76546804 -11.375 56.09945002 -11.375 59.375 C-3.785 59.375 3.805 59.375 11.625 59.375 C10.80543523 55.27717616 9.79365914 51.86344404 8.33984375 47.98046875 C7.66791992 46.17739258 7.66791992 46.17739258 6.98242188 44.33789062 C6.50919654 43.07939626 6.03588821 41.8209331 5.5625 40.5625 C5.08494011 39.28463459 4.607723 38.00664102 4.13085938 36.72851562 C2.96560488 33.60940005 1.79686993 30.49163485 0.625 27.375 C0.295 27.375 -0.035 27.375 -0.375 27.375 Z " fill="#FFFFFF" transform="translate(1177.375,814.625)"/>
<path d="M0 0 C2.93847653 -0.107834 5.87301151 -0.18721916 8.8125 -0.25 C9.64587891 -0.28351562 10.47925781 -0.31703125 11.33789062 -0.3515625 C12.14033203 -0.36445312 12.94277344 -0.37734375 13.76953125 -0.390625 C14.87711792 -0.4220459 14.87711792 -0.4220459 16.00708008 -0.45410156 C18 0 18 0 19.59960938 1.5949707 C21.34563586 4.59359465 22.47483081 7.59964831 23.63671875 10.87109375 C23.87740585 11.54179901 24.11809296 12.21250427 24.36607361 12.90353394 C24.88000547 14.33767738 25.3908917 15.77291528 25.89898682 17.20913696 C27.22235516 20.9490175 28.56819559 24.68082267 29.91015625 28.4140625 C30.1749176 29.15274063 30.43967896 29.89141876 30.71246338 30.65248108 C32.95305973 36.89681364 35.2608358 43.11382491 37.625 49.3125 C37.94299561 50.15159912 38.26099121 50.99069824 38.58862305 51.85522461 C39.91914853 55.3324434 41.29689201 58.68523531 43 62 C44.84324759 57.0041152 46.68573309 52.00795012 48.52770996 47.01159668 C49.49613998 44.38546738 50.46534187 41.75962378 51.43457031 39.13378906 C54.19593611 31.64786212 56.9541342 24.16161394 59.640625 16.6484375 C60.18879883 15.11823975 60.18879883 15.11823975 60.74804688 13.55712891 C61.40005993 11.73041203 62.04744498 9.90203446 62.68945312 8.07177734 C64.78021625 2.21978375 64.78021625 2.21978375 67 0 C68.97119141 -0.22705078 68.97119141 -0.22705078 71.3515625 -0.1953125 C72.20234375 -0.18886719 73.053125 -0.18242188 73.9296875 -0.17578125 C75.26386719 -0.15064453 75.26386719 -0.15064453 76.625 -0.125 C77.97078125 -0.11146484 77.97078125 -0.11146484 79.34375 -0.09765625 C81.56276586 -0.0740497 83.78125077 -0.0411231 86 0 C85.44377815 4.98855277 84.34618297 9.19392154 82.48046875 13.84765625 C82.09864441 14.80934723 82.09864441 14.80934723 81.70910645 15.79046631 C80.87581447 17.88412024 80.03176439 19.97324948 79.1875 22.0625 C78.59997933 23.53252144 78.01315687 25.00282212 77.42700195 26.47338867 C76.22000406 29.49769337 75.0085202 32.52013879 73.79296875 35.54101562 C72.10425059 39.73781655 70.42549174 43.93852909 68.75 48.140625 C67.23391402 51.94211417 65.71652491 55.74304331 64.19042969 59.54052734 C61.96130653 65.08791934 59.74372158 70.63839987 57.578125 76.2109375 C57.21243408 77.14574951 56.84674316 78.08056152 56.4699707 79.04370117 C55.80577617 80.74447265 55.14756247 82.44759837 54.49682617 84.15356445 C51.96067611 90.62085317 51.96067611 90.62085317 49 93 C44.32840395 93.40788091 39.68382797 93.1289127 35 93 C30.34760131 82.55047565 25.95870451 72.03465085 21.8125 61.375 C20.68649339 58.49416545 19.55815848 55.61424496 18.4296875 52.734375 C18.00504463 51.64952316 18.00504463 51.64952316 17.57182312 50.54275513 C15.61356147 45.54587406 13.63175831 40.55886257 11.6328125 35.578125 C11.36206406 34.90339142 11.09131561 34.22865784 10.81236267 33.53347778 C9.53031188 30.34073901 8.24551425 27.14913898 6.95825195 23.95849609 C5.62587424 20.64393636 4.30758778 17.32441036 3 14 C2.58379395 12.9490918 2.16758789 11.89818359 1.73876953 10.81542969 C1.36220215 9.83219727 0.98563477 8.84896484 0.59765625 7.8359375 C0.26386963 6.97274902 -0.06991699 6.10956055 -0.41381836 5.22021484 C-1 3 -1 3 0 0 Z " fill="#FFFFFF" transform="translate(207,815)"/>
<path d="M0 0 C0.68128967 -0.00175232 1.36257935 -0.00350464 2.06451416 -0.00531006 C4.32688917 -0.00972789 6.58918663 -0.00679084 8.8515625 -0.00341797 C10.4171551 -0.00409103 11.9827476 -0.00506107 13.54833984 -0.00631714 C16.83366895 -0.00779402 20.11897092 -0.00563988 23.40429688 -0.00097656 C27.62476766 0.00472073 31.84517486 0.00144167 36.06564331 -0.00454903 C39.29972822 -0.00815491 42.53379795 -0.00701593 45.7678833 -0.00442123 C47.32448331 -0.00375204 48.88108468 -0.00458012 50.43768311 -0.00690079 C52.60953446 -0.00942777 54.78128146 -0.00558612 56.953125 0 C58.19143066 0.00079559 59.42973633 0.00159119 60.70556641 0.00241089 C63.4765625 0.12939453 63.4765625 0.12939453 64.4765625 1.12939453 C64.60309448 3.62178022 64.66176075 6.07409894 64.6640625 8.56689453 C64.67630859 9.26105469 64.68855469 9.95521484 64.70117188 10.67041016 C64.70646092 12.49160354 64.59825457 14.31226373 64.4765625 16.12939453 C62.4765625 18.12939453 62.4765625 18.12939453 60.04638672 18.35644531 C59.0513916 18.34597168 58.05639648 18.33549805 57.03125 18.32470703 C55.95488281 18.31826172 54.87851563 18.31181641 53.76953125 18.30517578 C52.64160156 18.28841797 51.51367188 18.27166016 50.3515625 18.25439453 C49.21589844 18.24537109 48.08023437 18.23634766 46.91015625 18.22705078 C44.09874951 18.20342551 41.28775952 18.17048466 38.4765625 18.12939453 C38.48100372 19.03950287 38.48544495 19.94961121 38.49002075 20.88729858 C38.53004426 29.45146033 38.56051976 38.01559079 38.58018684 46.57982445 C38.59063768 50.98310704 38.60482046 55.38631256 38.62744141 59.78955078 C38.64912362 64.03649278 38.66112133 68.28336049 38.66631699 72.53035355 C38.67002108 74.15312495 38.67725396 75.77589215 38.68802261 77.39863205 C38.7024763 79.6662357 38.70454304 81.93352981 38.70361328 84.20117188 C38.7080545 85.49356781 38.71249573 86.78596375 38.71707153 88.11752319 C38.4765625 91.12939453 38.4765625 91.12939453 36.4765625 93.12939453 C33.76733449 93.32791555 31.18353071 93.4077893 28.4765625 93.37939453 C27.37054687 93.39099609 27.37054687 93.39099609 26.2421875 93.40283203 C20.7298821 93.38271413 20.7298821 93.38271413 18.4765625 91.12939453 C18.23605347 88.11752319 18.23605347 88.11752319 18.24951172 84.20117188 C18.24921967 83.48886917 18.24892761 82.77656647 18.24862671 82.04267883 C18.25002234 79.68344019 18.26559423 77.32451564 18.28125 74.96533203 C18.28497931 73.33151421 18.28782667 71.69769415 18.28982544 70.06387329 C18.2974684 65.75986577 18.31712251 61.45599285 18.3392334 57.15203857 C18.3596776 52.76169658 18.3688241 48.37133288 18.37890625 43.98095703 C18.40036784 35.36370771 18.43451169 26.74656785 18.4765625 18.12939453 C17.7244751 18.13463135 16.9723877 18.13986816 16.19750977 18.14526367 C12.81136908 18.1659668 9.42524166 18.1790333 6.0390625 18.19189453 C4.26305664 18.20446289 4.26305664 18.20446289 2.45117188 18.21728516 C1.32646484 18.22050781 0.20175781 18.22373047 -0.95703125 18.22705078 C-2.52022095 18.23490601 -2.52022095 18.23490601 -4.11499023 18.24291992 C-6.5234375 18.12939453 -6.5234375 18.12939453 -7.5234375 17.12939453 C-7.62324964 14.45208073 -7.66223625 11.80635279 -7.6484375 9.12939453 C-7.65230469 8.37916016 -7.65617187 7.62892578 -7.66015625 6.85595703 C-7.64724794 -0.29524853 -6.96235268 0.00447321 0 0 Z " fill="#FFFFFF" transform="translate(1050.5234375,814.87060546875)"/>
<path d="M0 0 C1.25908676 0.00222061 2.51817352 0.00444122 3.81541443 0.00672913 C4.50806396 0.0065831 5.2007135 0.00643707 5.91435242 0.00628662 C8.21400537 0.00698577 10.51357828 0.01477823 12.81321716 0.02259827 C14.40362504 0.02446244 15.99403349 0.02588635 17.58444214 0.02688599 C21.77827021 0.03071123 25.97206386 0.04054156 30.1658783 0.05158997 C34.44220006 0.06180395 38.71852736 0.06638358 42.99485779 0.07142639 C51.39135799 0.08216383 59.78783017 0.09924032 68.18431091 0.12025452 C69.66951816 3.09066901 69.35489311 5.81789899 69.37181091 9.12025452 C69.3859906 10.37837952 69.40017029 11.63650452 69.41477966 12.93275452 C69.18431091 16.12025452 69.18431091 16.12025452 67.18431091 18.12025452 C64.66233826 18.3473053 64.66233826 18.3473053 61.52024841 18.31556702 C60.39876404 18.3091217 59.27727966 18.30267639 58.12181091 18.29603577 C56.94618591 18.27927795 55.77056091 18.26252014 54.55931091 18.24525452 C53.37595154 18.23623108 52.19259216 18.22720764 50.97337341 18.21791077 C48.04348569 18.19428264 45.11399751 18.16133966 42.18431091 18.12025452 C42.18653152 19.04511154 42.18875214 19.96996857 42.19104004 20.92285156 C42.21104004 29.61978039 42.22628355 38.31670154 42.23612309 47.01364803 C42.24135165 51.48531001 42.2484488 55.95695305 42.25975037 60.42860413 C42.2705802 64.74037424 42.27658795 69.0521261 42.27918816 73.36390877 C42.28104223 75.01261749 42.28466251 76.66132517 42.29004097 78.31002617 C42.29725269 80.61129323 42.2983018 82.91248391 42.2978363 85.21376038 C42.30005692 86.52614182 42.30227753 87.83852325 42.30456543 89.19067383 C42.18431091 92.12025452 42.18431091 92.12025452 41.18431091 93.12025452 C38.34096043 93.22012426 35.52733928 93.25903333 32.68431091 93.24525452 C31.48741638 93.2510553 31.48741638 93.2510553 30.26634216 93.25697327 C24.31091859 93.24686219 24.31091859 93.24686219 23.18431091 92.12025452 C23.08987756 89.81971616 23.06688963 87.51623278 23.07078552 85.21376038 C23.0706395 84.49185013 23.07049347 83.76993988 23.07034302 83.02615356 C23.07104223 80.62910504 23.07883496 78.23213329 23.08665466 75.83509827 C23.08851882 74.17742963 23.08994273 72.51976045 23.09094238 70.86209106 C23.09476779 66.49071238 23.10459826 62.11936671 23.11564636 57.7480011 C23.12586 53.29070991 23.1304399 48.8334134 23.13548279 44.37611389 C23.14622051 35.62414558 23.1632972 26.87220415 23.18431091 18.12025452 C22.43746033 18.13072815 21.69060974 18.14120178 20.92112732 18.1519928 C17.55055583 18.19346222 14.18003792 18.21955181 10.80931091 18.24525452 C9.63368591 18.26201233 8.45806091 18.27877014 7.24681091 18.29603577 C5.56458435 18.30570374 5.56458435 18.30570374 3.84837341 18.31556702 C2.81148376 18.32604065 1.77459412 18.33651428 0.70628357 18.3473053 C-1.81568909 18.12025452 -1.81568909 18.12025452 -3.81568909 16.12025452 C-3.98732639 13.55733135 -4.04833466 11.11679595 -4.00318909 8.55775452 C-4.00254456 7.85972717 -4.00190002 7.16169983 -4.00123596 6.44252014 C-3.94646802 0.16854865 -3.94646802 0.16854865 0 0 Z " fill="#FFFFFF" transform="translate(1234.815689086914,814.8797454833984)"/>
<path d="M0 0 C0.79792969 0.00386719 1.59585937 0.00773438 2.41796875 0.01171875 C3.21589844 0.00785156 4.01382812 0.00398437 4.8359375 0 C10.79136108 0.01011108 10.79136108 0.01011108 11.91796875 1.13671875 C12.0124021 3.4372571 12.03539003 5.74074048 12.03149414 8.04321289 C12.03164017 8.76512314 12.03178619 9.48703339 12.03193665 10.2308197 C12.03123744 12.62786822 12.0234447 15.02483998 12.015625 17.421875 C12.01376085 19.07954364 12.01233693 20.73721282 12.01133728 22.3948822 C12.00751187 26.76626089 11.9976814 31.13760656 11.9866333 35.50897217 C11.97641967 39.96626336 11.97183976 44.42355986 11.96679688 48.88085938 C11.95605915 57.63282768 11.93898246 66.38476911 11.91796875 75.13671875 C13.11921387 75.12624512 14.32045898 75.11577148 15.55810547 75.10498047 C20.00468987 75.06884588 24.45126123 75.04584218 28.89794922 75.02685547 C30.82440369 75.01678293 32.75084283 75.00312432 34.67724609 74.98583984 C37.44242127 74.96164634 40.20739475 74.95024839 42.97265625 74.94140625 C43.83728485 74.93108368 44.70191345 74.92076111 45.59274292 74.91012573 C47.70250396 74.90972769 49.81177593 75.01406632 51.91796875 75.13671875 C53.91796875 77.13671875 53.91796875 77.13671875 54.18359375 80.32421875 C54.1784375 81.58234375 54.17328125 82.84046875 54.16796875 84.13671875 C54.17570312 86.02390625 54.17570312 86.02390625 54.18359375 87.94921875 C53.91796875 91.13671875 53.91796875 91.13671875 51.91796875 93.13671875 C49.48228455 93.38395691 49.48228455 93.38395691 46.38256836 93.37963867 C45.2247435 93.3827153 44.06691864 93.38579193 42.87400818 93.38896179 C41.6187886 93.38177628 40.36356903 93.37459076 39.0703125 93.3671875 C37.78814346 93.36672928 36.50597443 93.36627106 35.18495178 93.36579895 C32.47049551 93.36423413 29.75617114 93.35594388 27.04174805 93.3425293 C23.55554885 93.32552245 20.06949445 93.32171543 16.58325863 93.32247448 C13.26642371 93.32213785 9.94963669 93.31330412 6.6328125 93.3046875 C4.74694679 93.30301826 4.74694679 93.30301826 2.82298279 93.30131531 C1.66831009 93.29493546 0.51363739 93.2885556 -0.67602539 93.28198242 C-1.69813614 93.27817062 -2.72024689 93.27435883 -3.77333069 93.27043152 C-6.08203125 93.13671875 -6.08203125 93.13671875 -7.08203125 92.13671875 C-7.18256633 89.31168545 -7.21818841 86.5110659 -7.21142578 83.68554688 C-7.2131781 82.79943222 -7.21493042 81.91331757 -7.21673584 81.00035095 C-7.22115565 78.05620393 -7.21821592 75.11211644 -7.21484375 72.16796875 C-7.21551675 70.13155099 -7.21648675 68.09513331 -7.21774292 66.05871582 C-7.21922007 61.78474159 -7.2170648 57.51078822 -7.21240234 53.23681641 C-7.20670505 47.74513336 -7.20998396 42.25349918 -7.21597481 36.76181793 C-7.21957997 32.55494821 -7.21844204 28.34809016 -7.21584702 24.14122009 C-7.21517762 22.11571751 -7.2160066 20.09021389 -7.21832657 18.06471252 C-7.22085235 15.23907645 -7.21701355 12.41352068 -7.21142578 9.58789062 C-7.21345001 8.74213974 -7.21547424 7.89638885 -7.21755981 7.02500916 C-7.19203279 0.09410313 -6.94749044 0.0117954 0 0 Z " fill="#FFFFFF" transform="translate(18.08203125,814.86328125)"/>
<path d="M0 0 C0.79792969 0.00386719 1.59585937 0.00773438 2.41796875 0.01171875 C3.21589844 0.00785156 4.01382812 0.00398437 4.8359375 0 C10.79136108 0.01011108 10.79136108 0.01011108 11.91796875 1.13671875 C12.01850383 3.96175205 12.05412591 6.7623716 12.04736328 9.58789062 C12.0491156 10.47400528 12.05086792 11.36011993 12.05267334 12.27308655 C12.05709315 15.21723357 12.05415342 18.16132106 12.05078125 21.10546875 C12.05145425 23.14188651 12.05242425 25.17830419 12.05368042 27.21472168 C12.05515757 31.48869591 12.0530023 35.76264928 12.04833984 40.03662109 C12.04264255 45.52830414 12.04592146 51.01993832 12.05191231 56.51161957 C12.05551747 60.71848929 12.05437954 64.92534734 12.05178452 69.13221741 C12.05111512 71.15771999 12.0519441 73.18322361 12.05426407 75.20872498 C12.05678985 78.03436105 12.05295105 80.85991682 12.04736328 83.68554688 C12.04938751 84.53129776 12.05141174 85.37704865 12.05349731 86.24842834 C12.03223116 92.02245634 12.03223116 92.02245634 10.91796875 93.13671875 C8.07461827 93.2365885 5.26099712 93.27549756 2.41796875 93.26171875 C1.62003906 93.26558594 0.82210938 93.26945313 0 93.2734375 C-5.95542358 93.26332642 -5.95542358 93.26332642 -7.08203125 92.13671875 C-7.18256633 89.31168545 -7.21818841 86.5110659 -7.21142578 83.68554688 C-7.2131781 82.79943222 -7.21493042 81.91331757 -7.21673584 81.00035095 C-7.22115565 78.05620393 -7.21821592 75.11211644 -7.21484375 72.16796875 C-7.21551675 70.13155099 -7.21648675 68.09513331 -7.21774292 66.05871582 C-7.21922007 61.78474159 -7.2170648 57.51078822 -7.21240234 53.23681641 C-7.20670505 47.74513336 -7.20998396 42.25349918 -7.21597481 36.76181793 C-7.21957997 32.55494821 -7.21844204 28.34809016 -7.21584702 24.14122009 C-7.21517762 22.11571751 -7.2160066 20.09021389 -7.21832657 18.06471252 C-7.22085235 15.23907645 -7.21701355 12.41352068 -7.21142578 9.58789062 C-7.21345001 8.74213974 -7.21547424 7.89638885 -7.21755981 7.02500916 C-7.19203279 0.09410313 -6.94749044 0.0117954 0 0 Z " fill="#FFFFFF" transform="translate(1336.08203125,814.86328125)"/>
<path d="M0 0 C0.79792969 0.00386719 1.59585938 0.00773438 2.41796875 0.01171875 C3.21589844 0.00785156 4.01382813 0.00398437 4.8359375 0 C10.79136108 0.01011108 10.79136108 0.01011108 11.91796875 1.13671875 C12.01850383 3.96175205 12.05412591 6.7623716 12.04736328 9.58789062 C12.0491156 10.47400528 12.05086792 11.36011993 12.05267334 12.27308655 C12.05709315 15.21723357 12.05415342 18.16132106 12.05078125 21.10546875 C12.05145425 23.14188651 12.05242425 25.17830419 12.05368042 27.21472168 C12.05515757 31.48869591 12.0530023 35.76264928 12.04833984 40.03662109 C12.04264255 45.52830414 12.04592146 51.01993832 12.05191231 56.51161957 C12.05551747 60.71848929 12.05437954 64.92534734 12.05178452 69.13221741 C12.05111512 71.15771999 12.0519441 73.18322361 12.05426407 75.20872498 C12.05678985 78.03436105 12.05295105 80.85991682 12.04736328 83.68554688 C12.04938751 84.53129776 12.05141174 85.37704865 12.05349731 86.24842834 C12.03223116 92.02245634 12.03223116 92.02245634 10.91796875 93.13671875 C8.07461827 93.2365885 5.26099712 93.27549756 2.41796875 93.26171875 C1.62003906 93.26558594 0.82210937 93.26945313 0 93.2734375 C-5.95542358 93.26332642 -5.95542358 93.26332642 -7.08203125 92.13671875 C-7.18256633 89.31168545 -7.21818841 86.5110659 -7.21142578 83.68554688 C-7.2131781 82.79943222 -7.21493042 81.91331757 -7.21673584 81.00035095 C-7.22115565 78.05620393 -7.21821592 75.11211644 -7.21484375 72.16796875 C-7.21551675 70.13155099 -7.21648675 68.09513331 -7.21774292 66.05871582 C-7.21922007 61.78474159 -7.2170648 57.51078822 -7.21240234 53.23681641 C-7.20670505 47.74513336 -7.20998396 42.25349918 -7.21597481 36.76181793 C-7.21957997 32.55494821 -7.21844204 28.34809016 -7.21584702 24.14122009 C-7.21517762 22.11571751 -7.2160066 20.09021389 -7.21832657 18.06471252 C-7.22085235 15.23907645 -7.21701355 12.41352068 -7.21142578 9.58789062 C-7.21345001 8.74213974 -7.21547424 7.89638885 -7.21755981 7.02500916 C-7.19203279 0.09410313 -6.94749044 0.0117954 0 0 Z " fill="#FFFFFF" transform="translate(514.08203125,814.86328125)"/>
<path d="M0 0 C0.99 0.33 1.98 0.66 3 1 C2.01 1.33 1.02 1.66 0 2 C0 1.34 0 0.68 0 0 Z " fill="#FFFFFF" transform="translate(1107,557)"/>
</svg>
