<?xml version="1.0" standalone="no"?>
<!DOCTYPE svg PUBLIC "-//W3C//DTD SVG 20010904//EN"
 "http://www.w3.org/TR/2001/REC-SVG-20010904/DTD/svg10.dtd">
<svg version="1.0" xmlns="http://www.w3.org/2000/svg"
 width="549.000000pt" height="211.000000pt" viewBox="0 0 549.000000 211.000000"
 preserveAspectRatio="xMidYMid meet">

<g transform="translate(0.000000,211.000000) scale(0.100000,-0.100000)"
fill="#000000" stroke="none">
<path d="M1500 1949 c-73 -12 -186 -67 -234 -114 -65 -64 -76 -100 -76 -257 0
-133 -1 -138 -21 -138 -11 0 -30 -5 -41 -11 -19 -10 -20 -16 -13 -127 4 -65
11 -125 16 -134 7 -13 22 -18 50 -18 32 0 41 -4 49 -22 5 -13 16 -129 24 -259
8 -129 18 -243 22 -252 3 -10 16 -20 28 -23 36 -9 279 15 293 29 11 10 11 28
4 83 -11 75 -51 446 -51 470 0 11 16 14 73 14 39 0 78 4 86 9 11 7 11 32 3
139 -5 71 -13 135 -17 142 -5 8 -32 9 -96 4 l-89 -7 0 81 c0 95 11 112 88 132
55 15 84 37 78 59 -3 9 -15 53 -27 99 -31 117 -34 120 -149 101z"/>
<path d="M2510 1838 c-57 -31 -84 -76 -83 -141 1 -53 19 -85 67 -121 37 -28
159 -35 205 -12 96 50 96 197 -1 269 -44 33 -132 35 -188 5z"/>
<path d="M561 1687 c-6 -8 -35 -86 -65 -173 -30 -87 -113 -327 -185 -533 -72
-205 -131 -375 -131 -377 0 -2 62 -4 138 -4 159 0 157 -1 191 89 11 30 26 58
33 63 7 4 80 8 162 8 173 0 177 -2 202 -87 9 -30 24 -57 34 -63 20 -11 258
-14 284 -4 9 3 16 13 16 21 0 36 -383 1028 -407 1056 -14 14 -35 17 -138 17
-91 0 -125 -4 -134 -13z m177 -444 c51 -168 56 -191 42 -208 -17 -21 -148 -22
-156 -1 -6 16 76 276 87 276 4 0 16 -30 27 -67z"/>
<path d="M3079 1517 c-107 -30 -194 -108 -251 -225 -44 -88 -51 -208 -19 -305
73 -219 300 -387 521 -387 l68 0 -26 78 c-23 69 -26 95 -21 181 0 13 -6 40
-14 60 -9 20 -18 49 -22 64 -3 15 -10 25 -15 22 -6 -3 -10 -1 -10 4 0 8 -23 9
-69 5 l-69 -7 -31 43 c-27 37 -30 49 -27 99 1 31 8 66 15 79 10 19 9 22 -6 23
-16 0 -15 1 2 8 11 5 26 6 33 4 6 -3 12 1 12 9 0 21 41 63 65 65 11 1 41 6 67
11 51 9 58 7 58 -17 0 -9 15 -23 33 -32 29 -14 35 -15 43 -3 7 12 15 12 42 2
39 -15 40 -13 68 68 24 71 18 76 -132 121 -135 39 -245 50 -315 30z"/>
<path d="M1886 1476 c-71 -13 -121 -26 -124 -34 -2 -7 4 -65 13 -130 13 -87
18 -190 19 -405 1 -243 4 -289 16 -297 23 -15 287 -13 296 2 4 6 8 119 8 249
1 291 -8 273 142 277 68 3 107 8 109 15 2 7 6 78 9 158 6 129 5 149 -10 164
-22 22 -76 13 -170 -30 -109 -50 -114 -51 -114 -21 0 13 -4 36 -10 50 -12 31
-19 31 -184 2z"/>
<path d="M2431 1457 c-8 -10 -8 -42 -1 -113 5 -54 10 -239 10 -409 0 -228 3
-314 12 -323 17 -17 287 -17 293 1 2 6 6 185 9 397 3 212 8 402 12 423 l7 37
-165 0 c-126 0 -168 -3 -177 -13z"/>
<path d="M4290 1446 c-36 -8 -87 -17 -114 -21 l-49 -7 7 -66 c3 -37 10 -101
16 -142 5 -41 9 -188 10 -326 0 -202 3 -254 14 -263 9 -8 57 -11 147 -9 l134
3 3 232 2 232 27 20 c17 14 40 21 69 21 36 0 47 -5 61 -27 28 -42 25 -218 -6
-351 -33 -140 -36 -137 143 -127 120 6 138 9 147 26 13 25 -5 368 -27 517 -45
310 -105 352 -347 246 -43 -18 -82 -34 -86 -34 -5 0 -12 19 -17 43 -8 37 -12
42 -39 44 -16 1 -59 -4 -95 -11z"/>
<path d="M3675 1334 c-11 -3 -48 -14 -82 -25 -70 -23 -75 -34 -43 -87 11 -18
20 -38 20 -44 0 -6 15 -31 33 -55 29 -39 35 -43 65 -39 54 8 44 -22 -41 -127
-27 -34 -33 -64 -23 -121 4 -23 -1 -34 -25 -55 -19 -17 -29 -35 -29 -53 0 -16
-4 -28 -10 -28 -5 0 -10 -5 -10 -12 0 -6 -11 -26 -25 -43 l-24 -33 37 -6 c116
-19 224 3 289 59 l42 36 3 -48 3 -48 124 -3 c93 -2 127 1 133 10 11 16 0 487
-13 548 -16 72 -52 118 -117 148 -49 22 -72 26 -172 28 -63 2 -124 1 -135 -2z
m0 -569 c-22 -66 -39 -85 -53 -58 -14 26 -1 73 28 104 37 38 47 19 25 -46z"/>
<path d="M579 529 c84 -16 131 -70 131 -149 0 -79 -47 -133 -131 -149 -36 -7
-38 -9 -14 -10 85 -2 157 71 157 159 0 88 -72 161 -157 159 -24 -1 -22 -3 14
-10z"/>
<path d="M764 523 c26 -73 122 -303 126 -303 7 0 131 313 126 317 -2 2 -30
-61 -62 -141 -32 -81 -60 -146 -64 -146 -4 0 -32 65 -64 145 -32 80 -60 145
-63 145 -3 0 -2 -8 1 -17z"/>
<path d="M1104 527 c-2 -7 -3 -78 -2 -157 l3 -145 110 -1 110 0 -102 3 -103 4
0 74 0 74 83 4 82 3 -82 2 -83 2 0 70 0 69 103 4 102 3 -108 2 c-80 1 -109 -1
-113 -11z"/>
<path d="M1384 527 c-2 -7 -3 -78 -2 -157 l3 -145 85 -1 85 0 -77 3 -78 4 0
74 0 75 75 0 c67 0 79 -3 100 -25 30 -30 32 -64 4 -99 -11 -14 -16 -26 -10
-26 13 0 41 53 41 79 0 11 -12 33 -26 51 -25 29 -25 32 -10 49 26 29 21 86
-10 110 -22 17 -41 21 -101 21 -51 0 -75 -4 -79 -13z m174 -17 c14 -14 22 -33
22 -55 0 -49 -28 -65 -112 -65 l-68 0 0 70 0 70 68 0 c55 0 73 -4 90 -20z"/>
<path d="M1802 379 c1 -90 3 -136 5 -101 l4 62 73 0 74 0 25 -62 c15 -35 26
-58 27 -51 0 7 -9 35 -20 63 l-20 52 25 30 c34 40 34 96 1 135 -23 26 -31 28
-110 32 l-86 3 2 -163z m177 125 c42 -35 44 -93 5 -129 -24 -22 -36 -25 -100
-25 l-74 0 0 83 c0 46 3 87 7 90 3 4 34 7 69 7 53 0 67 -4 93 -26z"/>
<path d="M2104 527 c-2 -7 -3 -78 -2 -157 l3 -145 65 -3 c118 -5 190 55 190
158 0 100 -70 160 -187 160 -43 0 -65 -4 -69 -13z m166 -16 c107 -56 107 -206
0 -262 -22 -12 -55 -19 -92 -19 l-58 0 0 150 0 150 58 0 c37 0 70 -7 92 -19z"/>
<path d="M2465 528 c-2 -7 -9 -62 -15 -123 -5 -60 -13 -127 -16 -147 -6 -37
-5 -38 24 -38 l30 0 7 81 c12 140 16 142 55 29 32 -92 37 -101 59 -98 20 3 29
17 59 103 l36 100 7 -50 c4 -27 10 -76 14 -108 6 -52 9 -57 31 -57 29 0 29 11
14 158 -19 169 -17 164 -52 160 -30 -3 -33 -7 -67 -105 -20 -56 -39 -105 -43
-108 -3 -3 -8 6 -12 20 -4 14 -20 63 -37 110 -29 80 -32 85 -60 85 -16 0 -31
-6 -34 -12z"/>
<path d="M2851 421 c3 -103 7 -124 25 -148 46 -61 137 -67 197 -13 l32 28 3
126 4 126 -31 0 -31 0 0 -110 c0 -124 -12 -150 -70 -150 -58 0 -70 26 -70 150
l0 110 -31 0 -31 0 3 -119z"/>
<path d="M3180 510 c0 -29 2 -30 45 -30 l45 0 0 -130 0 -130 25 0 25 0 0 130
0 130 45 0 c43 0 45 1 45 30 l0 30 -115 0 -115 0 0 -30z"/>
<path d="M3581 523 c-16 -32 -111 -279 -111 -291 0 -7 11 -12 24 -12 17 0 27
9 36 30 12 29 14 30 79 30 65 0 67 -1 78 -30 9 -23 18 -30 37 -30 14 0 26 4
26 8 0 4 -26 75 -58 157 -48 122 -62 151 -79 153 -13 2 -26 -4 -32 -15z m44
-110 c33 -79 32 -83 -18 -83 l-46 0 22 60 c12 33 23 60 24 60 2 0 10 -17 18
-37z"/>
<path d="M3780 510 c0 -29 2 -30 45 -30 l45 0 0 -130 0 -130 25 0 25 0 0 130
0 130 45 0 c43 0 45 1 45 30 l0 30 -115 0 -115 0 0 -30z"/>
<path d="M4090 380 l0 -160 25 0 25 0 0 160 0 160 -25 0 -25 0 0 -160z"/>
<path d="M4314 521 c-119 -54 -117 -230 4 -283 63 -28 120 -18 171 30 83 79
62 205 -43 253 -52 23 -80 23 -132 0z m137 -70 c63 -64 20 -171 -69 -171 -45
0 -87 32 -98 74 -24 99 95 168 167 97z"/>
<path d="M4620 380 l0 -160 25 0 c24 0 24 0 27 113 l3 112 75 -112 c65 -97 79
-113 103 -113 l27 0 0 160 0 160 -25 0 -25 0 0 -106 c0 -126 1 -126 -90 11
-55 83 -66 95 -91 95 l-29 0 0 -160z"/>
<path d="M192 378 l3 -153 100 -1 100 0 -92 3 -93 4 0 149 c0 96 -4 150 -10
150 -7 0 -10 -53 -8 -152z"/>
<path d="M460 492 c-66 -66 -66 -158 0 -224 21 -21 46 -38 56 -38 13 0 5 9
-22 25 -98 59 -97 191 2 251 26 16 33 24 20 24 -10 0 -35 -17 -56 -38z"/>
<path d="M1684 380 c0 -85 2 -120 3 -77 2 42 2 112 0 155 -1 42 -3 7 -3 -78z"/>
</g>
</svg>
