<?xml version="1.0" encoding="UTF-8"?>
<svg version="1.1" xmlns="http://www.w3.org/2000/svg" width="528" height="210">
<path d="M0 0 C1.15435547 -0.02900391 2.30871094 -0.05800781 3.49804688 -0.08789062 C5.16383789 -0.10045898 5.16383789 -0.10045898 6.86328125 -0.11328125 C8.39335815 -0.13515503 8.39335815 -0.13515503 9.9543457 -0.1574707 C13.46104165 0.44551185 14.51812853 1.53452658 16.6875 4.3125 C17.92578125 6.60351562 17.92578125 6.60351562 19 9.21875 C19.42571289 10.24677734 19.85142578 11.27480469 20.29003906 12.33398438 C20.75120117 13.48189453 21.21236328 14.62980469 21.6875 15.8125 C22.19214948 17.05022537 22.6970419 18.28785171 23.20214844 19.52539062 C30.80093003 38.25886755 37.97043261 57.17290494 45.15539551 76.06799316 C47.10884518 81.20436587 49.08351053 86.32997806 51.11132812 91.4375 C51.49061462 92.40288696 51.86990112 93.36827393 52.26068115 94.36291504 C52.97392664 96.17628058 53.69565836 97.98633963 54.42730713 99.7923584 C54.74101257 100.59500122 55.05471802 101.39764404 55.37792969 102.22460938 C55.79543488 103.26941467 55.79543488 103.26941467 56.22137451 104.33532715 C56.77954952 106.70294811 56.56942948 108.05791023 55.6875 110.3125 C51.11991635 112.59629183 44.82708876 111.58772605 39.8125 111.625 C37.87310547 111.66850586 37.87310547 111.66850586 35.89453125 111.71289062 C34.03248047 111.72545898 34.03248047 111.72545898 32.1328125 111.73828125 C30.99344238 111.75286377 29.85407227 111.76744629 28.68017578 111.7824707 C25.6875 111.3125 25.6875 111.3125 21.6875 107.3125 C20.6975 103.6825 19.7075 100.0525 18.6875 96.3125 C7.1375 96.3125 -4.4125 96.3125 -16.3125 96.3125 C-16.9725 98.9525 -17.6325 101.5925 -18.3125 104.3125 C-19.78356804 107.13204707 -21.07019107 109.07019107 -23.3125 111.3125 C-26.29345703 111.53955078 -26.29345703 111.53955078 -30.0703125 111.5078125 C-30.73336395 111.5049826 -31.39641541 111.50215271 -32.07955933 111.49923706 C-34.19905583 111.48803435 -36.31813104 111.46293051 -38.4375 111.4375 C-39.87369182 111.42747028 -41.30989025 111.41834441 -42.74609375 111.41015625 C-46.26836628 111.388095 -49.79039203 111.35356494 -53.3125 111.3125 C-51.08465235 104.54573737 -48.75598814 97.81744712 -46.390625 91.09765625 C-46.01343323 90.02442108 -45.63624146 88.95118591 -45.24761963 87.84542847 C-41.02473831 75.83501214 -36.78955366 63.82892675 -32.55151367 51.82385254 C-31.36712301 48.46730106 -30.18429755 45.11020241 -29.00195312 41.75292969 C-27.26546717 36.82366417 -25.5232924 31.89644868 -23.77624512 26.97091675 C-23.13741268 25.16731759 -22.50042752 23.363063 -21.86535645 21.55813599 C-20.98830109 19.06684562 -20.1044421 16.57807435 -19.21875 14.08984375 C-18.96643616 13.36836151 -18.71412231 12.64687927 -18.4541626 11.90353394 C-14.27272265 0.23549111 -11.73937349 0.09734141 0 0 Z M1.6875 40.3125 C0.15175219 44.41124125 -1.36351224 48.51725689 -2.875 52.625 C-3.31263672 53.79224609 -3.75027344 54.95949219 -4.20117188 56.16210938 C-4.81508789 57.83950195 -4.81508789 57.83950195 -5.44140625 59.55078125 C-5.82369385 60.58243408 -6.20598145 61.61408691 -6.59985352 62.67700195 C-7.59396554 65.38959967 -7.59396554 65.38959967 -6.3125 68.3125 C-1.6925 68.3125 2.9275 68.3125 7.6875 68.3125 C9.95815658 63.77118684 9.76796434 63.2629706 8.3515625 58.671875 C8.02929688 57.60195312 7.70703125 56.53203125 7.375 55.4296875 C7.024375 54.31851563 6.67375 53.20734375 6.3125 52.0625 C5.96960938 50.93585938 5.62671875 49.80921875 5.2734375 48.6484375 C4.42441258 45.86552249 3.56204321 43.08748071 2.6875 40.3125 C2.3575 40.3125 2.0275 40.3125 1.6875 40.3125 Z " fill="#FFFFFF" transform="translate(76.3125,39.6875)"/>
<path d="M0 0 C2.63099984 2.02375637 3.53681928 3.93692183 4.421875 7.08984375 C4.64230469 7.87423828 4.86273438 8.65863281 5.08984375 9.46679688 C5.30769531 10.28212891 5.52554688 11.09746094 5.75 11.9375 C6.09998047 13.15469727 6.09998047 13.15469727 6.45703125 14.39648438 C8.35701722 21.33086432 8.35701722 21.33086432 7 25 C2.64696715 28.37008995 -2.91221334 30.03272249 -8 32 C-8.33 37.28 -8.66 42.56 -9 48 C-7.2984375 47.7525 -7.2984375 47.7525 -5.5625 47.5 C6.09165478 46.04582739 6.09165478 46.04582739 10 48 C12.98673498 56.96020493 12.15434847 67.63619269 12 77 C8.95786733 78.52106634 5.71952428 78.37429338 2.375 78.5625 C1.66859375 78.60568359 0.9621875 78.64886719 0.234375 78.69335938 C-1.51018537 78.79944751 -3.25506697 78.90022889 -5 79 C-4.92261093 79.61308014 -4.84522186 80.22616028 -4.76548767 80.8578186 C-3.96054258 87.24819581 -3.16761224 93.6399829 -2.3815918 100.03271484 C-2.0868114 102.4172111 -1.78898614 104.80133303 -1.48803711 107.18505859 C-1.05558973 110.61461646 -0.63416815 114.04537851 -0.21484375 117.4765625 C-0.07843979 118.53928375 0.05796417 119.602005 0.19850159 120.69692993 C0.79842966 125.69092715 1.25088581 130.04842235 0 135 C-6.50415368 137.27457397 -12.90066066 137.57548919 -19.75 137.875 C-20.88566406 137.9471875 -22.02132812 138.019375 -23.19140625 138.09375 C-24.27808594 138.14273438 -25.36476562 138.19171875 -26.484375 138.2421875 C-27.47147461 138.2922998 -28.45857422 138.34241211 -29.47558594 138.39404297 C-32 138 -32 138 -33.61354065 136.2963562 C-35.21098539 133.65055044 -35.48744081 131.93358326 -35.70776367 128.86425781 C-35.78762009 127.84350159 -35.8674765 126.82274536 -35.94975281 125.77105713 C-36.0577697 124.12868073 -36.0577697 124.12868073 -36.16796875 122.453125 C-36.25250809 121.3267865 -36.33704742 120.200448 -36.42414856 119.03997803 C-36.69114712 115.44410862 -36.93953951 111.84722745 -37.1875 108.25 C-37.36531225 105.81110835 -37.54433406 103.37230457 -37.72460938 100.93359375 C-38.16377872 94.95665797 -38.58626658 88.97874816 -39 83 C-42.3 82.34 -45.6 81.68 -49 81 C-51.83477136 72.49568591 -51.12668415 62.85381481 -51 54 C-47.91190305 52.23537317 -46.76687864 52 -43 52 C-43.02094727 51.22398438 -43.04189453 50.44796875 -43.06347656 49.6484375 C-43.14712759 46.09909252 -43.19881629 42.54995565 -43.25 39 C-43.30027344 37.16888672 -43.30027344 37.16888672 -43.3515625 35.30078125 C-43.45120682 26.08368161 -42.05711754 19.59592115 -35.71875 12.50390625 C-26.28018482 4.24516172 -12.60648384 -1.42331269 0 0 Z " fill="#FFFFFF" transform="translate(169,14)"/>
<path d="M0 0 C1.4783226 2.95664519 1.06032783 5.74229737 1 9 C1.59014893 8.76289307 2.18029785 8.52578613 2.78833008 8.28149414 C5.46269134 7.20759192 8.13758865 6.13503128 10.8125 5.0625 C11.74126953 4.68931641 12.67003906 4.31613281 13.62695312 3.93164062 C14.51962891 3.57392578 15.41230469 3.21621094 16.33203125 2.84765625 C17.15421143 2.51773682 17.9763916 2.18781738 18.82348633 1.84790039 C24.47115993 -0.35225333 29.33074816 -0.80077555 35.125 0.9375 C45.43053164 8.33059879 47.8692221 22.06756842 49.98377991 33.81584167 C51.36764105 42.23926483 51.48788164 50.63289557 51.44604492 59.15258789 C51.43736117 61.85571457 51.46672195 64.55683702 51.49804688 67.25976562 C51.49965523 68.99218688 51.49908838 70.72461184 51.49609375 72.45703125 C51.50732773 73.25800735 51.51856171 74.05898346 51.53013611 74.88423157 C51.48480838 78.4871654 51.31945971 80.57536906 49.12231445 83.49584961 C44.95606083 86.44860339 39.94854472 85.8704852 35 86 C34.31599121 86.02578125 33.63198242 86.0515625 32.92724609 86.078125 C30.76398947 86.15616808 28.6017323 86.2077567 26.4375 86.25 C25.74688477 86.2715918 25.05626953 86.29318359 24.34472656 86.31542969 C21.5727154 86.33326054 19.4442217 86.23623351 16.97265625 84.921875 C14.68799273 80.40760009 17.35721344 74.52146702 18.5625 69.875 C19.95738615 63.52279787 20.29847024 57.43496215 20.3125 50.9375 C20.31773682 50.03306152 20.32297363 49.12862305 20.32836914 48.19677734 C20.28086339 43.70769369 20.12445969 40.07117574 18 36 C11.64203199 35.54670974 11.64203199 35.54670974 6 38 C5.08014329 40.75957013 4.88618229 42.31364137 4.91821289 45.1484375 C4.9247438 45.97939941 4.93127472 46.81036133 4.93800354 47.66650391 C4.94943893 48.56030762 4.96087433 49.45411133 4.97265625 50.375 C4.98529969 52.26562319 4.99766086 54.15624828 5.00976562 56.046875 C5.03461964 59.02935703 5.06263115 62.01174065 5.09594727 64.99414062 C5.12609362 67.87110027 5.1439051 70.7479331 5.16015625 73.625 C5.17361588 74.51880371 5.1870755 75.41260742 5.20094299 76.33349609 C5.20432175 77.16445801 5.2077005 77.99541992 5.21118164 78.8515625 C5.22236778 79.94718506 5.22236778 79.94718506 5.23377991 81.06494141 C5 83 5 83 3 86 C0.234375 86.37231445 0.234375 86.37231445 -3.25 86.36328125 C-4.4978125 86.36263672 -5.745625 86.36199219 -7.03125 86.36132812 C-8.99578125 86.3371582 -8.99578125 86.3371582 -11 86.3125 C-12.3096875 86.31572266 -13.619375 86.31894531 -14.96875 86.32226562 C-24.73321429 86.26678571 -24.73321429 86.26678571 -27 84 C-27.26501465 82.02711487 -27.26501465 82.02711487 -27.28710938 79.57641602 C-27.30052368 78.65687637 -27.31393799 77.73733673 -27.32775879 76.78993225 C-27.33303589 75.78804367 -27.33831299 74.78615509 -27.34375 73.75390625 C-27.3583728 72.71419174 -27.37299561 71.67447723 -27.38806152 70.60325623 C-27.43467461 67.25637757 -27.46871237 63.9095548 -27.5 60.5625 C-27.64395923 45.57634425 -28.14713712 30.87745437 -30 16 C-30.21516238 13.93820123 -30.42486273 11.87581144 -30.625 9.8125 C-30.74875 8.554375 -30.8725 7.29625 -31 6 C-26.58313435 2.840038 -22.43085009 2.1048477 -17.1875 1.3125 C-16.03411133 1.11817383 -16.03411133 1.11817383 -14.85742188 0.91992188 C-9.84706505 0.12080167 -5.07177384 -0.12144498 0 0 Z " fill="#FFFFFF" transform="translate(454,64)"/>
<path d="M0 0 C2 2 2 2 2.375 4.5 C1.85062282 9.39418697 -0.01933212 13.52581274 -2 18 C-6.455 17.01 -6.455 17.01 -11 16 C-11 16.66 -11 17.32 -11 18 C-13.97 17.01 -16.94 16.02 -20 15 C-19.67 13.68 -19.34 12.36 -19 11 C-21.43798448 11.47680139 -23.87537516 11.95634129 -26.3125 12.4375 C-27.00279297 12.57220703 -27.69308594 12.70691406 -28.40429688 12.84570312 C-31.34289007 13.42774332 -34.15456685 14.05152228 -37 15 C-37.0825 15.70125 -37.165 16.4025 -37.25 17.125 C-38 20 -38 20 -40.0625 22.9375 C-42.23924064 26.37815456 -42.27089453 28.0268803 -42 32 C-42.495 32.99 -42.495 32.99 -43 34 C-41.21293716 37.45087996 -39.74146784 40.25853216 -37 43 C-33.6240831 43.19108964 -30.71319842 43.19134592 -27.4375 42.3125 C-23.95918512 41.8665622 -21.96130476 43.27831119 -19 45 C-19.0928125 46.546875 -19.0928125 46.546875 -19.1875 48.125 C-19.29394361 51.96435218 -19.29394361 51.96435218 -17.4375 54.75 C-15.86073105 58.31486893 -16.00350807 59.55484006 -16.5 63.3125 C-17.11003416 68.15341625 -16.60888087 71.34600915 -14.8359375 75.8515625 C-13.54970322 79.1573048 -12.81506363 82.55165387 -12 86 C-22.19271113 86.50752089 -30.39149919 85.79812467 -40 82 C-40.86109375 81.67257813 -41.7221875 81.34515625 -42.609375 81.0078125 C-56.41238277 74.98548108 -67.16065864 62.00550847 -73.0546875 48.48046875 C-76.56373418 39.27284626 -76.52137631 27.58850208 -72.875 18.4375 C-67.54248633 7.51925274 -59.53421629 -1.60346253 -48.140625 -6.30859375 C-32.8165072 -11.25817195 -14.39796444 -6.02234717 0 0 Z " fill="#FFFFFF" transform="translate(363,65)"/>
<path d="M0 0 C2.6855594 2.6855594 3.06049974 5.37621328 4 9 C5.03898437 8.50628906 6.07796875 8.01257813 7.1484375 7.50390625 C23.98728708 -0.31030608 23.98728708 -0.31030608 30 1 C32.42579606 3.40336903 32.97693036 4.73878504 33.28051758 8.17626953 C33.23564209 9.39942871 33.1907666 10.62258789 33.14453125 11.8828125 C33.12283371 12.53829071 33.10113617 13.19376892 33.07878113 13.86911011 C33.0296528 15.24945265 32.9728808 16.62954181 32.90893555 18.00927734 C32.81252682 20.12441153 32.74330062 22.23917703 32.67773438 24.35546875 C32.28310381 34.71689619 32.28310381 34.71689619 30 37 C27.04009936 37.28342583 24.15383157 37.46681188 21.1875 37.5625 C19.57669255 37.62292135 17.9660047 37.68663571 16.35546875 37.75390625 C15.64028076 37.77783447 14.92509277 37.8017627 14.18823242 37.82641602 C11.73639671 38.02091063 9.40664611 38.50186371 7 39 C6.99191315 39.62196259 6.98382629 40.24392517 6.97549438 40.88473511 C6.88963493 47.34085016 6.79014024 53.79665154 6.68261719 60.25244141 C6.64426353 62.66384628 6.6094221 65.07530962 6.578125 67.48681641 C6.53261297 70.94715313 6.47459596 74.40708508 6.4140625 77.8671875 C6.40251129 78.95055389 6.39096008 80.03392029 6.37905884 81.15011597 C6.35918915 82.1510025 6.33931946 83.15188904 6.31884766 84.18310547 C6.30552399 85.06690887 6.29220032 85.95071228 6.2784729 86.86129761 C6 89 6 89 4 91 C-0.11767518 91.39800538 -4.24088662 91.32904717 -8.3762207 91.31567383 C-10.42648614 91.31251696 -12.47530405 91.3359576 -14.52539062 91.36132812 C-15.81509766 91.36197266 -17.10480469 91.36261719 -18.43359375 91.36328125 C-19.62009521 91.36626221 -20.80659668 91.36924316 -22.02905273 91.37231445 C-25 91 -25 91 -26.66064453 89.82836914 C-28.52306134 87.28596311 -28.38499886 85.50982674 -28.40063477 82.3737793 C-28.41397354 81.21794846 -28.42731232 80.06211761 -28.4410553 78.8712616 C-28.44117111 77.61823746 -28.44128693 76.36521332 -28.44140625 75.07421875 C-28.4615974 73.09557045 -28.48179886 71.11692221 -28.50257015 69.13827991 C-28.52826953 66.3576564 -28.54076162 63.57703634 -28.55297852 60.79632568 C-28.57473492 55.97769954 -28.60656836 51.15921445 -28.65428162 46.34077454 C-28.67832813 43.77963808 -28.69343773 41.21839574 -28.69789124 38.65715027 C-28.76057322 31.33153837 -29.37638137 24.31335216 -30.56114197 17.08161926 C-31.14247553 12.99955039 -31.14190035 9.11511015 -31 5 C-8.19063545 -0.51839465 -8.19063545 -0.51839465 0 0 Z " fill="#FFFFFF" transform="translate(215,60)"/>
<path d="M0 0 C0.89799316 -0.00580078 1.79598633 -0.01160156 2.72119141 -0.01757812 C12.15439937 0.15624181 20.0263246 2.05943117 26.9375 8.6640625 C32.02337618 14.41012453 32.71125166 20.71339294 33.11328125 28.06640625 C33.15512039 28.81040176 33.19695953 29.55439728 33.24006653 30.32093811 C33.65094044 38.23001635 33.74862187 46.13488698 33.74780273 54.0534668 C33.7500468 56.48828236 33.76846814 58.92268251 33.78710938 61.35742188 C33.79003439 62.91406098 33.79202514 64.47070219 33.79296875 66.02734375 C33.80374702 67.11304909 33.80374702 67.11304909 33.81474304 68.22068787 C33.79140272 73.27109728 33.79140272 73.27109728 31.5625 75.5 C27.41393538 75.95756227 23.23337925 75.82402177 19.0625 75.8125 C17.89589844 75.82861328 16.72929687 75.84472656 15.52734375 75.86132812 C13.85865234 75.86229492 13.85865234 75.86229492 12.15625 75.86328125 C11.13208984 75.86626221 10.10792969 75.86924316 9.05273438 75.87231445 C8.23095703 75.74945068 7.40917969 75.62658691 6.5625 75.5 C4.27236347 72.0647952 4.38407027 70.514669 4.5625 66.5 C4.16160156 66.89832031 3.76070313 67.29664063 3.34765625 67.70703125 C-4.85047941 75.3474706 -12.91790424 75.91232064 -23.765625 75.703125 C-26.78508256 75.53609118 -29.50634598 75.20438585 -32.4375 74.5 C-30.77083333 71.16666667 -29.10416667 67.83333333 -27.4375 64.5 C-26.7775 64.5 -26.1175 64.5 -25.4375 64.5 C-25.540625 63.5925 -25.64375 62.685 -25.75 61.75 C-25.4375 58.5 -25.4375 58.5 -22.9375 56.4375 C-22.1125 55.798125 -21.2875 55.15875 -20.4375 54.5 C-19.97158825 51.31626968 -20.41519742 49.56690775 -21.4375 46.5 C-20.45029729 41.19378544 -17.65936199 38.25153953 -13.99609375 34.52734375 C-12.19301897 32.18199084 -11.80505337 30.40518208 -11.4375 27.5 C-13.0875 27.83 -14.7375 28.16 -16.4375 28.5 C-21.4375 22.875 -21.4375 22.875 -21.4375 19.5 C-22.0975 19.5 -22.7575 19.5 -23.4375 19.5 C-24.08660154 17.91800369 -24.73164694 16.33434276 -25.375 14.75 C-25.73464844 13.86828125 -26.09429687 12.9865625 -26.46484375 12.078125 C-27.29106576 9.88813896 -27.93119943 7.78101729 -28.4375 5.5 C-18.94919724 1.97649234 -10.16590432 0.006938 0 0 Z M-12.4375 51.5 C-16.61598497 55.68965788 -16.61598497 55.68965788 -17.75 61.375 C-17.646875 62.40625 -17.54375 63.4375 -17.4375 64.5 C-16.4475 64.5 -15.4575 64.5 -14.4375 64.5 C-13.90355821 63.0882217 -13.38584896 61.67029756 -12.875 60.25 C-12.58496094 59.46109375 -12.29492188 58.6721875 -11.99609375 57.859375 C-11.39227163 55.30896548 -11.5901068 53.94677771 -12.4375 51.5 Z " fill="#FFFFFF" transform="translate(390.4375,75.5)"/>
<path d="M0 0 C1.4282618 0.00031703 2.85654759 0.01163717 4.28466797 0.03173828 C5.41242142 0.03598312 5.41242142 0.03598312 6.56295776 0.04031372 C8.96775125 0.05152204 11.37217428 0.07662726 13.77685547 0.10205078 C15.40575635 0.11207976 17.03466305 0.12120576 18.66357422 0.12939453 C22.65981103 0.15146343 26.65577041 0.18599728 30.65185547 0.22705078 C30.56755814 11.25798078 30.47271632 22.28876451 30.36432838 33.31948566 C30.31433521 38.44123426 30.26800545 43.56296191 30.22998047 48.68481445 C30.19316583 53.62563317 30.14681633 58.56627804 30.09379196 63.50694847 C30.07522767 65.39400375 30.06012727 67.28109632 30.04851151 69.16820717 C30.03168383 71.80690016 30.00265746 74.44519321 29.97070312 77.08374023 C29.96854294 77.86776718 29.96638275 78.65179413 29.9641571 79.45957947 C29.90544213 83.2429215 29.8021397 85.00162443 27.65185547 88.22705078 C23.54291896 88.81131832 19.42256143 88.69942067 15.27563477 88.6730957 C13.22488792 88.66459444 11.17693548 88.69331696 9.12646484 88.72509766 C7.1919043 88.72413086 7.1919043 88.72413086 5.21826172 88.72314453 C4.03176025 88.72499756 2.84525879 88.72685059 1.62280273 88.72875977 C-1.34814453 88.22705078 -1.34814453 88.22705078 -3.24243164 86.61157227 C-4.71050907 83.44559472 -4.6704605 81.06886307 -4.60595703 77.57861328 C-4.5990686 76.90944885 -4.59218018 76.24028442 -4.58508301 75.55084229 C-4.56901453 74.08815323 -4.54633507 72.62552549 -4.5178833 71.1630249 C-4.44036115 67.15863062 -4.41007168 63.1539126 -4.37939453 59.14892578 C-4.37195221 58.2906015 -4.36450989 57.43227722 -4.35684204 56.54794312 C-4.31399807 49.58750109 -4.44411226 42.63798634 -4.62939453 35.68017578 C-4.65677704 34.63296356 -4.68415955 33.58575134 -4.71237183 32.50680542 C-4.82408575 28.33296522 -4.93948904 24.1593716 -5.07232666 19.98614502 C-5.16490604 17.06401705 -5.24563888 14.14175797 -5.32470703 11.21923828 C-5.35689331 10.33753967 -5.38907959 9.45584106 -5.42224121 8.54742432 C-5.47499154 6.44114881 -5.42157607 4.33270672 -5.34814453 2.22705078 C-3.34814453 0.22705078 -3.34814453 0.22705078 0 0 Z " fill="#FFFFFF" transform="translate(256.34814453125,62.77294921875)"/>
<path d="M0 0 C4.89326075 3.53896434 7.58413262 7.30980848 8.5625 13.3125 C8.86812485 17.85866968 7.98768277 20.91179019 5.625 24.875 C1.98744453 28.79705701 -1.37000224 30.55841129 -6.63671875 31.11328125 C-12.93506461 31.30598426 -18.12578875 30.55358111 -23.375 26.875 C-26.73941108 23.32193036 -28.63933807 19.67062113 -28.875 14.75 C-28.13894182 9.04554911 -26.65836923 6.10257057 -22.5 2.125 C-15.64325173 -2.81185875 -7.63471583 -4.43812453 0 0 Z " fill="#FFFFFF" transform="translate(279.375,26.125)"/>
<path d="M0 0 C2.31 0 4.62 0 7 0 C8.65 4.62 10.3 9.24 12 14 C13.65 9.38 15.3 4.76 17 0 C19.31 0 21.62 0 24 0 C24.33896268 2.83275953 24.67129694 5.66604661 25 8.5 C25.09539062 9.29148438 25.19078125 10.08296875 25.2890625 10.8984375 C25.87107882 15.97029404 26.09367085 20.89493859 26 26 C24.33388095 26.042721 22.66617115 26.04063832 21 26 C19.07426764 24.07426764 19.5128147 20.64462302 19.28125 18.03125 C19.20934163 16.00819407 19.20934163 16.00819407 18 15 C16.68 18.3 15.36 21.6 14 25 C12.35 24.67 10.7 24.34 9 24 C7.08334899 20.47973267 6.19503169 16.85065767 5 13 C4.34 17.29 3.68 21.58 3 26 C1.35 26 -0.3 26 -2 26 C-2.38064163 17.20294908 -1.20731692 8.68836995 0 0 Z " fill="#FFFFFF" transform="translate(270,170)"/>
<path d="M0 0 C2.3925 -0.0825 4.785 -0.165 7.25 -0.25 C7.99668945 -0.28641602 8.74337891 -0.32283203 9.51269531 -0.36035156 C12.91992112 -0.41716921 14.70407931 -0.21866292 17.46875 1.82421875 C19.49358916 4.7013499 19.29370658 6.54894769 19 10 C19 10.99 19 11.98 19 13 C19.33 13.33 19.66 13.66 20 14 C20.48669307 18.21800661 20.5525452 20.26291955 17.96484375 23.71484375 C14.29416449 26.54402341 11.60664214 26.58522696 7.1875 26.3125 C4.815625 26.209375 2.44375 26.10625 0 26 C0 17.42 0 8.84 0 0 Z M6 5 C6 6.65 6 8.3 6 10 C7.98 10 9.96 10 12 10 C12.59070014 8.05396726 12.59070014 8.05396726 13 6 C11.87465895 4.64381501 11.87465895 4.64381501 8.9375 4.9375 C7.968125 4.958125 6.99875 4.97875 6 5 Z M6 15 C6 16.65 6 18.3 6 20 C8.31 20 10.62 20 13 20 C13.33 18.35 13.66 16.7 14 15 C11.36 15 8.72 15 6 15 Z " fill="#FFFFFF" transform="translate(163,170)"/>
<path d="M0 0 C1.98 0 3.96 0 6 0 C7.96525575 2.18762413 9.36775377 4.03406315 10.875 6.5 C11.2771875 7.12003906 11.679375 7.74007812 12.09375 8.37890625 C13.08131301 9.90727758 14.04323314 11.45216384 15 13 C15.33 8.71 15.66 4.42 16 0 C17.98 0 19.96 0 22 0 C22 8.58 22 17.16 22 26 C16 26 16 26 14.40087891 24.62304688 C14.01335449 23.99462891 13.62583008 23.36621094 13.2265625 22.71875 C12.79472656 22.04199219 12.36289062 21.36523438 11.91796875 20.66796875 C11.49128906 19.95253906 11.06460937 19.23710937 10.625 18.5 C10.17511719 17.78457031 9.72523438 17.06914062 9.26171875 16.33203125 C8.15534209 14.56653659 7.07508324 12.78472316 6 11 C5.67 15.95 5.34 20.9 5 26 C3.35 26 1.7 26 0 26 C0 17.42 0 8.84 0 0 Z " fill="#FFFFFF" transform="translate(448,170)"/>
<path d="M0 0 C14.19642857 -0.66964286 14.19642857 -0.66964286 17.75 2.25 C21.64682987 7.01279206 22.55208451 9.70623654 22 16 C19.9266082 20.69241302 16.57360892 23.71319554 12 26 C8.04 26 4.08 26 0 26 C0 17.42 0 8.84 0 0 Z M6 5 C6 9.95 6 14.9 6 20 C12.35048872 19.53896492 12.35048872 19.53896492 14.9375 17.875 C16.64550843 14.86086748 16.36204814 12.37911601 16 9 C15.06402685 6.98048938 15.06402685 6.98048938 13 6 C10.69 5.67 8.38 5.34 6 5 Z " fill="#FFFFFF" transform="translate(227,170)"/>
<path d="M0 0 C3.43890075 1.70541404 5.48514546 4.08730332 7.375 7.4375 C8.50719548 12.07950145 8.62414866 14.84416915 6.3125 19.125 C2.82579222 23.45982589 0.78511772 25.67809353 -4.8125 26.6875 C-9.50282402 26.47349282 -12.11676647 23.92035693 -15.43359375 20.82421875 C-17.68525101 18.20196453 -17.99042668 16.10147723 -18.3125 12.6875 C-17.88361804 7.62669283 -15.92018086 4.7159063 -12.1640625 1.359375 C-8.33670608 -1.04481279 -4.35499345 -0.73499101 0 0 Z M-9.75 6.5625 C-12.31301244 8.88827139 -12.31301244 8.88827139 -12.5625 12.5 C-12.25025244 15.99047482 -12.25025244 15.99047482 -10.375 18.4375 C-7.2629338 20.48491197 -5.65605504 20.68551032 -2 20 C0.610911 18.04913936 0.610911 18.04913936 2 15 C2 11.11378952 1.88107087 8.94183438 -0.8125 6.0625 C-4.31607551 4.36076332 -6.42434299 4.67292215 -9.75 6.5625 Z " fill="#FFFFFF" transform="translate(98,170)"/>
<path d="M0 0 C3.10605182 2.6492795 4.82033521 4.80245545 5.4453125 8.92578125 C5.77413913 15.44750934 3.78923604 18.85223774 -0.5625 23.6875 C-4.28707156 25.49945373 -7.82809527 25.57699327 -11.875 24.8125 C-15.42272228 22.85487735 -17.6334012 20.1748982 -19.875 16.8125 C-20.61481114 11.81447359 -20.39303233 7.84856467 -18.125 3.3125 C-13.23452751 -2.12135832 -6.64443347 -2.74443991 0 0 Z M-12.1875 4.875 C-14.50430186 7.53503176 -14.80482809 9.30390451 -14.875 12.8125 C-14.04520292 15.72328244 -14.04520292 15.72328244 -11.875 17.8125 C-8.2384069 18.87041799 -6.000897 19.24553731 -2.4375 17.875 C-0.3431212 15.11041998 -0.36511779 13.08502598 -0.55859375 9.68359375 C-0.77844621 7.71783409 -0.77844621 7.71783409 -2 5.875 C-5.49632244 3.89375061 -8.46692234 3.1655454 -12.1875 4.875 Z " fill="#FFFFFF" transform="translate(435.875,171.1875)"/>
<path d="M0 0 C13.00552486 -0.60773481 13.00552486 -0.60773481 17.375 2.0625 C19.40553614 5.73308456 19.60190112 7.86192982 19 12 C17.5 14.4375 17.5 14.4375 16 16 C16.99 17.6396875 16.99 17.6396875 18 19.3125 C19.58464929 21.93707538 20 22.8256378 20 26 C18.02 26 16.04 26 14 26 C13.75765625 25.43410156 13.5153125 24.86820313 13.265625 24.28515625 C12.93046875 23.55167969 12.5953125 22.81820312 12.25 22.0625 C11.92515625 21.33160156 11.6003125 20.60070312 11.265625 19.84765625 C10.13830628 17.81193356 10.13830628 17.81193356 7.859375 17.24609375 C7.24578125 17.16488281 6.6321875 17.08367187 6 17 C6.020625 18.299375 6.04125 19.59875 6.0625 20.9375 C6.08399454 22.29165633 6.07148199 23.64756083 6 25 C5.67 25.33 5.34 25.66 5 26 C3.35 26 1.7 26 0 26 C0 17.42 0 8.84 0 0 Z M6 5 C6 7.31 6 9.62 6 12 C9.465 11.505 9.465 11.505 13 11 C13.042721 9.33388095 13.04063832 7.66617115 13 6 C11.87465895 4.64381501 11.87465895 4.64381501 8.9375 4.9375 C7.968125 4.958125 6.99875 4.97875 6 5 Z " fill="#FFFFFF" transform="translate(202,170)"/>
<path d="M0 0 C5.94 0 11.88 0 18 0 C18 1.65 18 3.3 18 5 C14.04 5 10.08 5 6 5 C6 6.32 6 7.64 6 9 C8.97 9 11.94 9 15 9 C15 10.98 15 12.96 15 15 C12.03 15 9.06 15 6 15 C6 16.65 6 18.3 6 20 C9.96 20 13.92 20 18 20 C18 21.98 18 23.96 18 26 C12.06 26 6.12 26 0 26 C0 17.42 0 8.84 0 0 Z " fill="#FFFFFF" transform="translate(139,170)"/>
<path d="M0 0 C1.98 0 3.96 0 6 0 C6.06058594 1.28777344 6.12117188 2.57554687 6.18359375 3.90234375 C6.26798247 5.58074159 6.3526313 7.25912636 6.4375 8.9375 C6.47681641 9.78763672 6.51613281 10.63777344 6.55664062 11.51367188 C6.59853516 12.32255859 6.64042969 13.13144531 6.68359375 13.96484375 C6.72025146 14.7137085 6.75690918 15.46257324 6.79467773 16.23413086 C6.81771063 18.02461326 6.81771063 18.02461326 8 19 C9.66617115 19.04063832 11.33388095 19.042721 13 19 C15.37590932 15.3010353 15.17424876 12.12600217 15.0625 7.8125 C15.00872377 5.54220791 14.97943616 3.27083579 15 1 C16 0 16 0 18.5625 -0.0625 C19.7690625 -0.0315625 19.7690625 -0.0315625 21 0 C21.14584064 3.22868746 21.23424106 6.45652365 21.3125 9.6875 C21.35439453 10.59951172 21.39628906 11.51152344 21.43945312 12.45117188 C21.56384506 19.29272853 21.56384506 19.29272853 18.54296875 23.08203125 C17.70378906 23.71496094 16.86460937 24.34789062 16 25 C15.67 25.33 15.34 25.66 15 26 C10.29828209 26.4781408 7.32594144 26.72931068 3.5625 23.6875 C0.38621293 20.3562721 -0.12905834 18.19722579 -0.09765625 13.76953125 C-0.09282227 12.56586914 -0.09282227 12.56586914 -0.08789062 11.33789062 C-0.07951172 10.50451172 -0.07113281 9.67113281 -0.0625 8.8125 C-0.05798828 7.96751953 -0.05347656 7.12253906 -0.04882812 6.25195312 C-0.03705403 4.16793845 -0.0191189 2.08396023 0 0 Z " fill="#FFFFFF" transform="translate(302,170)"/>
<path d="M0 0 C1.2065625 0.0309375 1.2065625 0.0309375 2.4375 0.0625 C3.94577797 3.83007497 5.44268994 7.60206349 6.9375 11.375 C7.36675781 12.44685547 7.79601562 13.51871094 8.23828125 14.62304688 C8.84736328 16.16508789 8.84736328 16.16508789 9.46875 17.73828125 C9.84580078 18.68614502 10.22285156 19.63400879 10.61132812 20.6105957 C11.4375 23.0625 11.4375 23.0625 11.4375 26.0625 C9.7875 26.0625 8.1375 26.0625 6.4375 26.0625 C5.7775 24.4125 5.1175 22.7625 4.4375 21.0625 C1.1375 21.0625 -2.1625 21.0625 -5.5625 21.0625 C-5.8925 22.7125 -6.2225 24.3625 -6.5625 26.0625 C-8.5425 26.0625 -10.5225 26.0625 -12.5625 26.0625 C-11.95288113 22.59721696 -11.06085807 19.49715819 -9.75 16.234375 C-9.39679688 15.35265625 -9.04359375 14.4709375 -8.6796875 13.5625 C-8.31101562 12.655 -7.94234375 11.7475 -7.5625 10.8125 C-7.19382812 9.88953125 -6.82515625 8.9665625 -6.4453125 8.015625 C-3.24740206 0.07920493 -3.24740206 0.07920493 0 0 Z M-0.5625 9.0625 C-2.0231285 11.70988916 -2.5625 12.95698334 -2.5625 16.0625 C-0.9125 16.0625 0.7375 16.0625 2.4375 16.0625 C1.7775 13.7525 1.1175 11.4425 0.4375 9.0625 C0.1075 9.0625 -0.2225 9.0625 -0.5625 9.0625 Z " fill="#FFFFFF" transform="translate(364.5625,169.9375)"/>
<path d="M0 0 C1.98 0 3.96 0 6 0 C7.98 4.95 9.96 9.9 12 15 C13.60360302 10.43872138 13.60360302 10.43872138 15.20092773 5.87524414 C16.88888889 1.11111111 16.88888889 1.11111111 18 0 C19.99958364 -0.04080783 22.00045254 -0.04254356 24 0 C21.24892128 8.90054879 17.59701637 17.41643491 14 26 C11.65356445 25.81616211 11.65356445 25.81616211 9 25 C7.60620117 22.80688477 7.60620117 22.80688477 6.54296875 19.94140625 C5.95805664 18.40323242 5.95805664 18.40323242 5.36132812 16.83398438 C4.97396484 15.75439453 4.58660156 14.67480469 4.1875 13.5625 C3.57745117 11.94891602 3.57745117 11.94891602 2.95507812 10.30273438 C0 2.39107143 0 2.39107143 0 0 Z " fill="#FFFFFF" transform="translate(110,170)"/>
<path d="M0 0 C6.6 0 13.2 0 20 0 C20 1.65 20 3.3 20 5 C17.69 5 15.38 5 13 5 C13.00523682 5.60062256 13.01047363 6.20124512 13.01586914 6.82006836 C13.03658014 9.52586838 13.04964125 12.23165177 13.0625 14.9375 C13.07087891 15.88302734 13.07925781 16.82855469 13.08789062 17.80273438 C13.09111328 18.70185547 13.09433594 19.60097656 13.09765625 20.52734375 C13.10289307 21.35999756 13.10812988 22.19265137 13.11352539 23.05053711 C13 25 13 25 12 26 C10.35 26 8.7 26 7 26 C7 19.07 7 12.14 7 5 C4.69 5 2.38 5 0 5 C0 3.35 0 1.7 0 0 Z " fill="#FFFFFF" transform="translate(378,170)"/>
<path d="M0 0 C1.98 0 3.96 0 6 0 C6 6.6 6 13.2 6 20 C9.63 20 13.26 20 17 20 C17 21.98 17 23.96 17 26 C11.39 26 5.78 26 0 26 C0 17.42 0 8.84 0 0 Z " fill="#FFFFFF" transform="translate(59,170)"/>
<path d="M0 0 C6.27 0 12.54 0 19 0 C19 1.65 19 3.3 19 5 C16.69 5 14.38 5 12 5 C12 11.93 12 18.86 12 26 C10.35 26 8.7 26 7 26 C5.0604886 24.0604886 5.86743371 21.1879288 5.86328125 18.61132812 C5.86908203 17.3496582 5.86908203 17.3496582 5.875 16.0625 C5.87113281 15.22525391 5.86726563 14.38800781 5.86328125 13.52539062 C5.86457031 12.72423828 5.86585938 11.92308594 5.8671875 11.09765625 C5.86831543 10.36039307 5.86944336 9.62312988 5.87060547 8.86352539 C6 7 6 7 7 5 C4.69 5 2.38 5 0 5 C0 3.35 0 1.7 0 0 Z " fill="#FFFFFF" transform="translate(329,170)"/>
<path d="M0 0 C1.98 0 3.96 0 6 0 C6 8.58 6 17.16 6 26 C4.35 26 2.7 26 1 26 C0 25 0 25 -0.11352539 22.59155273 C-0.10828857 21.54942627 -0.10305176 20.5072998 -0.09765625 19.43359375 C-0.09443359 18.30888672 -0.09121094 17.18417969 -0.08789062 16.02539062 C-0.07951172 14.84138672 -0.07113281 13.65738281 -0.0625 12.4375 C-0.05798828 11.24962891 -0.05347656 10.06175781 -0.04882812 8.83789062 C-0.03699675 5.89187774 -0.02051287 2.94596319 0 0 Z " fill="#FFFFFF" transform="translate(403,170)"/>
<path d="M0 0 C1.65 0 3.3 0 5 0 C6.24084307 2.48168614 6.12933103 4.16426199 6.1328125 6.9375 C6.13474609 8.40316406 6.13474609 8.40316406 6.13671875 9.8984375 C6.13285156 10.92195312 6.12898437 11.94546875 6.125 13 C6.12886719 14.02351562 6.13273438 15.04703125 6.13671875 16.1015625 C6.13542969 17.07867187 6.13414062 18.05578125 6.1328125 19.0625 C6.13168457 19.96097656 6.13055664 20.85945313 6.12939453 21.78515625 C6 24 6 24 5 26 C3.35 26 1.7 26 0 26 C0 17.42 0 8.84 0 0 Z " fill="#FFFFFF" transform="translate(189,170)"/>
<path d="M0 0 C2 1 2 1 2 1 Z " fill="#FFFFFF" transform="translate(359,84)"/>
</svg>
