<?xml version="1.0" encoding="UTF-8"?>
<svg version="1.1" xmlns="http://www.w3.org/2000/svg" width="1633" height="648">
<path d="M0 0 C2.05031099 0.12525646 4.10095227 0.24519777 6.15185547 0.36035156 C7.7309671 0.4491156 7.7309671 0.4491156 9.34197998 0.53967285 C14.51364431 0.7664404 19.67636766 0.72739544 24.8515625 0.671875 C25.86149261 0.66375793 26.87142273 0.65564087 27.91195679 0.64727783 C32.02995653 0.61202612 36.14766742 0.5685987 40.26538086 0.50830078 C43.33580757 0.46605482 46.40592566 0.44260283 49.4765625 0.421875 C50.86398399 0.39394363 50.86398399 0.39394363 52.2794342 0.365448 C58.28960528 0.34148263 62.38695835 1.17657488 67.22705078 5.02490234 C72.20581688 10.66504071 74.67847176 17.38429457 77.41015625 24.3046875 C77.93909986 25.61490784 78.46906027 26.92471813 79 28.23413086 C82.27419587 36.34469485 85.40193597 44.50929998 88.45214844 52.70654297 C91.28039799 60.21899 94.4604097 67.56947796 97.66015625 74.9296875 C101.20025095 83.0771874 104.56750657 91.18719797 107.39038086 99.609375 C109.22702577 105.01119377 111.43027 110.2067669 113.72265625 115.4296875 C117.45002846 123.93688517 120.83502827 132.54691242 124.09765625 141.2421875 C124.33145996 141.8652478 124.56526367 142.48830811 124.80615234 143.13024902 C125.15540771 144.06109314 125.15540771 144.06109314 125.51171875 145.01074219 C128.17302018 152.09944747 130.88383856 159.16018145 133.72265625 166.1796875 C136.75865015 173.68864585 139.66739879 181.23912347 142.53149414 188.81518555 C144.83975014 194.90243972 147.22666505 200.95399682 149.66015625 206.9921875 C152.46694722 213.96458609 155.17580877 220.96194184 157.79296875 228.0078125 C160.0722852 234.13914627 162.40076574 240.25188217 164.72265625 246.3671875 C165.19957488 247.6240932 165.67646266 248.88101061 166.15332031 250.13793945 C168.54580074 256.44337448 170.94115639 262.74770417 173.33984375 269.05078125 C177.9161289 281.08169605 182.47275028 293.11997313 186.97265625 305.1796875 C187.37363525 306.24654785 187.77461426 307.3134082 188.18774414 308.41259766 C190.18639896 313.79102631 192.09475105 319.19619016 193.8828125 324.6484375 C194.22449463 325.68419922 194.56617676 326.71996094 194.91821289 327.78710938 C195.5879682 330.92729967 195.64567074 332.67256042 194.53515625 335.6796875 C186.40122616 342.80934579 173.3829256 341.00636104 163.21484375 341.015625 C161.54436127 341.02206467 159.87387987 341.02879387 158.20339966 341.03579712 C154.71874373 341.04771022 151.23418654 341.05148373 147.74951172 341.05029297 C143.29994421 341.05008919 138.8510111 341.07747877 134.40159416 341.11183739 C130.95790734 341.13413652 127.5143731 341.13812972 124.07062149 341.13707352 C122.43047 341.13942156 120.79031379 341.14819987 119.15023422 341.16373825 C109.69339525 341.24501226 102.25849618 341.30108772 94.546875 335.07421875 C90.77228393 330.56475155 89.03846852 326.32749049 87.53515625 320.6796875 C84.21268349 306.21563141 84.21268349 306.21563141 75.53515625 294.6796875 C67.95740994 290.78841237 59.06004454 291.52301224 50.78515625 291.5546875 C49.48707031 291.55807129 48.18898438 291.56145508 46.8515625 291.56494141 C34.23273122 291.61714437 21.61404922 291.79142202 8.99694824 291.99908447 C6.69596881 292.03604262 4.3949398 292.0700368 2.09387207 292.10101318 C-1.17593632 292.14644524 -4.44529721 292.20441723 -7.71484375 292.265625 C-9.18658051 292.28296692 -9.18658051 292.28296692 -10.68804932 292.30065918 C-19.51027559 292.28599068 -19.51027559 292.28599068 -27.08618164 296.18554688 C-31.07695463 303.2460731 -33.46793048 310.79603753 -35.98242188 318.48046875 C-38.62712254 326.22265442 -41.63450833 333.56545159 -48.83984375 338.0546875 C-57.5220873 341.94672771 -65.55381762 341.96311866 -74.9375 341.91015625 C-76.34744728 341.90896066 -77.75739537 341.90851209 -79.16734314 341.9087677 C-82.11674016 341.90720948 -85.06601468 341.89897793 -88.01538086 341.88549805 C-91.75113035 341.86861936 -95.48674435 341.86468122 -99.2225275 341.86544323 C-102.1354852 341.86516783 -105.04841468 341.85962659 -107.96136284 341.85244179 C-109.99434444 341.84781148 -112.02733185 341.8459989 -114.06031799 341.84428406 C-122.90374709 341.80001223 -131.65140826 341.36438011 -140.46484375 340.6796875 C-139.02337223 333.14760282 -136.58127876 326.26734799 -133.83984375 319.1171875 C-130.55803015 310.41899461 -127.40698556 301.70675603 -124.52734375 292.8671875 C-121.28520789 282.93772863 -117.74059484 273.13576534 -114.11309814 263.3427124 C-111.17953217 255.41932404 -108.34228234 247.48348955 -105.73950195 239.44506836 C-103.13299666 231.49250151 -100.142684 223.68194078 -97.20898438 215.84570312 C-94.32402526 208.1018655 -91.63664249 200.31841162 -89.07836914 192.46166992 C-86.54598066 184.75803327 -83.68337684 177.19326467 -80.79833984 169.6159668 C-78.3793126 163.22531795 -76.1337932 156.8045173 -74.02734375 150.3046875 C-71.03129195 141.06634175 -67.59560579 132.02581763 -64.01586914 122.99853516 C-62.0009213 117.87419955 -60.14337157 112.77029046 -58.5703125 107.4921875 C-55.86571894 98.46472017 -52.43817904 89.70767082 -49.10107422 80.89990234 C-45.94468091 72.55403237 -42.94891411 64.23879273 -40.39941406 55.68261719 C-38.85524481 50.72094481 -36.96642728 45.89823041 -35.08984375 41.0546875 C-31.8988289 32.74629079 -28.96087943 24.43685912 -26.66845703 15.83154297 C-25.14576477 10.55056392 -22.9056261 6.08024743 -18.46484375 2.6796875 C-12.01604732 -0.43705356 -7.05086975 -0.55238541 0 0 Z M26.53515625 121.6796875 C26.15931396 122.77748535 26.15931396 122.77748535 25.77587891 123.89746094 C24.57249166 127.40884122 23.36711386 130.91953317 22.16015625 134.4296875 C21.82568985 135.40240601 21.82568985 135.40240601 21.48446655 136.39477539 C18.17346319 146.01487551 14.78884397 155.60528084 11.34765625 165.1796875 C9.73859 169.67795241 8.13498905 174.17813093 6.53515625 178.6796875 C6.16132813 179.72882324 5.7875 180.77795898 5.40234375 181.85888672 C4.37025106 184.77371324 3.35584901 187.694022 2.34765625 190.6171875 C2.04384033 191.46925781 1.74002441 192.32132812 1.42700195 193.19921875 C-0.5102124 198.89931283 -0.80084154 201.90552738 1.86328125 207.4375 C6.17538097 211.05613339 10.82336979 210.50929313 16.28515625 210.5546875 C17.40374023 210.57732666 18.52232422 210.59996582 19.67480469 210.62329102 C22.9622884 210.67416987 26.24733278 210.68328356 29.53515625 210.6796875 C30.41171875 210.68758301 31.28828125 210.69547852 32.19140625 210.70361328 C34.39232402 210.71402058 36.58523797 210.67932908 38.78515625 210.6171875 C39.9865625 210.58496094 41.18796875 210.55273438 42.42578125 210.51953125 C46.75956507 209.34897406 48.13251805 207.40202295 50.53515625 203.6796875 C51.73705261 199.05114205 51.36020402 195.9447989 49.98046875 191.40234375 C49.61719482 190.18144043 49.2539209 188.96053711 48.87963867 187.70263672 C48.47329595 186.38244036 48.06679786 185.06229182 47.66015625 183.7421875 C47.24777696 182.37035289 46.83674728 180.99811192 46.42700195 179.62548828 C45.57086521 176.76096453 44.70888035 173.89829288 43.84326172 171.03662109 C42.55578049 166.76599535 41.3066981 162.48488297 40.0703125 158.19921875 C39.87205872 157.51217361 39.67380493 156.82512848 39.46954346 156.11726379 C39.07722784 154.75660446 38.68509438 153.39589259 38.29315186 152.03512573 C37.0555979 147.73903802 35.81463085 143.44413704 34.55224609 139.15527344 C33.84888253 136.75174879 33.16280508 134.34312262 32.49072266 131.93066406 C32.15089355 130.74698242 31.81106445 129.56330078 31.4609375 128.34375 C31.012948 126.74587646 31.012948 126.74587646 30.5559082 125.11572266 C30.21906006 124.31183105 29.88221191 123.50793945 29.53515625 122.6796875 C28.54515625 122.3496875 27.55515625 122.0196875 26.53515625 121.6796875 Z " fill="#FFFFFF" transform="translate(214.46484375,124.3203125)"/>
<path d="M0 0 C1.11858398 -0.04737305 2.23716797 -0.09474609 3.38964844 -0.14355469 C8.7053187 -0.17720831 12.48998961 -0.06003716 16.5390625 3.6171875 C19.78318024 7.539778 21.1062634 11.47816366 22.25 16.375 C22.72537758 18.21678954 23.20346224 20.05788153 23.68359375 21.8984375 C23.94897949 22.93838867 24.21436523 23.97833984 24.48779297 25.04980469 C25.59955998 29.23507876 26.80975859 33.38592451 28.03515625 37.5390625 C28.49710545 39.11357259 28.95893747 40.68811707 29.4206543 42.26269531 C30.11258038 44.6213124 30.80633979 46.97928533 31.50698853 49.33532715 C32.16727356 51.56218474 32.8152972 53.79229656 33.4609375 56.0234375 C33.66062637 56.68630768 33.86031525 57.34917786 34.0660553 58.03213501 C35.56056448 63.25782586 36.49819299 68.22448428 34.25 73.3125 C30.69679634 77.84589778 27.00143589 80.07100046 21.5 81.625 C20.36046875 81.95628906 19.2209375 82.28757812 18.046875 82.62890625 C15.64327679 83.29223692 13.23699345 83.94591463 10.828125 84.58984375 C-3.88253489 88.47188076 -3.88253489 88.47188076 -14.5625 98.625 C-17.27430306 104.52436103 -16.82300921 110.58296061 -16.75 116.9375 C-16.74355469 118.08782715 -16.73710937 119.2381543 -16.73046875 120.42333984 C-16.64917319 129.51446988 -16.26935296 138.56213522 -15.5625 147.625 C-14.5725 147.295 -13.5825 146.965 -12.5625 146.625 C-10.52054251 146.41870911 -8.47377832 146.25862014 -6.42578125 146.125 C-5.20826172 146.0425 -3.99074219 145.96 -2.73632812 145.875 C-1.46208984 145.7925 -0.18785156 145.71 1.125 145.625 C10.55565645 145.05672054 10.55565645 145.05672054 19.94921875 144.08203125 C34.07052799 142.23187091 34.07052799 142.23187091 39.0625 145.4375 C43.08553265 149.14292481 44.25039908 152.18427562 44.54150391 157.53759766 C44.5923176 159.09553864 44.63722322 160.65367752 44.67797852 162.21191406 C45.05335491 176.4176838 46.5341593 190.47975416 48.06567383 204.59887695 C50.47870912 227.12609811 50.47870912 227.12609811 48.1875 232.625 C44.50083119 236.83833578 41.9838736 237.92193856 36.4375 238.625 C32.4816918 238.88854535 28.524198 239.04191953 24.5625 239.1875 C23.015625 239.25227539 23.015625 239.25227539 21.4375 239.31835938 C12.76836361 239.65383578 4.1112463 239.66890535 -4.5625 239.625 C-4.4814653 240.36017853 -4.4004306 241.09535706 -4.31694031 241.85281372 C-3.53642122 248.93648713 -2.75739894 256.0203234 -1.97987652 263.10432625 C-1.58053043 266.74232442 -1.18069346 270.38026694 -0.77954102 274.01806641 C0.88748381 289.13836717 2.52035376 304.25967594 4.01171875 319.3984375 C5.18786102 331.32485103 6.49780497 343.22776037 7.9375 355.125 C8.15335393 356.93170827 8.36909117 358.73843048 8.5847168 360.54516602 C9.8038246 370.70485642 11.05162725 380.86045845 12.625 390.97265625 C13.66051983 397.96546077 14.76708918 405.52262525 11.9375 412.125 C5.3175437 418.7449563 -4.30578381 418.3987956 -13.11328125 419.01171875 C-14.5361298 419.11869624 -15.95891443 419.22652674 -17.38163757 419.3351593 C-20.36078301 419.56007667 -23.34036777 419.77691784 -26.32055664 419.98754883 C-30.08220776 420.25372667 -33.84237528 420.53649049 -37.60240364 420.82458305 C-63.52913249 422.80491931 -63.52913249 422.80491931 -75.79296875 423.01953125 C-76.88306999 423.05671516 -76.88306999 423.05671516 -77.99519348 423.09465027 C-82.96591142 423.10027432 -85.69669567 421.65472416 -89.5625 418.625 C-90.305 418.068125 -91.0475 417.51125 -91.8125 416.9375 C-97.04899758 410.01784249 -96.19935202 398.76471498 -96.7109375 390.45703125 C-96.80860622 388.95746596 -96.90695558 387.45794488 -97.00593567 385.95846558 C-97.21507816 382.77262295 -97.42015172 379.58655626 -97.62191772 376.40023804 C-97.93876018 371.40084687 -98.26558009 366.40214289 -98.5949707 361.40356445 C-98.64988835 360.57011725 -98.704806 359.73667006 -98.76138783 358.87796688 C-98.87252354 357.19209992 -98.98370702 355.5062361 -99.09493828 353.82037544 C-99.26196046 351.28539387 -99.42817364 348.75036024 -99.59425354 346.21531677 C-100.57703022 331.24246977 -101.64008709 316.27649954 -102.75 301.3125 C-102.86767731 299.70515488 -102.86767731 299.70515488 -102.98773193 298.06533813 C-103.48713473 291.24975264 -104.00824435 284.43635059 -104.5625 277.625 C-104.64179749 276.64517151 -104.72109497 275.66534302 -104.80279541 274.65582275 C-105.0423081 271.75528195 -105.29423771 268.85611055 -105.55078125 265.95703125 C-105.65823921 264.6537513 -105.65823921 264.6537513 -105.76786804 263.32414246 C-106.30357832 257.24371526 -106.30357832 257.24371526 -108.5625 251.625 C-113.36348359 249.59381463 -116.55345836 249.62319167 -121.5625 250.625 C-128.12497288 251.28726791 -132.25121432 250.66157711 -137.5625 246.625 C-140.23798461 242.22405659 -141.17220813 238.13661285 -141.6484375 233.08203125 C-141.72565033 232.35055374 -141.80286316 231.61907623 -141.88241577 230.86543274 C-142.75784054 222.27791928 -143.39444467 213.66778251 -143.99511719 205.05737305 C-144.18854854 202.29753967 -144.39079616 199.53844457 -144.59375 196.77929688 C-146.61522134 168.7791871 -146.61522134 168.7791871 -142.5625 163.625 C-139.7421875 162.19921875 -139.7421875 162.19921875 -136.4375 161.3125 C-134.82488281 160.85423828 -134.82488281 160.85423828 -133.1796875 160.38671875 C-130.36021989 159.79298637 -127.69103073 159.37955086 -124.83642578 159.07739258 C-124.03375275 158.9914534 -123.23107971 158.90551422 -122.40408325 158.81697083 C-121.79636078 158.75362045 -121.18863831 158.69027008 -120.5625 158.625 C-120.56916183 157.741539 -120.57582367 156.858078 -120.58268738 155.94784546 C-120.64315387 147.56403382 -120.68865331 139.18029692 -120.71793652 130.79631615 C-120.7334981 126.48748743 -120.75455927 122.17884103 -120.78881836 117.87011719 C-120.82175526 113.70091624 -120.8394242 109.53188906 -120.84713173 105.3625679 C-120.85261438 103.78319188 -120.86331769 102.20382383 -120.87969017 100.62452316 C-121.11741892 76.71098067 -114.25388594 57.08858529 -97.5625 39.625 C-97.04429687 39.03203125 -96.52609375 38.4390625 -95.9921875 37.828125 C-79.71754587 19.93453996 -52.43585334 9.28672112 -29.5625 3.625 C-28.40105469 3.32464844 -27.23960937 3.02429687 -26.04296875 2.71484375 C-17.40336255 0.76980152 -8.84777954 0.20427419 0 0 Z " fill="#FFFFFF" transform="translate(510.5625,45.375)"/>
<path d="M0 0 C2.09699689 4.88317534 2.86021332 9.81498647 3.640625 15.05078125 C3.81335937 16.12521484 3.98609375 17.19964844 4.1640625 18.30664062 C4.58678526 20.94865786 4.99510934 23.59207799 5.390625 26.23828125 C14.27673579 24.0075574 22.37632696 20.21675742 30.640625 16.36328125 C40.42775193 11.80328832 50.14923833 7.69935478 60.390625 4.23828125 C61.86986336 3.72286195 63.34904306 3.20727424 64.828125 2.69140625 C66.00375 2.294375 67.179375 1.89734375 68.390625 1.48828125 C69.586875 1.0809375 70.783125 0.67359375 72.015625 0.25390625 C85.32836615 -3.75224271 97.73598254 -2.11680203 110.265625 3.53515625 C119.04618259 8.37444083 124.13125966 15.96590959 129.390625 24.23828125 C129.76316406 24.81545898 130.13570312 25.39263672 130.51953125 25.98730469 C146.07338366 50.68119768 150.21255536 82.76212342 153.390625 111.23828125 C153.46927575 111.92224189 153.5479265 112.60620253 153.62896061 113.31088924 C155.23505672 127.5268029 155.67353842 141.55809543 155.62109375 155.85546875 C155.61989678 158.05396497 155.61944988 160.25246172 155.6197052 162.45095825 C155.61815641 167.01746915 155.60998935 171.58389988 155.59643555 176.15039062 C155.57938746 181.96297266 155.57562403 187.77546769 155.57638073 193.58807182 C155.5761072 198.1128724 155.57059772 202.6376545 155.56337929 207.16244888 C155.56023013 209.30476874 155.55823415 211.44709065 155.55748558 213.58941269 C155.53130747 249.30672456 155.53130747 249.30672456 150.390625 255.23828125 C143.42337954 259.67571639 137.10178508 259.98782865 128.96875 260.28515625 C127.02594147 260.37654877 127.02594147 260.37654877 125.04388428 260.4697876 C122.30418287 260.59803211 119.56433868 260.71467272 116.82373047 260.82177734 C113.3740046 260.95662103 109.9255101 261.11057141 106.47693634 261.27199554 C98.11694015 261.66295237 89.75547683 261.97111355 81.390625 262.23828125 C80.32948486 262.27655029 79.26834473 262.31481934 78.17504883 262.35424805 C75.38747147 262.44839061 72.60112866 262.51381545 69.8125 262.56640625 C69.02893127 262.59522888 68.24536255 262.62405151 67.43804932 262.65374756 C62.24538634 262.69914583 59.3835815 261.51443886 55.390625 258.23828125 C51.93367191 254.23549346 51.09052724 251.58571412 51.20800781 246.32666016 C51.48672623 243.13928406 52.43134231 240.32670363 53.453125 237.30078125 C64.90025937 201.02204119 76.9319213 148.22872361 59.765625 112.11328125 C58.43903111 109.73893168 57.32464822 108.17230447 55.390625 106.23828125 C43.97929119 105.2226128 30.47184521 105.52078922 20.390625 111.23828125 C15.13906962 116.03970331 13.7268854 123.41494684 13.12268066 130.28485107 C13.02950059 133.57282251 13.02693881 136.84762917 13.0625 140.13671875 C13.06401062 141.35311035 13.06552124 142.56950195 13.06707764 143.82275391 C13.07479636 147.0809895 13.09613225 150.33874748 13.12472534 153.59685516 C13.14610526 156.30829803 13.15598968 159.01973638 13.16601562 161.73124123 C13.22435767 177.02932012 13.42700937 192.32180191 13.890625 207.61328125 C13.93336352 209.05924438 13.97608835 210.50520792 14.01879883 211.95117188 C14.06061192 213.34896126 14.10252097 214.74674778 14.14453125 216.14453125 C14.16461746 216.81383667 14.18470367 217.48314209 14.20539856 218.17272949 C14.28801212 220.90888056 14.37083367 223.64498089 14.46209717 226.38085938 C14.60375338 230.63173726 14.71729063 234.88141064 14.78759766 239.13409424 C14.82659084 241.03835935 14.89703022 242.94190132 14.96875 244.84521484 C15.04721026 251.14075928 14.74781272 255.25955781 10.37133789 259.97314453 C5.32820142 263.19433684 -0.2561596 263.48327469 -6.0859375 263.43701172 C-6.79747986 263.43397537 -7.50902222 263.43093903 -8.24212646 263.42781067 C-10.57310796 263.41462539 -12.90356017 263.38597495 -15.234375 263.35546875 C-16.86669586 263.33942754 -18.49902021 263.32373704 -20.13134766 263.30838013 C-23.5440765 263.2734908 -26.95657968 263.23016146 -30.36914062 263.18164062 C-34.73005273 263.1209085 -39.09069605 263.08766942 -43.45193481 263.06158257 C-46.82028371 263.03727463 -50.18823673 262.99505457 -53.55633545 262.94784927 C-55.16373249 262.92806794 -56.77121967 262.91453762 -58.37872314 262.90752792 C-60.63078211 262.89566813 -62.8811584 262.85879736 -65.1328125 262.81591797 C-67.049729 262.79354568 -67.049729 262.79354568 -69.00537109 262.77072144 C-74.10835862 262.0168278 -77.90054834 260.06102969 -81.484375 256.23828125 C-83.44578636 252.75132771 -83.73374697 249.5264528 -83.72290039 245.57119751 C-83.7228299 244.63615891 -83.7227594 243.7011203 -83.72268677 242.73774719 C-83.71752045 241.7177916 -83.71235413 240.697836 -83.70703125 239.64697266 C-83.70557098 238.56625992 -83.70411072 237.48554718 -83.7026062 236.37208557 C-83.69879588 234.01769176 -83.69267479 231.66330084 -83.68453979 229.308918 C-83.67171481 225.54280274 -83.6652412 221.77672307 -83.66040039 218.0105896 C-83.64705411 208.62408573 -83.62327839 199.23761587 -83.59899902 189.85113525 C-83.44187787 150.70198841 -83.44187787 150.70198841 -84 111.55859375 C-84.01644562 110.8278426 -84.03289124 110.09709145 -84.04983521 109.34419632 C-84.51319384 89.69439064 -87.10290341 70.26446727 -89.984375 50.84375 C-90.15625336 49.68490799 -90.15625336 49.68490799 -90.331604 48.50265503 C-90.88276015 44.80727737 -91.44622739 41.11451195 -92.03417969 37.42480469 C-94.97938294 18.67385091 -94.97938294 18.67385091 -91.921875 13.23828125 C-86.80504253 8.81291262 -81.07588104 8.7440687 -74.609375 8.11328125 C-65.78940893 7.17365515 -57.09527804 5.84851092 -48.37109375 4.265625 C-47.38239288 4.08626404 -46.39369202 3.90690308 -45.37503052 3.72210693 C-40.3799078 2.81005017 -35.38885414 1.87891041 -30.40039062 0.93115234 C-5.52720554 -3.73169117 -5.52720554 -3.73169117 0 0 Z " fill="#FFFFFF" transform="translate(1403.609375,199.76171875)"/>
<path d="M0 0 C0.70535889 0.00154083 1.41071777 0.00308167 2.13745117 0.00466919 C23.79350114 0.11668535 43.55810299 5.42282185 64.20288086 11.48158264 C68.68275035 12.79584124 73.16966131 14.08141552 77.66400146 15.3453064 C80.75921667 16.21729927 83.851244 17.10024455 86.94274902 17.98529053 C88.42154079 18.40671683 89.90142374 18.82433564 91.38244629 19.237854 C108.93314215 24.15134742 108.93314215 24.15134742 114.6875 30.625 C117.72836864 38.98738875 114.66526305 46.08420772 111.375 53.8125 C110.56251058 55.76791712 109.75387585 57.72494061 108.94921875 59.68359375 C108.55653809 60.62960449 108.16385742 61.57561523 107.75927734 62.55029297 C106.71090702 65.31330997 105.94432228 68.05075381 105.20703125 70.91015625 C104.28935198 74.03333201 103.81774704 75.23985119 101.5078125 77.63671875 C97.45822652 78.69679043 94.37058072 77.55743796 90.5625 76.1875 C89.84707031 75.95224609 89.13164063 75.71699219 88.39453125 75.47460938 C85.17375753 74.3879745 82.52788756 73.2685917 79.6875 71.375 C77.7075 72.365 77.7075 72.365 75.6875 73.375 C75.6875 75.025 75.6875 76.675 75.6875 78.375 C72.11173881 79.5669204 71.39567048 79.12329813 68.0625 77.625 C67.26585937 77.27953125 66.46921875 76.9340625 65.6484375 76.578125 C63.6875 75.375 63.6875 75.375 62.6875 72.375 C60.22606516 71.41624954 60.22606516 71.41624954 57.3125 70.8125 C53.7967601 69.99154227 51.73075769 69.40383846 48.6875 67.375 C48.6875 66.715 48.6875 66.055 48.6875 65.375 C49.3475 65.045 50.0075 64.715 50.6875 64.375 C50.6875 62.065 50.6875 59.755 50.6875 57.375 C47.27250516 57.27021269 47.27250516 57.27021269 43.9296875 57.859375 C40.97020458 58.53995295 38.09571109 58.56980334 35.0625 58.6875 C29.36262849 59.04189616 25.16148959 60.1730039 20.0078125 62.51171875 C16.30319832 63.8900348 12.57349857 64.05842715 8.6875 63.375 C7.6975 62.715 6.7075 62.055 5.6875 61.375 C5.605 62.138125 5.5225 62.90125 5.4375 63.6875 C4.6875 66.375 4.6875 66.375 2.9375 68.125 C0.50058412 69.47884216 -1.56344301 69.99318653 -4.3125 70.375 C-4.25449219 71.03886719 -4.19648437 71.70273438 -4.13671875 72.38671875 C-3.76580296 79.64607062 -3.76580296 79.64607062 -6.5625 83.375 C-9.3125 85.375 -9.3125 85.375 -11.375 86.375 C-15.87495058 88.69755514 -17.54400071 92.90173709 -19.3125 97.375 C-19.95638672 98.21998047 -19.95638672 98.21998047 -20.61328125 99.08203125 C-22.91618136 102.12980472 -24.38462437 104.13806703 -24.15625 108.0546875 C-23.75904045 109.94143288 -23.33163715 111.82206237 -22.875 113.6953125 C-21.87776473 118.44603054 -22.55744893 122.57126688 -24.4375 127.0625 C-25.51303434 129.90498362 -25.01815373 131.47397912 -24.3125 134.375 C-24.6425 135.035 -24.9725 135.695 -25.3125 136.375 C-24.72339844 136.59671875 -24.13429688 136.8184375 -23.52734375 137.046875 C-20.63202534 138.78304477 -19.58707151 140.73068973 -17.875 143.625 C-15.25470586 147.89552194 -12.72043868 151.7049122 -9.3125 155.375 C-8.85230469 155.87128906 -8.39210938 156.36757813 -7.91796875 156.87890625 C-6.27585713 158.55741399 -6.27585713 158.55741399 -3.3125 160.375 C0.1792453 160.36452718 0.1792453 160.36452718 3.6875 159.375 C10.13736201 158.24344526 10.13736201 158.24344526 13.5625 159.0625 C17.01857813 159.40810781 18.07630117 158.91284326 21.125 157.4375 C25.19227379 155.48247428 28.11118398 154.5829453 32.6875 155.375 C35.5 157.8125 35.5 157.8125 37.6875 160.375 C40.39629335 161.72939668 42.69683268 161.44001451 45.6875 161.375 C45.3575 162.365 45.0275 163.355 44.6875 164.375 C45.6775 164.045 46.6675 163.715 47.6875 163.375 C48.0175 163.705 48.3475 164.035 48.6875 164.375 C48.48846671 166.23405566 48.28580661 168.09280512 48.06347656 169.94921875 C47.14900735 178.33244622 47.65659557 183.02878198 52.8984375 189.97265625 C58.01837257 196.84767823 58.28031362 205.0768223 58.6875 213.375 C57.6975 213.705 56.7075 214.035 55.6875 214.375 C55.62691406 215.0040625 55.56632812 215.633125 55.50390625 216.28125 C55.42011719 217.1371875 55.33632812 217.993125 55.25 218.875 C55.1675 219.79667969 55.085 220.71835937 55 221.66796875 C54.6875 224.375 54.6875 224.375 53.75 228.1875 C53.07167672 233.27998669 55.88843108 237.16834691 58.12890625 241.58203125 C60.40050076 246.57039362 61.00231963 251.88292011 61.66113281 257.28271484 C62.21195786 261.5296693 62.84872254 264.15674586 65.6875 267.375 C66.6015625 269.375 66.6015625 269.375 67.3125 271.375 C67.55226563 272.035 67.79203125 272.695 68.0390625 273.375 C69.3857233 277.52855621 69.7658433 280.06162681 68.6875 284.375 C69.6775 284.705 70.6675 285.035 71.6875 285.375 C71.6875 286.035 71.6875 286.695 71.6875 287.375 C65.41866129 289.59742728 59.55197426 289.72219657 52.9375 289.6875 C51.83003418 289.68258545 50.72256836 289.6776709 49.58154297 289.67260742 C33.8067835 289.45082818 18.94706767 286.37228668 3.83789062 281.99267578 C1.93583881 281.44633256 0.02320617 280.93712357 -1.890625 280.43359375 C-21.10619336 274.84002077 -39.84472525 263.92622424 -55.3125 251.375 C-56.19035156 250.715 -57.06820312 250.055 -57.97265625 249.375 C-64.85819771 244.13718717 -70.83617974 238.04015257 -76.86010742 231.85742188 C-78.19797202 230.49189593 -79.55517403 229.14538711 -80.9140625 227.80078125 C-102.78231354 205.6832179 -116.85780414 175.81449158 -122.3125 145.375 C-122.44527344 144.63507813 -122.57804688 143.89515625 -122.71484375 143.1328125 C-127.44009517 109.86186418 -116.15688265 76.83655886 -96.3125 50.375 C-93.55571427 46.89406028 -90.68474001 43.51812039 -87.7578125 40.1796875 C-86.22592958 38.42267162 -84.73591183 36.62723722 -83.3125 34.78125 C-79.59113466 30.30398233 -74.88565289 26.94082326 -70.3125 23.375 C-69.58546875 22.78589844 -68.8584375 22.19679687 -68.109375 21.58984375 C-56.29488331 12.60148047 -40.79380623 5.64841566 -26.3125 2.375 C-25.18726929 2.11662354 -25.18726929 2.11662354 -24.03930664 1.85302734 C-16.04312476 0.19027163 -8.14527277 -0.02704992 0 0 Z M-16.3125 82.375 C-16.6425 83.695 -16.9725 85.015 -17.3125 86.375 C-16.3225 85.385 -15.3325 84.395 -14.3125 83.375 C-14.9725 83.045 -15.6325 82.715 -16.3125 82.375 Z M-25.3125 84.375 C-23.9925 85.365 -22.6725 86.355 -21.3125 87.375 C-20.6525 87.045 -19.9925 86.715 -19.3125 86.375 C-19.9725 85.715 -20.6325 85.055 -21.3125 84.375 C-22.6325 84.375 -23.9525 84.375 -25.3125 84.375 Z " fill="#FFFFFF" transform="translate(1013.3125,176.625)"/>
<path d="M0 0 C0.97710938 -0.03996094 1.95421875 -0.07992187 2.9609375 -0.12109375 C5.625 0.4375 5.625 0.4375 7.87109375 2.484375 C9.93161156 5.95375466 10.70432596 9.19626077 11.3125 13.125 C11.43278564 13.82818359 11.55307129 14.53136719 11.67700195 15.25585938 C12.57005923 20.62774352 13.21337743 26.00741568 13.625 31.4375 C14.70136719 30.91800781 15.77773438 30.39851563 16.88671875 29.86328125 C24.43536922 26.24852028 31.93621735 22.85761059 39.8046875 19.98828125 C42.99826315 18.75282977 46.05422693 17.29081306 49.1328125 15.79296875 C61.28539301 9.90441397 72.1012504 5.47992674 85.625 4.4375 C86.64207031 4.35113281 87.65914062 4.26476562 88.70703125 4.17578125 C94.05511168 3.94325601 98.10333664 4.48457699 102.625 7.4375 C105.84483038 13.98500421 106.01536938 19.6839983 105.86328125 26.890625 C105.85097977 28.01325745 105.83867828 29.13588989 105.82600403 30.2925415 C105.77804179 34.00810314 105.70392631 37.72247355 105.625 41.4375 C105.6006488 42.73212158 105.57629761 44.02674316 105.5512085 45.3605957 C105.39529425 53.57062681 105.1825246 61.77808283 104.93530273 69.98583984 C104.82899444 73.54006311 104.73975208 77.09452513 104.65369701 80.64928818 C104.58325712 83.43089086 104.50033251 86.21202125 104.41399574 88.99317169 C104.35692113 90.93496203 104.31319648 92.87713026 104.26982117 94.8192749 C104.23000626 95.99620911 104.19019135 97.17314331 104.14916992 98.38574219 C104.12030197 99.41318542 104.09143402 100.44062866 104.06169128 101.49920654 C103.40854749 105.89390875 101.92496887 109.15519418 98.7495575 112.28746033 C96.19719346 113.66907504 94.52720483 113.82126066 91.63208008 113.83813477 C90.14451958 113.85814293 90.14451958 113.85814293 88.62690735 113.8785553 C87.56022324 113.87867111 86.49353912 113.87878693 85.39453125 113.87890625 C83.73704109 113.89871803 83.73704109 113.89871803 82.04606628 113.91893005 C78.50985234 113.95984204 74.97389702 113.98148483 71.4375 114 C67.9190368 114.02386298 64.40081457 114.05215769 60.88249207 114.09178162 C58.69435486 114.11593705 56.50609136 114.13095895 54.31782532 114.13539124 C44.69675629 114.2326709 36.27462789 115.2102519 28.625 121.4375 C22.20057612 128.70724281 22.32304721 138.75309184 22.39453125 147.99609375 C22.39462692 148.99769028 22.3947226 149.9992868 22.39482117 151.03123474 C22.39854684 154.31261048 22.41755461 157.59368584 22.4375 160.875 C22.44439506 163.18570852 22.45089894 165.49641824 22.45703125 167.80712891 C22.51757282 183.97882666 22.78266693 200.14460696 23.125 216.3125 C23.14740753 217.37743683 23.16981506 218.44237366 23.19290161 219.5395813 C23.23725713 221.64748705 23.28164438 223.75539213 23.32606506 225.86329651 C23.78532621 247.7323115 23.78532621 247.7323115 23.875 258.3125 C23.89626953 259.50601074 23.91753906 260.69952148 23.93945312 261.92919922 C23.94396484 263.00186035 23.94847656 264.07452148 23.953125 265.1796875 C23.9624707 266.0857373 23.97181641 266.99178711 23.98144531 267.92529297 C23.36860012 272.24459227 21.30944321 274.82150111 18.125 277.6875 C13.90581891 280.64092677 10.58161288 280.56797177 5.54248047 280.58276367 C4.82498123 280.58612228 4.10748199 280.5894809 3.36824036 280.59294128 C0.99287183 280.60244941 -1.38242611 280.60439477 -3.7578125 280.60546875 C-5.41348296 280.60868303 -7.06915313 280.61204723 -8.724823 280.61555481 C-12.20001889 280.62154686 -15.67518993 280.62339479 -19.15039062 280.62280273 C-23.58529257 280.62270147 -28.02003311 280.63631581 -32.45489693 280.65357494 C-35.87802855 280.66474505 -39.30112189 280.66672036 -42.72426987 280.66619301 C-44.35799589 280.66736704 -45.99172309 280.67175614 -47.62543106 280.67952538 C-67.5656708 280.7654234 -67.5656708 280.7654234 -74.75 276.375 C-81.20196301 269.15494615 -80.79260521 260.28850524 -80.69970703 251.05615234 C-80.69853882 249.7391333 -80.69737061 248.42211426 -80.69616699 247.06518555 C-80.69347391 244.2120232 -80.6813166 241.35911863 -80.66162491 238.50602341 C-80.63028703 233.96012026 -80.62027723 229.41431256 -80.61276245 224.86831665 C-80.59829062 217.64166141 -80.56941183 210.41514576 -80.53451526 203.18856299 C-80.47286651 190.3433768 -80.43442951 177.49811613 -80.40292251 164.65282404 C-80.39135561 160.17021815 -80.37322391 155.68770469 -80.34954178 151.20514727 C-80.27529126 136.60430894 -80.35279133 122.02513232 -80.82470703 107.43066406 C-80.86566561 106.15776709 -80.90662418 104.88487011 -80.94882393 103.5734005 C-81.26944134 94.58545039 -81.91605759 85.72934802 -83.125 76.8125 C-83.29779292 75.45490925 -83.46997465 74.0972406 -83.64160156 72.73950195 C-85.01221634 62.14286077 -86.77723502 51.61640893 -88.79980469 41.12451172 C-92.21351216 22.84215215 -92.21351216 22.84215215 -88.6875 16.3125 C-84.10122498 12.59389864 -78.97973073 11.90008539 -73.26953125 11.0703125 C-72.08633804 10.89092636 -72.08633804 10.89092636 -70.87924194 10.70791626 C-68.31612672 10.3205711 -65.75184904 9.94158209 -63.1875 9.5625 C-61.42023366 9.29652967 -59.65306275 9.02992451 -57.88598633 8.76269531 C-54.36095722 8.23039572 -50.83550619 7.70106439 -47.30957031 7.17480469 C-40.72523458 6.19193065 -34.1434655 5.19270011 -27.5625 4.1875 C-26.55872314 4.03684082 -25.55494629 3.88618164 -24.52075195 3.73095703 C-20.01055894 3.04468205 -15.54080121 2.28642404 -11.07421875 1.35546875 C-7.36537178 0.59790139 -3.79593854 0.08650262 0 0 Z " fill="#FFFFFF" transform="translate(659.375,185.5625)"/>
<path d="M0 0 C30.58938941 -0.71968037 65.23471817 2.0264993 88.87451172 23.33154297 C92.36411548 26.67295808 95.24810486 29.91852197 97.72607422 34.06201172 C98.15017578 34.76068359 98.57427734 35.45935547 99.01123047 36.17919922 C108.12590049 52.73612274 109.46757045 71.3997546 110.23779297 89.88232422 C110.28024643 90.88753113 110.32269989 91.89273804 110.36643982 92.92840576 C111.61534082 123.26435891 111.87901349 153.63661361 112.01217651 183.99523926 C112.02773743 187.40918427 112.05256071 190.82287121 112.0852356 194.23669434 C112.12345394 198.30106415 112.14168819 202.36505825 112.1450882 206.42960167 C112.14955476 207.94275197 112.16085242 209.45589949 112.17940521 210.96894264 C112.20375402 213.06038225 112.20292829 215.15040534 112.19604492 217.24194336 C112.20191116 218.41922501 112.2077774 219.59650665 112.21382141 220.8094635 C111.60843244 224.84650739 110.35306797 226.95680176 107.72607422 230.06201172 C103.9002049 232.28962908 100.38149757 232.32427732 96.01147461 232.35253906 C95.35713943 232.35925629 94.70280426 232.36597351 94.02864075 232.37289429 C91.87692565 232.39181046 89.72552341 232.39579492 87.57373047 232.39794922 C86.07067234 232.40438071 84.56761546 232.41110933 83.06455994 232.41812134 C79.91825458 232.43007747 76.77205889 232.4338038 73.62573242 232.43261719 C69.60289696 232.43241389 65.58076704 232.45973424 61.55809879 232.49416161 C58.45504045 232.51644468 55.35215168 232.52045434 52.24902153 232.51939774 C50.76630658 232.52175088 49.28358676 232.53055831 47.800951 232.54606247 C45.72349277 232.56575635 43.64755333 232.55987369 41.57006836 232.54785156 C40.39046036 232.5507016 39.21085236 232.55355164 37.99549866 232.55648804 C33.12134778 231.81930869 29.93180405 229.60035668 26.91357422 225.74951172 C24.43971434 220.1507762 24.61020571 214.15515286 24.66357422 208.12451172 C24.66808594 207.44066406 24.67259766 206.75681641 24.67724609 206.05224609 C24.68887861 204.38879568 24.70680727 202.72539122 24.72607422 201.06201172 C24.13181641 201.69107422 23.53755859 202.32013672 22.92529297 202.96826172 C5.89213887 220.55770857 -15.65631431 230.99982706 -40.36767578 231.46044922 C-43.17044654 231.48519729 -45.97126268 231.46665519 -48.77392578 231.43701172 C-49.50440125 231.43435303 -50.23487671 231.43169434 -50.98748779 231.42895508 C-63.91586054 231.37402613 -76.5202914 230.24389622 -89.27392578 228.06201172 C-89.43798828 225.16748047 -89.43798828 225.16748047 -89.27392578 222.06201172 C-87.86732037 221.15776538 -86.4524517 220.26350154 -84.99658203 219.44091797 C-80.11792209 215.53577747 -77.61609566 208.37939027 -75.77392578 202.56201172 C-74.27392578 199.06201172 -74.27392578 199.06201172 -71.08642578 197.06201172 C-70.15830078 196.73201172 -69.23017578 196.40201172 -68.27392578 196.06201172 C-68.12417339 189.0054992 -68.12417339 189.0054992 -69.27392578 182.06201172 C-68.71705078 181.85576172 -68.16017578 181.64951172 -67.58642578 181.43701172 C-64.97013244 179.88137784 -63.50065922 177.95268491 -61.63720703 175.58154297 C-59.53742344 173.2410965 -56.90232924 171.75587173 -54.27392578 170.06201172 C-51.90601972 166.51015262 -51.79395864 164.34989597 -51.46142578 160.12451172 C-51.35185547 158.89861328 -51.24228516 157.67271484 -51.12939453 156.40966797 C-51.29312177 152.61739101 -52.05356637 151.94847895 -54.27392578 149.06201172 C-54.56689453 145.82763672 -54.56689453 145.82763672 -54.46142578 142.31201172 C-54.42082031 140.55630859 -54.42082031 140.55630859 -54.37939453 138.76513672 C-54.34458984 137.87310547 -54.30978516 136.98107422 -54.27392578 136.06201172 C-53.61392578 136.06201172 -52.95392578 136.06201172 -52.27392578 136.06201172 C-52.61617187 134.71623047 -52.61617187 134.71623047 -52.96533203 133.34326172 C-53.27392578 130.06201172 -53.27392578 130.06201172 -52.11376953 127.78076172 C-51.48599609 127.04857422 -50.85822266 126.31638672 -50.21142578 125.56201172 C-49.10927734 124.26070312 -49.10927734 124.26070312 -47.98486328 122.93310547 C-46.01243876 120.84415443 -44.05242539 118.90391292 -41.93798828 116.97216797 C-32.70477387 108.45221653 -23.02246781 97.16732906 -22.04736328 84.00341797 C-22.15951172 83.04242188 -22.15951172 83.04242188 -22.27392578 82.06201172 C-22.87978516 82.19478516 -23.48564453 82.32755859 -24.10986328 82.46435547 C-30.15120946 83.73768536 -36.1213047 84.56456576 -42.27392578 85.06201172 C-42.67611328 84.10101563 -42.67611328 84.10101563 -43.08642578 83.12060547 C-45.75660574 77.22688588 -48.43823256 73.7811253 -53.48095703 69.78857422 C-56.39674117 66.98078208 -57.06541385 63.87836517 -58.27392578 60.06201172 C-59.02996094 59.3253125 -59.02996094 59.3253125 -59.80126953 58.57373047 C-61.61216177 56.71480395 -61.70187828 55.66773977 -62.02392578 53.12451172 C-63.05591445 47.72641715 -65.65021194 43.58666451 -68.52001953 38.95654297 C-70.27529665 36.05974932 -71.76008617 33.08969094 -73.27392578 30.06201172 C-74.07830078 29.10294922 -74.07830078 29.10294922 -74.89892578 28.12451172 C-76.81647963 25.24818095 -76.85753991 22.45202122 -77.27392578 19.06201172 C-52.84330961 7.84248689 -27.02438315 0.73697588 0 0 Z M-28.27392578 157.06201172 C-28.60392578 158.71201172 -28.93392578 160.36201172 -29.27392578 162.06201172 C-30.26392578 162.39201172 -31.25392578 162.72201172 -32.27392578 163.06201172 C-33.03705078 163.82513672 -33.80017578 164.58826172 -34.58642578 165.37451172 C-37.27392578 168.06201172 -37.27392578 168.06201172 -40.52392578 170.06201172 C-43.41000491 171.78516689 -43.41000491 171.78516689 -44.21142578 174.43701172 C-44.37533798 177.14417714 -44.37533798 177.14417714 -43.64892578 180.06201172 C-43.27392578 183.06201172 -43.27392578 183.06201172 -44.77392578 185.37451172 C-46.95553274 189.28322418 -46.33615019 192.79714079 -45.27392578 197.06201172 C-44.61392578 198.05201172 -43.95392578 199.04201172 -43.27392578 200.06201172 C-39.86256102 200.12360591 -39.86256102 200.12360591 -36.27392578 199.06201172 C-34.78790152 196.60435622 -34.10779451 194.77317655 -33.27392578 192.06201172 C-32.42279806 189.72756816 -31.5683493 187.394334 -30.71142578 185.06201172 C-29.42105657 181.46023348 -28.20085112 177.87409298 -27.18408203 174.18701172 C-26.27392578 171.06201172 -26.27392578 171.06201172 -25.27392578 170.06201172 C-25.03545675 167.79977592 -25.03545675 167.79977592 -25.02392578 165.18701172 C-24.99814453 164.30271484 -24.97236328 163.41841797 -24.94580078 162.50732422 C-25.32889395 159.652368 -26.05930461 158.82205275 -28.27392578 157.06201172 Z " fill="#FFFFFF" transform="translate(1198.27392578125,233.93798828125)"/>
<path d="M0 0 C13.44537659 -0.15077437 26.85431737 -0.01697312 40.2901001 0.53710938 C41.47152588 0.58424072 42.65295166 0.63137207 43.87017822 0.67993164 C46.73939387 0.79464219 49.6085256 0.91111741 52.4776001 1.02929688 C52.40243164 2.23069305 52.40243164 2.23069305 52.32574463 3.45635986 C51.63383008 14.72683986 51.03473213 26.00138517 50.4776001 37.27929688 C50.42964924 38.24481979 50.38169838 39.21034271 50.33229446 40.2051239 C48.76174262 72.27662645 48.30262514 104.30089441 48.31744385 136.40429688 C48.31796147 137.78419878 48.31796147 137.78419878 48.31848955 139.1919775 C48.32757907 157.90978051 48.38311034 176.62731605 48.49160284 195.34480619 C48.53317359 202.53038566 48.56624769 209.71597347 48.59397417 216.90161943 C48.61446185 221.92855925 48.64929009 226.95512655 48.69558322 231.98189187 C48.72109286 235.07474261 48.73412905 238.16755706 48.7438755 241.26049376 C48.75096235 242.68007302 48.76325299 244.09963813 48.78134918 245.51911974 C48.96956183 260.67074988 48.96956183 260.67074988 45.4776001 267.02929688 C39.88970838 271.7849494 35.38975548 272.15366327 28.24981689 272.17456055 C27.52895905 272.17791916 26.8081012 272.18127777 26.06539917 272.18473816 C23.68585478 272.19422503 21.30638096 272.19619025 18.92681885 272.19726562 C17.26778637 272.20048019 15.60875418 272.20384442 13.94972229 272.20735168 C10.47211043 272.21333758 6.99452339 272.21519218 3.51690674 272.21459961 C-0.92825213 272.21449811 -5.37325082 272.22813983 -9.81837177 272.24537182 C-13.24570947 272.25651928 -16.67300881 272.25851796 -20.10036278 272.25798988 C-21.7385329 272.25916626 -23.37670414 272.26356876 -25.01485634 272.27132225 C-27.31216087 272.28117607 -29.60912244 272.27822286 -31.90643311 272.2722168 C-33.86356987 272.27435432 -33.86356987 272.27435432 -35.86024475 272.27653503 C-41.10520845 271.92243885 -45.1673475 271.13797611 -49.2723999 267.77929688 C-53.12417743 263.07156878 -54.90071121 259.12395428 -54.87643433 253.02557373 C-54.88045258 251.25364655 -54.88045258 251.25364655 -54.884552 249.44592285 C-54.87219513 248.16213745 -54.85983826 246.87835205 -54.84710693 245.55566406 C-54.84462041 244.17779715 -54.84347661 242.79992726 -54.84356689 241.42205811 C-54.84086279 238.45266326 -54.82863943 235.48351392 -54.80902481 232.51418304 C-54.77769433 227.76167209 -54.76767458 223.00925248 -54.76016235 218.25665283 C-54.74564962 210.67358558 -54.71676432 203.09065008 -54.68191516 195.50765157 C-54.61334468 180.51010227 -54.57113734 165.51244686 -54.53594947 150.51478529 C-54.53212248 148.88807635 -54.52818065 147.26136768 -54.52412438 145.63465929 C-54.47215036 124.53569028 -54.5105749 103.44573694 -54.91693115 82.34960938 C-54.93441029 81.35960686 -54.95188942 80.36960434 -54.96989822 79.34960175 C-55.24027528 64.70460169 -56.31845759 50.26211451 -57.8739624 35.70117188 C-58.50368448 29.59932196 -58.88173088 23.53799745 -58.9598999 17.40429688 C-58.98189453 16.62199707 -59.00388916 15.83969727 -59.02655029 15.03369141 C-59.00358111 8.85149974 -56.8018675 5.30876447 -52.5223999 1.02929688 C-50.57884216 0.75082397 -50.57884216 0.75082397 -48.16571045 0.71044922 C-47.25737961 0.6905896 -46.34904877 0.67072998 -45.41319275 0.65026855 C-43.92617607 0.63292664 -43.92617607 0.63292664 -42.40911865 0.61523438 C-41.3803511 0.59577759 -40.35158356 0.5763208 -39.29164124 0.55627441 C-35.93114582 0.49559339 -32.57063736 0.44943099 -29.2098999 0.40429688 C-26.90325127 0.36719403 -24.59661055 0.32959546 -22.28997803 0.29150391 C-14.8601943 0.17382739 -7.43019734 0.08629939 0 0 Z " fill="#FFFFFF" transform="translate(835.5223999023438,193.970703125)"/>
<path d="M0 0 C10.27789152 8.23824793 18.80581176 18.74180177 21.51953125 32.01953125 C22.74635242 47.09843254 21.96478091 61.37451734 12.49609375 73.8046875 C2.82376815 84.64304445 -10.41105222 90.11921802 -24.73876953 91.18798828 C-43.35623525 92.10448144 -61.1979162 88.62327265 -76.04296875 76.70703125 C-85.72816362 67.23563759 -90.55273529 54.93104503 -90.98046875 41.51953125 C-90.60496344 29.74562291 -86.96577385 19.21945057 -79.48046875 10.01953125 C-78.82046875 10.01953125 -78.16046875 10.01953125 -77.48046875 10.01953125 C-77.25617187 9.44203125 -77.031875 8.86453125 -76.80078125 8.26953125 C-71.88828858 -0.10205389 -59.71588125 -5.25455827 -50.66796875 -7.73046875 C-33.81829185 -11.26032005 -14.38355125 -10.24315868 0 0 Z " fill="#FFFFFF" transform="translate(867.48046875,83.98046875)"/>
<path d="M0 0 C2.77245014 -0.13487595 5.53837088 -0.23400807 8.3125 -0.3125 C9.49102539 -0.3753418 9.49102539 -0.3753418 10.69335938 -0.43945312 C11.45068359 -0.45556641 12.20800781 -0.47167969 12.98828125 -0.48828125 C13.68477783 -0.51446533 14.38127441 -0.54064941 15.09887695 -0.56762695 C17 0 17 0 18.63842773 2.21142578 C19.91549813 4.82693557 20.91589109 7.33419081 21.796875 10.10546875 C22.11269531 11.08128906 22.42851563 12.05710937 22.75390625 13.0625 C23.24697266 14.609375 23.24697266 14.609375 23.75 16.1875 C27.14127735 26.61536032 30.89290492 36.83493967 35 47 C35.26627197 46.24605957 35.53254395 45.49211914 35.80688477 44.71533203 C44.79875488 19.29351374 44.79875488 19.29351374 49.0625 8.3125 C49.34875244 7.57209473 49.63500488 6.83168945 49.92993164 6.06884766 C51.86996678 1.13003322 51.86996678 1.13003322 53 0 C55.65822657 -0.12658222 58.27887424 -0.18520214 60.9375 -0.1875 C62.0502832 -0.20586914 62.0502832 -0.20586914 63.18554688 -0.22460938 C65.12513629 -0.22988478 67.0642371 -0.12188902 69 0 C71.64158893 2.64158893 71.46800135 4.25123269 71.86962891 7.94335938 C72.00962311 9.19225952 72.14961731 10.44115967 72.29385376 11.72790527 C72.43843256 13.09981746 72.58265981 14.47176673 72.7265625 15.84375 C72.8800324 17.25189804 73.03412488 18.65997835 73.18881226 20.06799316 C73.51192572 23.02653474 73.82900273 25.98564187 74.14160156 28.9453125 C74.53992427 32.71417466 74.95057369 36.4815599 75.36556435 40.24861908 C75.68548221 43.1617795 75.99989254 46.07551405 76.312603 48.98945618 C76.46191522 50.3768865 76.61260243 51.76416963 76.76475906 53.15129089 C78.54956332 69.50518125 78.54956332 69.50518125 78 76 C77 77 77 77 73.83984375 77.09765625 C72.55207031 77.08605469 71.26429688 77.07445312 69.9375 77.0625 C68.00197266 77.04896484 68.00197266 77.04896484 66.02734375 77.03515625 C65.02832031 77.02355469 64.02929688 77.01195312 63 77 C60.68685938 70.21143514 60.10393568 63.29462288 59.375 56.1875 C59.17390625 54.35735352 59.17390625 54.35735352 58.96875 52.49023438 C58.24641447 45.6317322 57.80259091 38.89635708 58 32 C57.34 32 56.68 32 56 32 C55.73832031 33.28390625 55.47664062 34.5678125 55.20703125 35.890625 C54.07147988 40.99113492 52.45397206 45.83786727 50.6875 50.75 C50.37989746 51.6160083 50.07229492 52.4820166 49.75537109 53.37426758 C42.6074419 73.3925581 42.6074419 73.3925581 41 75 C39.04830439 75.2039085 37.08636576 75.3138543 35.125 75.375 C34.05507813 75.42398438 32.98515625 75.47296875 31.8828125 75.5234375 C29 75 29 75 27.32421875 73.0546875 C25.57239621 69.01361013 24.09505871 64.92213613 22.6875 60.75 C22.07579943 58.96865431 21.46381478 57.18740614 20.8515625 55.40625 C20.54508789 54.5090625 20.23861328 53.611875 19.92285156 52.6875 C18.4959927 48.53224542 17.02984177 44.3910954 15.5625 40.25 C15.06371857 38.83857118 14.56501214 37.42711584 14.06640625 36.015625 C13.71449219 35.02046875 13.36257813 34.0253125 13 33 C12.44587754 37.21310201 11.8946625 41.42657203 11.34594727 45.64038086 C11.15953928 47.06886651 10.97238607 48.49725514 10.78442383 49.92553711 C9.77557162 57.5955042 8.8112359 65.24893855 8.24389648 72.9675293 C8 75 8 75 7 77 C4.70858714 77.05384521 2.41681812 77.09272087 0.125 77.125 C-1.15117188 77.14820313 -2.42734375 77.17140625 -3.7421875 77.1953125 C-7 77 -7 77 -9 75 C-9.02366638 72.41096497 -9.02366638 72.41096497 -8.70874023 69.17504883 C-8.59883759 68.00108551 -8.48893494 66.82712219 -8.3757019 65.61758423 C-8.25172028 64.42378143 -8.12773865 63.22997864 -8 62 C-7.89559601 60.94549652 -7.79119202 59.89099304 -7.68362427 58.80453491 C-7.35795925 55.6009102 -7.01230001 52.40003727 -6.66015625 49.19921875 C-6.53313828 48.03800003 -6.4061203 46.87678131 -6.2752533 45.68037415 C-6.00832793 43.24927034 -5.74021365 40.8182968 -5.47094727 38.38745117 C-5.06168397 34.68010793 -4.6606386 30.97193054 -4.25976562 27.26367188 C-3.99789963 24.88796525 -3.73554681 22.51231222 -3.47265625 20.13671875 C-3.3548732 19.03760666 -3.23709015 17.93849457 -3.11573792 16.80607605 C-2.46799927 11.04387014 -1.56458679 5.58564637 0 0 Z " fill="#FFFFFF" transform="translate(837,525)"/>
<path d="M0 0 C4.26947176 0.17661228 6.74276261 0.86307797 9.69360352 4.03637695 C12.63997454 7.82506758 15.04363224 11.92545495 17.43188477 16.0793457 C18.65384241 18.00061646 19.88208842 19.91791704 21.11938477 21.8293457 C21.65821289 22.69817383 22.19704102 23.56700195 22.75219727 24.4621582 C25.12235051 28.15518767 27.71881651 31.6647891 30.34204102 35.1809082 C32.14101125 37.6759286 33.86070623 40.1990472 35.5625 42.76049805 C36.10051743 43.56965668 36.63853485 44.37881531 37.19285583 45.2124939 C37.60173538 45.82855499 38.01061493 46.44461609 38.43188477 47.0793457 C38.44219223 46.51780289 38.45249969 45.95626007 38.46311951 45.37770081 C38.57096162 39.55441105 38.68557684 33.73128306 38.80419922 27.90820312 C38.84761984 25.73245617 38.88928947 23.55667356 38.92919922 21.38085938 C38.98672978 18.26071402 39.05047299 15.14074938 39.11547852 12.02075195 C39.13219101 11.04159317 39.1489035 10.06243439 39.16612244 9.05360413 C39.18606766 8.15274582 39.20601288 7.25188751 39.2265625 6.32373047 C39.24210678 5.52653091 39.25765106 4.72933136 39.27366638 3.90797424 C39.43188477 2.0793457 39.43188477 2.0793457 40.43188477 1.0793457 C42.76348532 0.98025268 45.09818418 0.94964066 47.43188477 0.9543457 C48.71063477 0.95176758 49.98938477 0.94918945 51.30688477 0.9465332 C54.43188477 1.0793457 54.43188477 1.0793457 55.43188477 2.0793457 C55.53212032 4.41648895 55.56807679 6.72408895 55.5612793 9.06176758 C55.56390778 10.15685387 55.56390778 10.15685387 55.56658936 11.27406311 C55.57100776 13.69876449 55.56806994 16.12339352 55.56469727 18.5480957 C55.56537031 20.22578953 55.56634034 21.90348326 55.56759644 23.58117676 C55.56907339 27.10189744 55.56691893 30.6225928 55.56225586 34.14331055 C55.55655857 38.66645066 55.55983759 43.18953144 55.56582832 47.71266937 C55.569434 51.17836966 55.56829532 54.64405577 55.56570053 58.10975647 C55.56503128 59.77799995 55.56585962 61.4462447 55.56818008 63.11448669 C55.57070672 65.44200064 55.56686589 67.76941718 55.5612793 70.09692383 C55.56330353 70.7930629 55.56532776 71.48920197 55.56741333 72.20643616 C55.5461475 76.96508297 55.5461475 76.96508297 54.43188477 78.0793457 C49.18217331 78.94169986 44.62791269 79.09014116 39.43188477 78.0793457 C35.39137655 74.88822468 33.14729233 70.95369731 30.61938477 66.5168457 C29.90807063 65.35996251 29.1914681 64.20631495 28.46972656 63.0559082 C27.05429849 60.78571528 25.67421919 58.50384759 24.3059082 56.20385742 C21.92257593 52.23018801 19.35775472 48.40355137 16.74438477 44.5793457 C15.30632313 42.41305176 13.86883355 40.24637798 12.43188477 38.0793457 C11.38692992 36.51073716 10.34158137 34.94239085 9.29589844 33.37426758 C8.75865646 32.56856323 8.22141449 31.76285889 7.66789246 30.93273926 C7.26000992 30.32111938 6.85212738 29.70949951 6.43188477 29.0793457 C6.41642357 29.95591324 6.41642357 29.95591324 6.40065002 30.85018921 C6.29270635 36.91692573 6.17809871 42.98351006 6.05957031 49.05004883 C6.01618246 51.31596705 5.97451028 53.58191878 5.93457031 55.84790039 C5.87696091 59.09963089 5.81323974 62.35119207 5.74829102 65.6027832 C5.73157852 66.62052826 5.71486603 67.63827332 5.69764709 68.68685913 C5.67770187 69.62768341 5.65775665 70.56850769 5.63720703 71.5378418 C5.61389061 72.78360489 5.61389061 72.78360489 5.59010315 74.05453491 C5.43188477 76.0793457 5.43188477 76.0793457 4.43188477 78.0793457 C2.11944685 78.10619982 -0.19307794 78.12567411 -2.50561523 78.1418457 C-3.79338867 78.15344727 -5.08116211 78.16504883 -6.40795898 78.17700195 C-9.56811523 78.0793457 -9.56811523 78.0793457 -10.56811523 77.0793457 C-10.66835078 74.74220245 -10.70430726 72.43460245 -10.69750977 70.09692383 C-10.69926208 69.3668663 -10.7010144 68.63680878 -10.70281982 67.8846283 C-10.70723823 65.45992692 -10.7043004 63.03529788 -10.70092773 60.6105957 C-10.70160078 58.93290187 -10.70257081 57.25520814 -10.7038269 55.57751465 C-10.70530386 52.05679397 -10.7031494 48.53609861 -10.69848633 45.01538086 C-10.69278904 40.49224075 -10.69606805 35.96915997 -10.70205879 31.44602203 C-10.70566447 27.98032175 -10.70452579 24.51463564 -10.701931 21.04893494 C-10.70126175 19.38069146 -10.70209009 17.71244671 -10.70441055 16.04420471 C-10.70693719 13.71669077 -10.70309636 11.38927423 -10.69750977 9.06176758 C-10.699534 8.36562851 -10.70155823 7.66948944 -10.7036438 6.95225525 C-10.6702026 -0.53087009 -6.54290521 0.23671871 0 0 Z " fill="#FFFFFF" transform="translate(1395.568115234375,523.920654296875)"/>
<path d="M0 0 C1.26788612 -0.01210762 1.26788612 -0.01210762 2.56138611 -0.02445984 C4.357879 -0.03832363 6.15439849 -0.04903546 7.95092773 -0.05688477 C10.67939669 -0.07399644 13.40662183 -0.11784782 16.13476562 -0.16210938 C17.88150151 -0.17224506 19.62824771 -0.18075841 21.375 -0.1875 C22.18365005 -0.20500809 22.99230011 -0.22251617 23.82545471 -0.24055481 C30.44556756 -0.21562797 35.66796047 1.61110215 40.67578125 6.01953125 C41.12179687 6.58671875 41.5678125 7.15390625 42.02734375 7.73828125 C42.48882813 8.30546875 42.9503125 8.87265625 43.42578125 9.45703125 C47.52025921 15.40315211 47.37588525 21.16271846 46.65234375 28.23828125 C45.61435386 31.27552994 44.37146564 33.49843074 42.65234375 36.23828125 C43.07386719 36.70878906 43.49539063 37.17929687 43.9296875 37.6640625 C44.47753906 38.28667969 45.02539062 38.90929687 45.58984375 39.55078125 C46.13511719 40.16566406 46.68039062 40.78054688 47.2421875 41.4140625 C51.22734498 46.56937703 50.02154481 54.08725231 49.65234375 60.23828125 C48.52756064 66.13049367 44.35231046 70.72200986 39.65234375 74.23828125 C33.95221958 77.20634977 29.4047666 77.65811344 23.03515625 77.56640625 C22.13739471 77.56453308 21.23963318 77.56265991 20.31466675 77.56072998 C18.43044278 77.55404215 16.54623192 77.54019332 14.66210938 77.51953125 C11.76549509 77.4881529 8.86942428 77.47853403 5.97265625 77.47265625 C4.13931622 77.46349445 2.30598175 77.45312132 0.47265625 77.44140625 C-0.39704803 77.43715637 -1.26675232 77.43290649 -2.16281128 77.42852783 C-8.23044451 77.35549299 -8.23044451 77.35549299 -9.34765625 76.23828125 C-9.4478918 73.901138 -9.48384828 71.593538 -9.47705078 69.25585938 C-9.4788031 68.52580185 -9.48055542 67.79574432 -9.48236084 67.04356384 C-9.48677924 64.61886247 -9.48384142 62.19423343 -9.48046875 59.76953125 C-9.48114179 58.09183742 -9.48211182 56.41414369 -9.48336792 54.7364502 C-9.48484488 51.21572951 -9.48269041 47.69503415 -9.47802734 44.17431641 C-9.47233005 39.65117629 -9.47560907 35.12809551 -9.48159981 30.60495758 C-9.48520548 27.1392573 -9.48406681 23.67357118 -9.48147202 20.20787048 C-9.48080276 18.539627 -9.48163111 16.87138226 -9.48395157 15.20314026 C-9.4864782 12.87562631 -9.48263738 10.54820977 -9.47705078 8.22070312 C-9.47907501 7.52456406 -9.48109924 6.82842499 -9.48318481 6.1111908 C-9.45038975 -1.22734882 -6.48104931 0.05818416 0 0 Z M6.65234375 14.23828125 C6.65234375 19.51828125 6.65234375 24.79828125 6.65234375 30.23828125 C9.73620479 30.3192776 12.81793586 30.37877649 15.90234375 30.42578125 C16.77503906 30.45091797 17.64773438 30.47605469 18.546875 30.50195312 C23.5580057 30.58647356 23.5580057 30.58647356 28.20703125 28.94140625 C30.51309867 26.22398626 30.53011047 23.72192972 30.65234375 20.23828125 C29.84770873 17.53178164 29.2520894 16.60023018 26.84082031 15.14501953 C24.47053374 14.16295301 22.87564788 14.00651976 20.32421875 14.04296875 C19.525 14.04941406 18.72578125 14.05585937 17.90234375 14.0625 C17.07734375 14.07925781 16.25234375 14.09601562 15.40234375 14.11328125 C14.14164063 14.12681641 14.14164063 14.12681641 12.85546875 14.140625 C10.78763771 14.16412308 8.7199538 14.19999217 6.65234375 14.23828125 Z M6.65234375 44.23828125 C6.65234375 50.17828125 6.65234375 56.11828125 6.65234375 62.23828125 C9.71508206 62.29238261 12.77685827 62.3320035 15.83984375 62.36328125 C16.70416016 62.38003906 17.56847656 62.39679687 18.45898438 62.4140625 C24.80435858 62.50003888 24.80435858 62.50003888 30.65234375 60.23828125 C32.71755007 57.14047177 32.94711399 56.28423315 32.96484375 52.73828125 C32.98160156 51.96484375 32.99835937 51.19140625 33.015625 50.39453125 C32.55919389 47.68539175 31.84370103 46.86077603 29.65234375 45.23828125 C26.7493818 44.32476719 24.13863982 44.1201306 21.10546875 44.140625 C20.26113281 44.14384766 19.41679688 44.14707031 18.546875 44.15039062 C17.67417969 44.15876953 16.80148437 44.16714844 15.90234375 44.17578125 C15.01417969 44.18029297 14.12601563 44.18480469 13.2109375 44.18945312 C11.02471059 44.20120703 8.83851847 44.21914159 6.65234375 44.23828125 Z " fill="#FFFFFF" transform="translate(515.34765625,524.76171875)"/>
<path d="M0 0 C2.75 1.67578125 2.75 1.67578125 5.125 3.375 C6.1459375 4.07689453 6.1459375 4.07689453 7.1875 4.79296875 C14.22749957 10.20952014 19.6644896 18.58779692 21.125 27.375 C22.13434677 38.53525701 22.20046391 48.85490689 15.06640625 58.01953125 C8.72239995 65.32637156 1.41826465 73.25356324 -8.59643555 74.79345703 C-11.6385543 74.98401822 -14.63961171 75.03253804 -17.6875 75 C-18.75685791 74.990896 -19.82621582 74.98179199 -20.92797852 74.97241211 C-28.86958983 74.73956842 -34.72367983 73.69952983 -40.875 68.375 C-41.67679688 67.72144531 -42.47859375 67.06789063 -43.3046875 66.39453125 C-51.19542525 59.29286727 -56.24380142 50.08390073 -57.11328125 39.46484375 C-57.38526584 27.9126562 -54.90814451 17.94492145 -46.875 9.375 C-34.87111488 -2.75340675 -15.99911153 -7.80593594 0 0 Z M-36.375 21.1875 C-40.52473199 27.47675386 -41.45394917 33.41484691 -40.48046875 40.84765625 C-39.17045636 46.31590151 -36.46570507 50.69592243 -32.625 54.75 C-25.47462068 58.97522414 -19.02976487 60.2953156 -10.875 58.375 C-4.97653784 56.37447262 -1.36210348 53.50309335 2.125 48.375 C4.91336352 41.37963186 5.75009179 32.59682457 2.9375 25.4375 C-1.22152728 18.41017805 -4.92226958 14.64178144 -12.875 12.375 C-22.0825115 10.80620425 -30.46015569 13.90879596 -36.375 21.1875 Z " fill="#FFFFFF" transform="translate(1342.875,527.625)"/>
<path d="M0 0 C2.75 1.6875 2.75 1.6875 5.1875 3.4375 C6.30125 4.18 6.30125 4.18 7.4375 4.9375 C14.1365149 10.01251128 19.88377095 19.05638469 21.1875 27.4375 C22.04338667 40.80897536 21.11016466 51.69184287 12.17578125 62.3671875 C5.57651521 69.23872189 -1.47490124 74.37827653 -11.17578125 74.90625 C-13.15870644 74.93260117 -15.14190641 74.94264755 -17.125 74.9375 C-18.10662109 74.96585938 -19.08824219 74.99421875 -20.09960938 75.0234375 C-31.33829941 75.05318916 -38.71065047 70.20257851 -46.68359375 62.62890625 C-53.58522328 55.52466008 -56.59306685 46.22506989 -57.125 36.4375 C-56.9611595 25.51480011 -52.41883044 15.28808965 -44.9296875 7.47265625 C-33.25795253 -3.35230579 -14.7089085 -7.10867557 0 0 Z M-34.4765625 19.1171875 C-39.61928461 25.88392712 -40.76092119 33.09833322 -39.8125 41.4375 C-38.84168775 44.68521726 -37.50057097 47.50558726 -35.8125 50.4375 C-35.0390625 51.8296875 -35.0390625 51.8296875 -34.25 53.25 C-29.65644378 57.37242224 -24.02991333 59.25660126 -17.89453125 59.6015625 C-10.26128601 59.15936071 -5.52075869 57.14575869 -0.0625 51.6875 C4.32985077 45.34299333 6.30175714 39.17326221 5.1875 31.4375 C3.32812778 23.8129045 -0.23810783 18.74697122 -6.8125 14.4375 C-16.1631824 9.97262432 -27.12127173 11.69283297 -34.4765625 19.1171875 Z " fill="#FFFFFF" transform="translate(304.8125,527.5625)"/>
<path d="M0 0 C1.81653751 -0.01645677 3.63301308 -0.04360867 5.44921875 -0.08203125 C25.99251866 -0.51428438 25.99251866 -0.51428438 34.69165039 6.96728516 C39.79975801 11.91361201 41.5602717 18.76350432 41.94018555 25.70556641 C41.56530497 32.12397631 39.07960351 39.31048236 34.29711914 43.75830078 C32.82729406 44.98668237 31.32162902 46.17189953 29.8112793 47.35009766 C30.17479492 48.08123779 30.53831055 48.81237793 30.9128418 49.56567383 C32.55589428 52.88469251 34.18370325 56.21096419 35.8112793 59.53759766 C36.38362305 60.68808594 36.9559668 61.83857422 37.5456543 63.02392578 C38.08706055 64.13574219 38.6284668 65.24755859 39.1862793 66.39306641 C39.68901367 67.41424561 40.19174805 68.4354248 40.7097168 69.48754883 C41.8112793 72.35009766 41.8112793 72.35009766 41.8112793 77.35009766 C36.5312793 77.35009766 31.2512793 77.35009766 25.8112793 77.35009766 C13.8112793 55.15009766 13.8112793 55.15009766 13.8112793 51.35009766 C9.1912793 51.35009766 4.5712793 51.35009766 -0.1887207 51.35009766 C-0.16551758 53.05939453 -0.14231445 54.76869141 -0.1184082 56.52978516 C-0.09965386 58.76155164 -0.08145331 60.99332282 -0.0637207 63.22509766 C-0.04696289 64.35302734 -0.03020508 65.48095703 -0.01293945 66.64306641 C-0.00649414 67.71943359 -0.00004883 68.79580078 0.0065918 69.90478516 C0.01706543 70.89978027 0.02753906 71.89477539 0.03833008 72.91992188 C-0.1887207 75.35009766 -0.1887207 75.35009766 -2.1887207 77.35009766 C-5.41137695 77.58056641 -5.41137695 77.58056641 -9.2512207 77.53759766 C-10.52094727 77.53115234 -11.79067383 77.52470703 -13.09887695 77.51806641 C-16.1887207 77.35009766 -16.1887207 77.35009766 -17.1887207 76.35009766 C-17.28895625 74.01295441 -17.32491273 71.70535441 -17.31811523 69.36767578 C-17.31986755 68.63761826 -17.32161987 67.90756073 -17.32342529 67.15538025 C-17.32784369 64.73067887 -17.32490587 62.30604983 -17.3215332 59.88134766 C-17.32220625 58.20365383 -17.32317627 56.52596009 -17.32443237 54.8482666 C-17.32590933 51.32754592 -17.32375486 47.80685056 -17.3190918 44.28613281 C-17.31339451 39.7629927 -17.31667352 35.23991192 -17.32266426 30.71677399 C-17.32626994 27.2510737 -17.32513126 23.78538759 -17.32253647 20.31968689 C-17.32186722 18.65144341 -17.32269556 16.98319866 -17.32501602 15.31495667 C-17.32754266 12.98744272 -17.32370183 10.66002618 -17.31811523 8.33251953 C-17.32013947 7.63638046 -17.3221637 6.94024139 -17.32424927 6.2230072 C-17.28320406 -2.96166383 -7.36704136 0.04882768 0 0 Z M-0.1887207 14.35009766 C-0.1887207 21.61009766 -0.1887207 28.87009766 -0.1887207 36.35009766 C4.1425293 36.41197266 4.1425293 36.41197266 8.5612793 36.47509766 C9.46458984 36.49330566 10.36790039 36.51151367 11.29858398 36.53027344 C12.01949219 36.53526855 12.74040039 36.54026367 13.4831543 36.54541016 C14.58288574 36.56112061 14.58288574 36.56112061 15.70483398 36.57714844 C18.16901745 36.31153756 19.71432739 35.66083151 21.8112793 34.35009766 C24.65707055 30.22860688 25.28558004 27.06945145 24.46362305 22.24853516 C23.16214778 18.46100832 20.30896851 16.09894226 16.8112793 14.35009766 C13.92554578 14.27809832 11.07062815 14.25739085 8.1862793 14.28759766 C4.0406543 14.31853516 4.0406543 14.31853516 -0.1887207 14.35009766 Z " fill="#FFFFFF" transform="translate(642.188720703125,524.64990234375)"/>
<path d="M0 0 C4.80137245 -0.09978872 9.60212521 -0.17189617 14.40429688 -0.21972656 C16.03363578 -0.23969079 17.66290445 -0.2668723 19.29199219 -0.30175781 C28.60219432 -0.49595835 36.61298003 -0.63842344 45 4 C45.90234375 4.46921875 46.8046875 4.9384375 47.734375 5.421875 C56.7722454 11.37706092 62.16222665 19.52669243 65 30 C66.44563148 41.55339349 64.8992925 52.20060166 57.9453125 61.8515625 C51.0046017 69.99308831 43.53376479 74.93244091 33 77 C28.20005124 77.32345667 23.43716025 77.35061637 18.62866211 77.28125 C16.41047642 77.24961459 14.19300009 77.2402212 11.97460938 77.234375 C1.16417288 77.16417288 1.16417288 77.16417288 0 76 C-0.09494733 73.62699131 -0.12559319 71.28321297 -0.11352539 68.90991211 C-0.11367142 68.16849472 -0.11381744 67.42707733 -0.1139679 66.66319275 C-0.11326865 64.20121379 -0.10547574 61.73930957 -0.09765625 59.27734375 C-0.09579211 57.57483461 -0.09436819 55.87232493 -0.09336853 54.16981506 C-0.08954302 49.68006927 -0.07971247 45.19035562 -0.06866455 40.70062256 C-0.05845113 36.12268509 -0.05387106 31.54474244 -0.04882812 26.96679688 C-0.03809022 17.97785043 -0.02101341 8.98892788 0 0 Z M16 15 C16 30.18 16 45.36 16 61 C32.99011279 60.90405207 32.99011279 60.90405207 44.3125 52.625 C48.54613718 46.03934217 49.90747812 40.80179103 49 33 C47.32736459 27.51747282 44.42572624 22.69420125 40 19 C31.65835921 14.95650161 31.65835921 14.95650161 16 15 Z " fill="#FFFFFF" transform="translate(704,525)"/>
<path d="M0 0 C1.40897804 0.00333092 1.40897804 0.00333092 2.84642029 0.00672913 C3.90744461 0.00680466 4.96846893 0.00688019 6.06164551 0.00695801 C7.21579453 0.01211929 8.36994354 0.01728058 9.55906677 0.02259827 C10.73404221 0.02401321 11.90901764 0.02542816 13.11959839 0.02688599 C16.88981116 0.0325046 20.65996556 0.04506026 24.43016052 0.05775452 C26.97898779 0.06276712 29.52781599 0.06733044 32.0766449 0.07142639 C38.34033685 0.08248007 44.60399452 0.0992363 50.86766052 0.12025452 C52.10455114 2.59403576 52.00076139 4.29940768 51.99266052 7.05775452 C51.99652771 8.37066467 51.99652771 8.37066467 52.00047302 9.71009827 C51.86766052 12.12025452 51.86766052 12.12025452 50.86766052 15.12025452 C47.2353295 16.33103152 43.91644065 16.24469616 40.13719177 16.21791077 C39.38677109 16.21649582 38.6363504 16.21508087 37.8631897 16.21362305 C35.46880592 16.20803011 33.07451599 16.19547896 30.68016052 16.18275452 C29.05581292 16.1777386 27.43146384 16.17317585 25.80711365 16.16908264 C21.82725983 16.158063 17.84747609 16.14080325 13.86766052 16.12025452 C14.19766052 20.08025452 14.52766052 24.04025452 14.86766052 28.12025452 C17.64816833 28.10285217 17.64816833 28.10285217 20.48484802 28.08509827 C22.90411785 28.07572125 25.32338877 28.06662096 27.74266052 28.05775452 C29.57764099 28.04518616 29.57764099 28.04518616 31.44969177 28.03236389 C33.19959412 28.02752991 33.19959412 28.02752991 34.98484802 28.02259827 C36.60302429 28.01474304 36.60302429 28.01474304 38.25389099 28.00672913 C40.86766052 28.12025452 40.86766052 28.12025452 42.86766052 29.12025452 C42.86766052 34.07025452 42.86766052 39.02025452 42.86766052 44.12025452 C40.10148489 45.50334233 37.85748053 45.23235648 34.76609802 45.21791077 C32.9485199 45.21307678 32.9485199 45.21307678 31.09422302 45.20814514 C29.8232074 45.19976624 28.55219177 45.19138733 27.24266052 45.18275452 C25.96391052 45.1782428 24.68516052 45.17373108 23.36766052 45.16908264 C20.20097407 45.15726665 17.03431156 45.13933073 13.86766052 45.12025452 C13.86766052 50.07025452 13.86766052 55.02025452 13.86766052 60.12025452 C14.94249695 60.10454407 16.01733337 60.08883362 17.1247406 60.07264709 C21.11099255 60.01836341 25.0972118 59.9839103 29.08372498 59.95545959 C30.80936679 59.94036936 32.53497024 59.91989476 34.26048279 59.89393616 C36.7403154 59.85756243 39.21964116 59.84053093 41.69969177 59.82728577 C42.47166397 59.81180191 43.24363617 59.79631805 44.03900146 59.78036499 C49.36110169 59.77869127 49.36110169 59.77869127 51.85545349 61.46058655 C53.41464268 64.01711528 53.22689179 66.22430586 53.18016052 69.18275452 C53.17629333 70.24623108 53.17242615 71.30970764 53.16844177 72.40541077 C52.86766052 75.12025452 52.86766052 75.12025452 50.86766052 77.12025452 C48.62179565 77.36749268 48.62179565 77.36749268 45.79124451 77.36317444 C44.73352341 77.36625107 43.67580231 77.3693277 42.58602905 77.37249756 C41.44017838 77.36531204 40.2943277 77.35812653 39.11375427 77.35072327 C37.94256546 77.35026505 36.77137665 77.34980682 35.56469727 77.34933472 C33.08567798 77.34630967 30.60666065 77.33841591 28.12767029 77.32606506 C24.31762516 77.30781422 20.50782291 77.30555528 16.69773865 77.30580139 C14.29474174 77.30088622 11.89174649 77.29505791 9.48875427 77.28822327 C8.34087936 77.28711044 7.19300446 77.28599762 6.01034546 77.28485107 C4.95577652 77.27847122 3.90120758 77.27209137 2.81468201 77.26551819 C1.41475258 77.25980049 1.41475258 77.25980049 -0.01345825 77.25396729 C-2.13233948 77.12025452 -2.13233948 77.12025452 -3.13233948 76.12025452 C-3.23257503 73.78311127 -3.2685315 71.47551127 -3.26173401 69.13783264 C-3.26348633 68.40777512 -3.26523865 67.67771759 -3.26704407 66.92553711 C-3.27146247 64.50083573 -3.26852465 62.0762067 -3.26515198 59.65150452 C-3.26582502 57.97381069 -3.26679505 56.29611695 -3.26805115 54.61842346 C-3.2695281 51.09770278 -3.26737364 47.57700742 -3.26271057 44.05628967 C-3.25701328 39.53314956 -3.2602923 35.01006878 -3.26628304 30.48693085 C-3.26988871 27.02123056 -3.26875003 23.55554445 -3.26615524 20.08984375 C-3.26548599 18.42160027 -3.26631433 16.75335552 -3.2686348 15.08511353 C-3.27116143 12.75759958 -3.2673206 10.43018304 -3.26173401 8.10267639 C-3.26375824 7.40653732 -3.26578247 6.71039825 -3.26786804 5.99316406 C-3.24190234 0.18282896 -3.24190234 0.18282896 0 0 Z " fill="#FFFFFF" transform="translate(433.13233947753906,524.8797454833984)"/>
<path d="M0 0 C0.70253906 0.00386719 1.40507813 0.00773438 2.12890625 0.01171875 C2.83144531 0.00785156 3.53398438 0.00398437 4.2578125 0 C9.50229247 0.01010497 9.50229247 0.01010497 10.62890625 1.13671875 C10.73580196 2.6339914 10.77511156 4.13616752 10.78662109 5.63720703 C10.79688324 6.5955545 10.80714539 7.55390198 10.81771851 8.54129028 C10.82501984 9.5859848 10.83232117 10.63067932 10.83984375 11.70703125 C10.86792648 13.90495518 10.89659103 16.10287175 10.92578125 18.30078125 C10.96696267 21.77668951 11.00383585 25.25246225 11.03027344 28.72851562 C11.05796073 32.07581343 11.10385119 35.42247869 11.15234375 38.76953125 C11.15559662 39.80208038 11.15884949 40.83462952 11.16220093 41.89846802 C11.26111843 47.73363865 11.79309532 51.99459799 14.62890625 57.13671875 C18.60860702 60.64821943 23.45542768 61.27444863 28.62890625 61.13671875 C32.94470921 60.29898923 35.80303241 59.17572132 38.56640625 55.69921875 C40.17604642 51.8171454 40.75580648 48.49044539 40.81835938 44.29223633 C40.8350769 43.33477005 40.85179443 42.37730377 40.86901855 41.39082336 C40.88259399 40.36466415 40.89616943 39.33850494 40.91015625 38.28125 C40.92856567 37.22387131 40.9469751 36.16649261 40.96594238 35.07707214 C41.04465592 30.55156592 41.11259615 26.02591392 41.18115234 21.50024414 C41.23271663 18.19800077 41.29000804 14.89589183 41.34765625 11.59375 C41.36123169 10.5615181 41.37480713 9.52928619 41.38879395 8.46577454 C41.41387024 7.04375984 41.41387024 7.04375984 41.43945312 5.59301758 C41.45824524 4.33537346 41.45824524 4.33537346 41.47741699 3.05232239 C41.62890625 1.13671875 41.62890625 1.13671875 42.62890625 0.13671875 C44.9605068 0.03762573 47.29520567 0.00701371 49.62890625 0.01171875 C50.90765625 0.00914062 52.18640625 0.0065625 53.50390625 0.00390625 C56.62890625 0.13671875 56.62890625 0.13671875 57.62890625 1.13671875 C57.74319844 2.74042364 57.78850051 4.34910896 57.8059082 5.95678711 C57.82516106 7.49990822 57.82516106 7.49990822 57.84480286 9.07420349 C57.85218979 10.19698196 57.85957672 11.31976044 57.8671875 12.4765625 C57.87525925 13.6278212 57.88333099 14.7790799 57.89164734 15.96522522 C57.90551483 18.41242965 57.91622498 20.85965363 57.92407227 23.30688477 C57.94119009 27.02723838 57.98504216 30.74668155 58.02929688 34.46679688 C58.03943176 36.84504555 58.04794536 39.22330179 58.0546875 41.6015625 C58.07219559 42.70612289 58.08970367 43.81068329 58.10774231 44.94871521 C58.08254919 54.05192929 56.16451215 62.12872055 49.87890625 69.01171875 C49.2653125 69.71039062 48.65171875 70.4090625 48.01953125 71.12890625 C41.15307704 76.89583021 34.94374156 77.77391463 26.12890625 77.63671875 C25.13503906 77.6521875 24.14117188 77.66765625 23.1171875 77.68359375 C14.6328328 77.63876229 8.44614218 75.52920097 2.37890625 69.44921875 C-3.91731356 62.81901479 -6.49224218 55.05518305 -6.50048828 45.99511719 C-6.50364044 44.99768494 -6.5067926 44.00025269 -6.51004028 42.97259521 C-6.50801605 41.90784973 -6.50599182 40.84310425 -6.50390625 39.74609375 C-6.50486298 38.64573792 -6.5058197 37.54538208 -6.50680542 36.41168213 C-6.50748476 34.09183698 -6.50564764 31.77198991 -6.50146484 29.45214844 C-6.4960927 25.88602484 -6.50142864 22.32002604 -6.5078125 18.75390625 C-6.50715208 16.5013018 -6.50587166 14.24869744 -6.50390625 11.99609375 C-6.50593048 10.92325134 -6.50795471 9.85040894 -6.51004028 8.74505615 C-6.50688812 7.76023254 -6.50373596 6.77540894 -6.50048828 5.76074219 C-6.49969269 4.88979919 -6.49889709 4.0188562 -6.49807739 3.121521 C-6.23463203 -0.99622935 -3.49472804 0.00673358 0 0 Z " fill="#FFFFFF" transform="translate(941.37109375,524.86328125)"/>
<path d="M0 0 C1.79244141 0.01740234 1.79244141 0.01740234 3.62109375 0.03515625 C5.41740234 0.04869141 5.41740234 0.04869141 7.25 0.0625 C8.17683594 0.07410156 9.10367187 0.08570313 10.05859375 0.09765625 C14.4237746 9.28193396 18.18262938 18.69461736 21.94213867 28.13842773 C22.98747654 30.76351641 24.03735768 33.38675229 25.08789062 36.00976562 C28.77758223 45.24231089 32.38050909 54.50001471 35.83422852 63.82348633 C36.59339374 65.85362886 37.39052373 67.8705214 38.24584961 69.86206055 C39.25371496 72.63437146 38.85731023 74.30214857 38.05859375 77.09765625 C35.78937839 77.23255016 33.51788705 77.3295962 31.24609375 77.41015625 C29.98152344 77.46816406 28.71695312 77.52617188 27.4140625 77.5859375 C24.05859375 77.09765625 24.05859375 77.09765625 22.296875 75.078125 C20.79160583 71.45503233 19.43617214 67.77119862 18.05859375 64.09765625 C3.20859375 63.60265625 3.20859375 63.60265625 -11.94140625 63.09765625 C-12.27140625 64.74765625 -12.60140625 66.39765625 -12.94140625 68.09765625 C-13.58380081 69.72041198 -14.27103297 71.32620432 -15.00390625 72.91015625 C-15.36613281 73.70035156 -15.72835938 74.49054688 -16.1015625 75.3046875 C-16.37871094 75.89636719 -16.65585938 76.48804688 -16.94140625 77.09765625 C-19.25384417 77.12451037 -21.56636895 77.14398466 -23.87890625 77.16015625 C-25.16667969 77.17175781 -26.45445313 77.18335938 -27.78125 77.1953125 C-30.94140625 77.09765625 -30.94140625 77.09765625 -31.94140625 76.09765625 C-31.59682636 69.05017713 -29.26373465 63.24873917 -26.56640625 56.78515625 C-26.12522461 55.70572754 -25.68404297 54.62629883 -25.22949219 53.51416016 C-24.29080061 51.21954411 -23.34798592 48.92661107 -22.40136719 46.63525391 C-20.45356537 41.91558027 -18.53135739 37.18564815 -16.60839844 32.45581055 C-15.22017404 29.04337128 -13.82710249 25.63294032 -12.43359375 22.22265625 C-9.8986048 16.00858522 -7.41574118 9.77500714 -4.96484375 3.52734375 C-3.52839328 0.11714453 -3.52839328 0.11714453 0 0 Z M3.05859375 23.09765625 C1.93203065 26.13874624 0.8076268 29.1806303 -0.31640625 32.22265625 C-0.79207031 33.5065625 -0.79207031 33.5065625 -1.27734375 34.81640625 C-1.58671875 35.65429688 -1.89609375 36.4921875 -2.21484375 37.35546875 C-2.49763184 38.12004395 -2.78041992 38.88461914 -3.07177734 39.67236328 C-4.07316582 42.46511823 -5.0032027 45.28304559 -5.94140625 48.09765625 C-0.00140625 48.09765625 5.93859375 48.09765625 12.05859375 48.09765625 C10.4974901 39.35547584 7.27377518 31.3378225 4.05859375 23.09765625 C3.72859375 23.09765625 3.39859375 23.09765625 3.05859375 23.09765625 Z " fill="#FFFFFF" transform="translate(1122.94140625,524.90234375)"/>
<path d="M0 0 C5.28 0 10.56 0 16 0 C19.7024868 8.67231226 23.00812455 17.41463079 26.125 26.3125 C29.21866883 35.33584168 29.21866883 35.33584168 32.8046875 44.16796875 C34 47 34 47 34 50 C34.66 50 35.32 50 36 50 C36.17656128 48.97217407 36.17656128 48.97217407 36.35668945 47.92358398 C37.5463249 42.51717622 39.58926625 37.35498961 41.44555664 32.1472168 C42.17339472 30.1021331 42.89273562 28.05420694 43.61132812 26.00585938 C46.73549026 17.16908089 50.22662319 8.58093838 54 0 C59.28 0 64.56 0 70 0 C71.17524837 4.70099348 70.55301557 5.82581391 68.68359375 10.171875 C68.16982178 11.38504395 67.6560498 12.59821289 67.12670898 13.84814453 C66.8509201 14.48512268 66.57513123 15.12210083 66.29098511 15.77838135 C64.85954206 19.08512894 63.46408059 22.40707677 62.0625 25.7265625 C61.78800522 26.37354095 61.51351044 27.02051941 61.23069763 27.68710327 C59.3493195 32.13094745 57.58958067 36.59161197 55.9375 41.125 C53.41866004 47.98562417 50.73959886 54.77885828 48.00686646 61.55682373 C47.26032075 63.4118548 46.52061362 65.26963326 45.78100586 67.12744141 C45.09276733 68.82586182 45.09276733 68.82586182 44.390625 70.55859375 C43.97844727 71.58267334 43.56626953 72.60675293 43.14160156 73.66186523 C42 76 42 76 40 77 C37.50390625 77.2734375 37.50390625 77.2734375 34.5625 77.375 C33.59441406 77.42398438 32.62632812 77.47296875 31.62890625 77.5234375 C29 77 29 77 27.30859375 74.890625 C25.88874558 71.75424397 24.65870226 68.61795328 23.5 65.375 C20.75439836 57.83559047 17.74190746 50.41897419 14.6875 43 C10.96427379 33.91198104 7.3086544 24.80302342 3.8125 15.625 C3.42602295 14.62726562 3.0395459 13.62953125 2.64135742 12.6015625 C2.29177979 11.6734375 1.94220215 10.7453125 1.58203125 9.7890625 C1.27499268 8.98162598 0.9679541 8.17418945 0.65161133 7.34228516 C0 5 0 5 0 0 Z " fill="#FFFFFF" transform="translate(342,525)"/>
<path d="M0 0 C1.13787964 -0.00315216 2.27575928 -0.00630432 3.44812012 -0.009552 C4.6866272 -0.00752777 5.92513428 -0.00550354 7.20117188 -0.00341797 C8.46255981 -0.00437469 9.72394775 -0.00533142 11.02355957 -0.00631714 C13.69689325 -0.00699922 16.37013624 -0.00564076 19.04345703 -0.00097656 C22.47698878 0.00472073 25.91044237 0.00144152 29.34397125 -0.00454903 C32.6088743 -0.00902309 35.87376781 -0.0058943 39.13867188 -0.00341797 C40.37717896 -0.0054422 41.61568604 -0.00746643 42.89172363 -0.009552 C44.02960327 -0.00639984 45.16748291 -0.00324768 46.33984375 0 C47.34720581 0.00079559 48.35456787 0.00159119 49.39245605 0.00241089 C51.66992188 0.12939453 51.66992188 0.12939453 52.66992188 1.12939453 C52.82147157 3.27149113 52.89169933 5.41962915 52.91992188 7.56689453 C52.94570312 8.74123047 52.97148438 9.91556641 52.99804688 11.12548828 C52.88976563 12.11677734 52.78148437 13.10806641 52.66992188 14.12939453 C49.56906617 16.19663167 48.94060506 16.37436876 45.43945312 16.32470703 C44.63701172 16.31826172 43.83457031 16.31181641 43.0078125 16.30517578 C42.17443359 16.28841797 41.34105469 16.27166016 40.48242188 16.25439453 C39.63744141 16.24537109 38.79246094 16.23634766 37.921875 16.22705078 C35.83776945 16.20350157 33.7538097 16.16763101 31.66992188 16.12939453 C31.6743631 16.8641098 31.67880432 17.59882507 31.68338013 18.35580444 C31.72341463 25.27174821 31.75388475 32.1876747 31.77354622 39.10370445 C31.78399411 42.65951852 31.79817146 46.21523703 31.82080078 49.77099609 C31.8466402 53.85661753 31.85638632 57.94213822 31.86523438 62.02783203 C31.87555695 63.30806244 31.88587952 64.58829285 31.89651489 65.90731812 C31.89674149 67.67892807 31.89674149 67.67892807 31.89697266 69.48632812 C31.90141388 70.53001556 31.9058551 71.573703 31.91043091 72.64901733 C31.66992188 75.12939453 31.66992188 75.12939453 29.66992188 77.12939453 C26.70117188 77.39501953 26.70117188 77.39501953 23.16992188 77.37939453 C22.00460937 77.38455078 20.83929687 77.38970703 19.63867188 77.39501953 C16.66992188 77.12939453 16.66992188 77.12939453 14.66992188 75.12939453 C14.42941284 72.64901733 14.42941284 72.64901733 14.44287109 69.48632812 C14.44302216 68.30525482 14.44317322 67.12418152 14.44332886 65.90731812 C14.45365143 64.62708771 14.463974 63.3468573 14.47460938 62.02783203 C14.47743927 60.72109528 14.48026917 59.41435852 14.48318481 58.06802368 C14.49082411 54.59257372 14.51047497 51.1172907 14.53259277 47.64190674 C14.55304492 44.09609231 14.56218517 40.55025093 14.57226562 37.00439453 C14.59372071 30.04599258 14.62786015 23.08770157 14.66992188 16.12939453 C12.77306641 16.16419922 12.77306641 16.16419922 10.83789062 16.19970703 C9.17774027 16.21846579 7.51758355 16.23666588 5.85742188 16.25439453 C5.02404297 16.27115234 4.19066406 16.28791016 3.33203125 16.30517578 C2.52958984 16.31162109 1.72714844 16.31806641 0.90039062 16.32470703 C-0.20719604 16.34041748 -0.20719604 16.34041748 -1.3371582 16.35644531 C-3.33007812 16.12939453 -3.33007812 16.12939453 -6.33007812 14.12939453 C-6.65820312 11.12548828 -6.65820312 11.12548828 -6.58007812 7.56689453 C-6.556875 5.80152344 -6.556875 5.80152344 -6.53320312 4.00048828 C-6.18984577 -0.85273585 -4.40600042 0.00347977 0 0 Z " fill="#FFFFFF" transform="translate(1023.330078125,524.87060546875)"/>
<path d="M0 0 C1.13465195 -0.00315216 2.26930389 -0.00630432 3.43833923 -0.009552 C5.29139427 -0.00651566 5.29139427 -0.00651566 7.18188477 -0.00341797 C8.44090103 -0.00437469 9.6999173 -0.00533142 10.99708557 -0.00631714 C13.66622313 -0.00699927 16.33526988 -0.00564055 19.00439453 -0.00097656 C22.42885981 0.00471496 25.85324662 0.0014453 29.27770901 -0.00454903 C32.53743709 -0.00902874 35.79715566 -0.00589316 39.05688477 -0.00341797 C40.29023056 -0.0054422 41.52357635 -0.00746643 42.79429626 -0.009552 C44.50100243 -0.00482376 44.50100243 -0.00482376 46.2421875 0 C47.24732895 0.00079559 48.2524704 0.00159119 49.28807068 0.00241089 C51.68579102 0.12939453 51.68579102 0.12939453 53.68579102 1.12939453 C53.68579102 5.41939453 53.68579102 9.70939453 53.68579102 14.12939453 C49.18579102 16.37939453 49.18579102 16.37939453 45.57641602 16.32470703 C44.82231445 16.31826172 44.06821289 16.31181641 43.29125977 16.30517578 C42.12530273 16.28003906 42.12530273 16.28003906 40.93579102 16.25439453 C40.14301758 16.24537109 39.35024414 16.23634766 38.53344727 16.22705078 C36.5840982 16.20356465 34.63490527 16.1676959 32.68579102 16.12939453 C32.67548355 16.87885849 32.66517609 17.62832245 32.65455627 18.40049744 C32.55674577 25.44929907 32.45425526 32.49801327 32.34645176 39.54666805 C32.29119004 43.17081033 32.23776502 46.79496063 32.18847656 50.41918945 C32.14088069 53.91406553 32.08853991 57.40884073 32.03285027 60.90359688 C32.00242689 62.89173276 31.9769712 64.87994263 31.95155334 66.8681488 C31.93160812 68.06931839 31.9116629 69.27048798 31.89111328 70.50805664 C31.875569 71.57172958 31.86002472 72.63540253 31.8440094 73.73130798 C31.68579102 76.12939453 31.68579102 76.12939453 30.68579102 77.12939453 C28.35419046 77.22848755 26.0194916 77.25909957 23.68579102 77.25439453 C22.40704102 77.25697266 21.12829102 77.25955078 19.81079102 77.26220703 C16.68579102 77.12939453 16.68579102 77.12939453 15.68579102 76.12939453 C15.56235075 74.25843342 15.50786708 72.38288525 15.48046875 70.50805664 C15.46052353 69.30688705 15.44057831 68.10571747 15.42002869 66.8681488 C15.40331619 65.56088333 15.3866037 64.25361786 15.36938477 62.90673828 C15.34882143 61.56294606 15.32782513 60.21916041 15.30641174 58.87538147 C15.25112682 55.33264466 15.20174604 51.78984886 15.15356445 48.24700928 C15.10339614 44.63418303 15.04768576 41.02144281 14.99243164 37.40869141 C14.88477164 30.31566706 14.78334422 23.22256565 14.68579102 16.12939453 C13.50500977 16.15259766 12.32422852 16.17580078 11.10766602 16.19970703 C9.55038068 16.21846951 7.9930885 16.23666919 6.43579102 16.25439453 C5.65848633 16.27115234 4.88118164 16.28791016 4.08032227 16.30517578 C-3.03852043 16.36602059 -3.03852043 16.36602059 -6.31420898 14.12939453 C-6.34106837 11.98362817 -6.36053986 9.83776808 -6.37670898 7.69189453 C-6.38831055 6.49693359 -6.39991211 5.30197266 -6.41186523 4.07080078 C-6.24803489 -0.86376929 -4.43896569 0.00351633 0 0 Z " fill="#FFFFFF" transform="translate(1175.314208984375,524.87060546875)"/>
<path d="M0 0 C2.47923801 -0.02685095 4.9581884 -0.04676547 7.4375 -0.0625 C8.14455078 -0.07087891 8.85160156 -0.07925781 9.58007812 -0.08789062 C11.38693559 -0.09653588 13.19387603 -0.05220011 15 0 C16.74300973 1.74300973 16.17006086 4.15695189 16.20532227 6.52954102 C16.22526749 7.71068985 16.24521271 8.89183868 16.26576233 10.10877991 C16.28247482 11.3941716 16.29918732 12.67956329 16.31640625 14.00390625 C16.33718735 15.31205795 16.35796844 16.62020966 16.37937927 17.96800232 C16.434663 21.45155447 16.48404431 24.9351666 16.53222656 28.41882324 C16.58239574 31.9713273 16.63810567 35.5237439 16.69335938 39.07617188 C16.80101791 46.05070546 16.90244567 53.02531798 17 60 C18.33961792 59.97643433 18.33961792 59.97643433 19.70629883 59.95239258 C23.02178756 59.90124561 26.33685675 59.86364188 29.65258789 59.83520508 C31.08722552 59.82012411 32.52181708 59.7996562 33.95629883 59.77368164 C36.01915859 59.73726563 38.08140858 59.72026757 40.14453125 59.70703125 C42.00621948 59.68346558 42.00621948 59.68346558 43.90551758 59.65942383 C47 60 47 60 48.90576172 61.34033203 C50.58119699 63.881521 50.3599276 66.05996787 50.3125 69.0625 C50.30863281 70.12597656 50.30476563 71.18945312 50.30078125 72.28515625 C50 75 50 75 48 77 C45.98191833 77.24723816 45.98191833 77.24723816 43.47436523 77.24291992 C42.53676865 77.24599655 41.59917206 77.24907318 40.63316345 77.25224304 C39.61855545 77.24505753 38.60394745 77.23787201 37.55859375 77.23046875 C36.52058121 77.23001053 35.48256866 77.22955231 34.4131012 77.2290802 C32.21655129 77.22605583 30.02000357 77.21816405 27.82348633 77.20581055 C24.44800278 77.1875568 21.07279336 77.18530079 17.69726562 77.18554688 C15.56770594 77.18063177 13.43814813 77.17480349 11.30859375 77.16796875 C9.7836454 77.16629951 9.7836454 77.16629951 8.22789001 77.16459656 C6.82622337 77.15502678 6.82622337 77.15502678 5.39624023 77.14526367 C4.15619484 77.13954597 4.15619484 77.13954597 2.89109802 77.13371277 C1 77 1 77 0 76 C-0.09494733 73.62699131 -0.12559319 71.28321297 -0.11352539 68.90991211 C-0.11367142 68.16849472 -0.11381744 67.42707733 -0.1139679 66.66319275 C-0.11326865 64.20121379 -0.10547574 61.73930957 -0.09765625 59.27734375 C-0.09579211 57.57483461 -0.09436819 55.87232493 -0.09336853 54.16981506 C-0.08954302 49.68006927 -0.07971247 45.19035562 -0.06866455 40.70062256 C-0.05845113 36.12268509 -0.05387106 31.54474244 -0.04882812 26.96679688 C-0.03809022 17.97785043 -0.02101341 8.98892788 0 0 Z " fill="#FFFFFF" transform="translate(184,525)"/>
<path d="M0 0 C0.70253906 0.00386719 1.40507813 0.00773438 2.12890625 0.01171875 C2.83144531 0.00785156 3.53398438 0.00398437 4.2578125 0 C9.50229247 0.01010497 9.50229247 0.01010497 10.62890625 1.13671875 C10.72383347 3.47925657 10.75450416 5.79217979 10.74243164 8.13500977 C10.74257767 8.86667358 10.74272369 9.5983374 10.74287415 10.35217285 C10.74217492 12.78168659 10.7343821 15.21112458 10.7265625 17.640625 C10.72469835 19.32071389 10.72327444 21.00080332 10.72227478 22.68089294 C10.71844932 27.11145518 10.70861881 31.54198485 10.6975708 35.97253418 C10.68735728 40.49014851 10.68277729 45.00776809 10.67773438 49.52539062 C10.66699656 58.39584768 10.64991981 67.26628051 10.62890625 76.13671875 C7.62576877 77.63828749 4.83823103 77.22953079 1.50390625 77.19921875 C-0.41808594 77.18568359 -0.41808594 77.18568359 -2.37890625 77.171875 C-3.36632813 77.16027344 -4.35375 77.14867187 -5.37109375 77.13671875 C-6.86133611 74.15623404 -6.49846459 71.45744893 -6.50048828 68.13256836 C-6.5022406 67.41211838 -6.50399292 66.6916684 -6.50579834 65.9493866 C-6.51020788 63.56258756 -6.50728233 61.17586232 -6.50390625 58.7890625 C-6.50457947 57.13521816 -6.50554965 55.48137391 -6.50680542 53.82752991 C-6.50828111 50.35986388 -6.50613167 46.89222359 -6.50146484 43.42456055 C-6.49576318 38.96983006 -6.49905013 34.51515976 -6.50503731 30.06043148 C-6.50864259 26.64534548 -6.50750457 23.23027387 -6.50490952 19.81518745 C-6.50424038 18.17206376 -6.50506819 16.52893877 -6.50738907 14.88581657 C-6.50991553 12.5943338 -6.50607533 10.30294997 -6.50048828 8.01147461 C-6.49969269 6.70512558 -6.49889709 5.39877655 -6.49807739 4.05284119 C-6.28318321 -0.88210738 -4.46750113 0.0086079 0 0 Z " fill="#FFFFFF" transform="translate(1254.37109375,524.86328125)"/>
<path d="M0 0 C1.39456452 0.00667256 2.78911118 0.01863093 4.18359375 0.03515625 C4.89451172 0.03966797 5.60542969 0.04417969 6.33789062 0.04882812 C8.09899388 0.06064761 9.86005411 0.07858362 11.62109375 0.09765625 C13.09865163 3.05277202 12.74844846 5.69603407 12.75048828 8.99414062 C12.7522406 9.70323074 12.75399292 10.41232086 12.75579834 11.14289856 C12.76020821 13.49242584 12.7572819 15.84187817 12.75390625 18.19140625 C12.75457954 19.82043472 12.75554977 21.44946309 12.75680542 23.07849121 C12.75828122 26.49488276 12.75613161 29.9112482 12.75146484 33.32763672 C12.74576762 37.71276682 12.74904726 42.09783571 12.75503731 46.48296356 C12.75864609 49.84747786 12.75750287 53.21197758 12.75490952 56.57649231 C12.75424113 58.19366971 12.75506561 59.81084842 12.75738907 61.42802429 C12.75992077 63.68577595 12.75606767 65.94342768 12.75048828 68.20117188 C12.74969269 69.4875354 12.74889709 70.77389893 12.74807739 72.09924316 C12.62109375 75.09765625 12.62109375 75.09765625 11.62109375 77.09765625 C9.14185574 77.1245072 6.66290535 77.14442172 4.18359375 77.16015625 C3.47654297 77.16853516 2.76949219 77.17691406 2.04101562 77.18554688 C0.23415816 77.19419213 -1.57278228 77.14985636 -3.37890625 77.09765625 C-5.03779364 75.43876886 -4.5045315 73.44080843 -4.51443481 71.2247467 C-4.51241058 70.52860764 -4.51038635 69.83246857 -4.50830078 69.11523438 C-4.5100531 68.38517685 -4.51180542 67.65511932 -4.51361084 66.90293884 C-4.51802924 64.47823747 -4.51509142 62.05360843 -4.51171875 59.62890625 C-4.51239179 57.95121242 -4.51336182 56.27351869 -4.51461792 54.5958252 C-4.51609488 51.07510451 -4.51394041 47.55440915 -4.50927734 44.03369141 C-4.50358005 39.51055129 -4.50685907 34.98747051 -4.51284981 30.46433258 C-4.51645548 26.9986323 -4.51531681 23.53294618 -4.51272202 20.06724548 C-4.51205276 18.399002 -4.51288111 16.73075726 -4.51520157 15.06251526 C-4.5177282 12.73500131 -4.51388738 10.40758477 -4.50830078 8.08007812 C-4.51032501 7.38393906 -4.51234924 6.68779999 -4.51443481 5.9705658 C-4.48833277 0.1297206 -4.48833277 0.1297206 0 0 Z " fill="#FFFFFF" transform="translate(588.37890625,524.90234375)"/>
<path d="M0 0 C0.99 0 1.98 0 3 0 C3 0.66 3 1.32 3 2 C2.01 2 1.02 2 0 2 C0 1.34 0 0.68 0 0 Z " fill="#FFFFFF" transform="translate(1111,257)"/>
</svg>
