<?xml version="1.0" standalone="no"?>
<!DOCTYPE svg PUBLIC "-//W3C//DTD SVG 20010904//EN"
 "http://www.w3.org/TR/2001/REC-SVG-20010904/DTD/svg10.dtd">
<svg version="1.0" xmlns="http://www.w3.org/2000/svg"
 width="3508.000000pt" height="1281.000000pt" viewBox="0 0 3508.000000 1281.000000"
 preserveAspectRatio="xMidYMid meet">

<g transform="translate(0.000000,1281.000000) scale(0.100000,-0.100000)"
fill="#000000" stroke="none">
<path d="M10380 12650 c-741 -63 -1339 -252 -1840 -581 -587 -387 -879 -836
-941 -1449 -8 -78 -11 -364 -11 -881 l1 -766 -102 -17 c-355 -59 -402 -79
-451 -185 -30 -66 -26 -225 18 -716 19 -220 43 -501 51 -625 18 -249 33 -337
69 -408 66 -128 177 -170 364 -138 308 53 399 -24 422 -364 5 -74 19 -279 30
-455 11 -176 47 -691 80 -1145 33 -454 71 -1000 85 -1215 29 -455 31 -482 51
-555 34 -119 97 -200 185 -239 87 -39 166 -43 436 -21 136 11 549 40 916 65
368 25 689 50 714 55 96 22 170 81 198 159 21 61 19 158 -10 371 -73 537 -192
1545 -264 2240 -70 675 -133 1331 -129 1336 5 5 495 31 823 43 139 6 256 15
278 22 52 17 112 71 130 118 30 74 29 129 -7 486 -57 564 -72 754 -86 1090
-10 246 -21 299 -77 364 -68 80 -139 89 -464 57 -140 -14 -366 -35 -504 -46
-137 -10 -271 -22 -296 -25 l-46 -5 -17 142 c-25 214 -36 353 -42 558 -17 529
91 658 694 826 392 110 444 132 496 211 60 92 58 165 -10 395 -24 84 -82 295
-129 468 -111 417 -171 616 -200 666 -28 48 -85 102 -149 139 -55 32 -113 37
-266 25z"/>
<path d="M17770 11964 c-335 -43 -593 -156 -800 -351 -107 -100 -170 -186
-235 -318 -108 -220 -136 -440 -90 -701 71 -391 336 -681 750 -817 315 -104
744 -113 1059 -22 398 115 645 394 712 801 20 122 22 333 5 434 -64 369 -288
668 -626 835 -197 97 -351 134 -585 139 -85 3 -171 2 -190 0z"/>
<path d="M3207 10810 c-114 -20 -193 -83 -251 -198 -15 -29 -101 -263 -190
-520 -217 -619 -416 -1178 -881 -2477 -488 -1364 -1652 -4635 -1657 -4655 -3
-13 48 -17 352 -27 459 -17 1245 -19 1412 -4 403 37 486 121 673 687 40 121
84 243 99 272 55 108 129 162 247 181 35 5 271 13 524 16 253 3 629 9 835 14
213 5 445 6 536 1 404 -22 468 -86 634 -640 34 -113 76 -234 92 -269 35 -74
103 -151 165 -188 97 -56 93 -56 808 -61 638 -4 1013 5 1180 29 162 22 215 61
215 156 0 103 20 46 -548 1538 -603 1581 -867 2261 -1343 3450 -589 1474 -960
2389 -997 2459 -43 83 -120 164 -183 194 -88 42 -140 47 -371 34 -252 -14
-673 -15 -918 -2 -327 17 -385 19 -433 10z m1126 -3335 c235 -782 367 -1245
367 -1288 0 -61 -98 -199 -159 -225 -47 -19 -574 -29 -804 -14 -177 11 -187
15 -236 88 -57 86 -59 109 -21 232 39 129 253 753 456 1329 l148 423 36 14
c26 10 37 11 42 2 3 -6 80 -258 171 -561z"/>
<path d="M21944 9590 c-540 -32 -1021 -204 -1443 -519 -150 -113 -398 -356
-525 -516 -109 -138 -275 -386 -354 -530 -184 -336 -295 -679 -343 -1060 -18
-143 -16 -492 5 -644 147 -1077 847 -2101 1878 -2745 557 -349 1152 -560 1783
-632 219 -25 600 -25 715 0 47 11 87 20 88 22 2 1 -12 19 -32 38 -39 39 -57
99 -37 125 24 33 22 43 -14 102 -20 33 -40 79 -43 102 -3 23 -16 55 -29 71
-49 59 -62 100 -88 291 -20 148 -30 197 -49 231 -13 24 -31 65 -40 92 -9 27
-36 81 -58 118 -40 65 -42 73 -40 139 1 39 9 95 17 125 8 30 22 87 29 125 20
96 30 119 60 138 32 21 33 52 6 126 -15 38 -19 65 -15 95 5 33 1 56 -18 102
-14 32 -32 84 -40 114 -10 33 -51 111 -102 190 -46 74 -88 149 -91 167 -4 21
2 66 15 119 38 152 39 244 1 199 -17 -21 -44 -19 -65 5 -18 20 -18 21 4 51
l23 31 -38 -5 c-22 -4 -55 -9 -74 -12 -43 -8 -90 23 -90 60 0 32 -58 81 -107
88 -55 9 -176 -23 -286 -75 -82 -39 -90 -41 -120 -29 -97 39 -148 37 -260 -11
-66 -28 -73 -29 -116 -17 -45 13 -52 18 -217 176 -66 64 -231 297 -248 350 -4
12 -15 25 -25 28 -42 13 -61 44 -61 100 0 37 -6 65 -20 87 -26 43 -25 49 9 86
17 17 35 50 41 74 7 24 16 53 21 66 13 34 11 69 -7 103 -12 24 -13 37 -5 61 9
25 7 36 -14 72 -32 54 -32 92 0 139 14 20 34 56 45 79 11 24 36 65 55 92 19
27 35 60 35 75 0 17 10 37 26 52 14 13 44 50 65 81 27 40 48 60 67 63 51 11
94 39 129 85 30 38 33 49 27 80 -8 41 -8 38 5 119 5 35 14 67 18 71 4 4 34 15
65 24 72 21 122 63 144 124 29 79 45 88 91 52 20 -16 40 -19 110 -18 79 0 92
3 178 44 51 24 106 44 122 44 17 0 48 7 69 16 30 12 56 15 109 10 55 -5 78 -3
103 10 26 12 39 14 64 5 46 -16 77 -13 105 9 30 23 51 25 78 6 11 -7 33 -16
48 -20 27 -6 27 -8 21 -55 -4 -31 -2 -51 5 -55 19 -12 12 -58 -15 -93 -14 -18
-23 -37 -19 -42 3 -6 71 -31 151 -56 137 -44 146 -49 161 -81 17 -35 64 -64
105 -64 13 0 44 -11 70 -25 45 -24 77 -25 79 -1 1 6 2 33 3 61 l1 50 68 33 67
34 40 -36 c22 -19 52 -38 67 -42 49 -11 166 -44 228 -66 91 -30 117 -32 142
-11 13 11 44 80 78 178 32 88 89 238 127 334 93 230 107 272 114 345 13 126
-47 235 -163 299 -27 14 -127 49 -223 77 -96 28 -338 101 -537 161 -959 289
-1404 368 -1909 339z m-166 -1863 c8 -10 8 -24 0 -53 -19 -66 -56 -92 -86 -62
-18 18 -15 36 13 85 26 44 53 55 73 30z m-262 -38 c3 -6 17 -8 30 -5 27 7 81
-13 107 -38 22 -23 22 -53 -2 -65 -22 -12 -107 17 -126 43 -7 9 -24 16 -38 16
-28 0 -43 26 -26 46 14 17 45 18 55 3z"/>
<path d="M13650 9365 c-74 -13 -263 -46 -420 -74 -345 -61 -707 -119 -1010
-161 -124 -17 -245 -36 -270 -42 -128 -31 -190 -103 -190 -224 0 -22 27 -202
59 -400 131 -793 169 -1121 193 -1656 12 -269 18 -2314 9 -3173 -3 -342 -2
-397 13 -450 34 -120 109 -196 231 -231 54 -16 147 -18 910 -24 468 -3 883 -2
924 3 140 15 229 78 267 188 23 67 25 260 6 779 -17 459 -32 1334 -32 1860 0
321 4 448 15 520 38 251 136 387 328 459 152 56 247 63 862 65 l540 1 45 25
c48 27 83 72 101 129 7 23 14 198 19 471 9 462 12 552 37 1025 19 368 14 562
-17 658 -28 89 -76 140 -157 163 -82 24 -281 14 -478 -25 l-150 -29 -560 -242
c-308 -133 -605 -262 -660 -285 -55 -24 -103 -41 -106 -37 -9 10 -45 218 -69
397 -30 229 -55 291 -126 321 -47 20 -157 16 -314 -11z"/>
<path d="M16950 9173 l-195 -3 -33 -33 c-41 -39 -75 -95 -96 -159 -18 -56 -13
-160 29 -628 14 -151 32 -354 40 -450 27 -309 38 -1443 29 -2970 -10 -1789
-10 -1666 5 -1730 38 -155 122 -233 281 -260 45 -8 330 -10 940 -8 l875 3 56
22 c96 40 150 118 168 244 5 38 5 247 -1 504 -14 620 -13 2699 1 3170 12 414
29 847 61 1530 10 231 22 500 26 598 l7 177 -999 -2 c-549 -2 -1087 -4 -1194
-5z"/>
<path d="M30930 9103 c-14 -2 -176 -31 -360 -63 -454 -81 -709 -122 -1067
-174 -338 -48 -392 -65 -434 -132 -39 -64 -36 -127 24 -489 93 -554 142 -921
167 -1250 33 -448 47 -1744 31 -2850 -12 -747 -11 -816 4 -883 31 -137 114
-216 253 -243 52 -10 260 -13 912 -13 l845 -1 52 24 c71 32 127 95 150 168 21
67 21 171 4 598 -19 477 -33 1396 -29 1900 5 534 6 546 66 677 43 95 108 160
205 208 118 57 193 69 489 80 l258 10 37 -41 c183 -200 276 -644 260 -1234
-17 -608 -124 -1219 -329 -1884 -42 -137 -50 -173 -45 -216 13 -130 119 -245
251 -275 69 -15 1824 63 1884 84 98 35 177 119 207 220 15 51 11 241 -25 1071
-86 2001 -233 3126 -506 3882 -54 150 -146 348 -209 449 -177 283 -594 432
-993 355 -95 -18 -229 -60 -282 -86 -14 -7 -63 -21 -110 -30 -66 -13 -219 -75
-708 -287 -343 -148 -625 -268 -627 -266 -4 4 -51 290 -70 423 -32 233 -66
277 -212 274 -37 -1 -79 -4 -93 -6z"/>
<path d="M26380 8260 c-421 -21 -839 -99 -1245 -235 -159 -53 -466 -172 -480
-187 -7 -7 16 -119 30 -154 8 -18 27 -47 43 -65 16 -19 33 -48 36 -65 4 -18
24 -55 45 -82 20 -28 46 -70 56 -94 51 -120 65 -146 98 -186 21 -24 37 -45 38
-45 0 -1 4 -40 8 -86 l8 -84 52 -46 c49 -44 52 -49 66 -126 12 -65 20 -84 42
-103 16 -13 48 -41 73 -62 25 -22 61 -51 81 -64 36 -25 92 -121 103 -176 3
-14 12 -34 19 -45 15 -19 16 -19 108 -1 111 22 251 58 297 77 29 12 34 12 55
-9 19 -19 22 -33 22 -95 0 -67 -4 -79 -51 -172 -28 -55 -59 -124 -68 -152 -10
-29 -22 -56 -28 -59 -6 -4 -21 -30 -34 -60 -27 -62 -150 -201 -220 -249 -52
-35 -286 -301 -318 -361 -16 -31 -17 -42 -8 -82 10 -43 9 -49 -10 -65 -21 -17
-29 -79 -29 -207 0 -53 26 -125 50 -143 34 -24 40 -48 30 -132 -5 -44 -7 -107
-3 -140 5 -57 4 -62 -30 -110 -20 -27 -36 -55 -36 -61 0 -25 -46 -67 -104 -94
-47 -22 -79 -49 -134 -110 -41 -44 -80 -80 -87 -80 -25 0 -26 -19 -4 -92 24
-80 22 -167 -4 -230 -12 -29 -25 -38 -76 -57 -66 -24 -91 -54 -91 -110 0 -48
-35 -129 -83 -190 -24 -31 -52 -72 -61 -91 -10 -19 -53 -69 -96 -110 -63 -61
-79 -82 -83 -111 l-5 -36 126 -17 c354 -48 505 -59 802 -60 303 -1 372 4 580
45 437 87 842 330 1142 687 l36 43 7 -108 c5 -70 3 -153 -5 -235 -28 -276 20
-387 191 -439 70 -21 80 -22 323 -13 282 10 617 11 996 4 l255 -5 57 27 c67
31 110 85 128 159 20 84 -11 2530 -40 3194 -18 389 -52 614 -129 843 -76 228
-176 396 -329 554 -285 294 -703 458 -1356 533 -128 15 -501 36 -571 33 -16 0
-100 -4 -185 -8z m-568 -3627 c25 -31 36 -75 43 -175 l6 -96 -30 -34 c-37 -42
-51 -77 -51 -126 -1 -39 -4 -47 -67 -202 -22 -52 -52 -138 -68 -190 -15 -52
-35 -105 -42 -117 -19 -28 -108 -73 -146 -73 -48 0 -91 52 -112 135 -33 133
-32 144 19 232 25 44 46 88 46 97 0 9 -10 36 -21 59 -20 37 -21 47 -10 87 20
74 56 119 117 146 35 16 84 52 139 105 73 70 85 86 85 115 0 50 60 74 92 37z"/>
<path d="M2985 2564 c-135 -18 -191 -30 -267 -55 -372 -121 -663 -428 -766
-807 -24 -89 -26 -113 -26 -297 -1 -188 1 -206 27 -299 115 -414 434 -722 854
-828 76 -19 114 -22 278 -22 172 1 199 3 288 27 441 118 769 480 842 931 100
614 -297 1205 -890 1327 -88 18 -281 31 -340 23z m204 -94 c446 -46 801 -350
919 -788 23 -88 26 -114 26 -277 0 -163 -3 -189 -26 -277 -53 -194 -150 -360
-291 -495 -97 -93 -166 -140 -290 -198 -139 -65 -235 -86 -412 -92 -127 -4
-166 -2 -253 16 -428 89 -756 418 -836 841 -20 105 -21 304 -1 407 87 459 470
814 930 862 115 12 123 12 234 1z"/>
<path d="M30763 2560 c-386 -55 -720 -293 -891 -635 -149 -299 -162 -662 -33
-972 256 -619 1005 -891 1605 -583 227 116 398 292 511 524 331 677 -57 1481
-795 1647 -98 22 -306 32 -397 19z m302 -425 c39 -8 113 -36 165 -61 80 -40
110 -62 186 -138 78 -78 98 -106 137 -186 59 -121 79 -207 79 -340 0 -133 -20
-219 -79 -340 -39 -81 -59 -108 -137 -186 -77 -77 -106 -98 -186 -138 -111
-54 -201 -76 -320 -76 -118 0 -209 22 -320 76 -81 40 -109 60 -185 138 -72 72
-99 109 -133 176 -65 131 -85 226 -80 379 8 214 67 349 218 502 71 72 101 94
180 133 52 26 124 53 160 60 86 19 228 19 315 1z"/>
<path d="M362 2528 c-17 -17 -18 -2228 0 -2246 9 -9 180 -12 709 -12 l698 0
15 22 c20 28 20 33 0 52 -14 14 -90 16 -685 16 l-669 0 -2 1088 -3 1087 -25 3
c-14 2 -31 -3 -38 -10z"/>
<path d="M4517 2534 c-4 -4 -7 -18 -7 -31 0 -23 903 -2196 922 -2221 17 -21
47 -13 62 15 8 16 216 510 462 1098 290 692 448 1082 448 1105 1 30 -2 35 -25
38 -14 2 -30 -3 -36 -10 -6 -7 -205 -481 -443 -1053 -237 -572 -435 -1043
-438 -1047 -4 -4 -205 469 -447 1050 -411 985 -442 1057 -466 1060 -13 2 -28
0 -32 -4z"/>
<path d="M6976 2524 c-3 -8 -6 -514 -6 -1123 0 -848 3 -1110 12 -1119 9 -9
197 -12 784 -12 689 0 774 2 788 16 20 20 20 38 0 58 -14 14 -96 16 -760 16
l-744 0 2 523 3 522 604 5 c561 5 605 6 615 23 8 12 8 22 0 35 -10 16 -53 17
-618 20 l-606 2 2 483 3 482 735 5 735 5 0 35 0 35 -771 3 c-697 2 -772 1
-778 -14z"/>
<path d="M9056 2525 c-3 -9 -6 -515 -6 -1125 0 -940 2 -1109 14 -1119 11 -9
161 -11 588 -9 l573 3 67 26 c237 92 383 281 403 521 21 248 -154 537 -379
626 l-48 19 47 28 c110 64 212 197 249 324 20 69 21 227 1 300 -46 176 -186
325 -366 392 -64 23 -66 23 -600 27 -489 3 -537 2 -543 -13z m1049 -80 c234
-49 395 -242 395 -474 0 -141 -43 -242 -144 -340 -34 -32 -85 -70 -114 -85
-107 -54 -127 -56 -639 -56 l-473 0 0 478 c0 263 3 482 7 485 3 4 207 7 452 7
354 0 460 -3 516 -15z m188 -1088 c89 -44 179 -123 233 -204 141 -213 105
-496 -86 -677 -46 -43 -88 -72 -127 -87 l-58 -24 -562 -3 -563 -3 0 521 0 521
543 -3 543 -3 77 -38z"/>
<path d="M11247 2533 c-4 -3 -7 -509 -7 -1123 0 -855 3 -1119 12 -1128 18 -18
46 -14 58 7 16 30 14 2223 -2 2239 -13 13 -50 16 -61 5z"/>
<path d="M12082 2528 c-16 -16 -18 -2208 -2 -2239 14 -25 56 -25 70 0 6 13 10
166 10 430 l0 411 428 0 c235 0 456 5 492 10 36 6 73 11 83 13 16 2 49 -69
197 -426 98 -235 184 -434 191 -443 16 -20 48 -14 65 11 12 18 -7 68 -166 455
-99 239 -180 437 -180 440 0 3 26 18 58 35 34 18 91 63 143 115 71 71 94 101
133 180 190 387 2 842 -409 987 l-80 28 -510 3 c-398 2 -513 0 -523 -10z m987
-79 c198 -32 361 -147 449 -316 52 -100 72 -182 72 -298 0 -169 -54 -306 -167
-425 -68 -72 -140 -120 -241 -159 l-67 -26 -477 -3 -478 -3 0 620 0 621 423 0
c244 0 449 -5 486 -11z"/>
<path d="M14272 2528 c-17 -17 -17 -2229 0 -2246 15 -15 730 -17 857 -2 506
58 913 418 1012 895 13 63 19 132 19 230 0 275 -76 491 -249 709 -170 213
-462 376 -745 415 -112 16 -878 15 -894 -1z m813 -78 c478 -45 855 -359 967
-806 18 -74 22 -116 22 -244 -1 -133 -5 -168 -26 -250 -100 -373 -385 -652
-776 -758 -96 -26 -100 -26 -514 -30 l-418 -3 0 1044 c0 574 3 1047 7 1050 10
11 617 8 738 -3z"/>
<path d="M16933 2528 c-12 -6 -25 -18 -28 -27 -7 -17 -235 -2125 -235 -2172 0
-52 25 -59 215 -59 129 0 176 3 190 14 16 12 27 95 96 732 43 396 78 728 79
738 0 39 18 -2 95 -214 42 -118 155 -433 251 -700 96 -266 182 -492 191 -502
14 -16 35 -18 174 -18 158 0 159 0 175 25 9 14 131 341 270 726 139 386 255
703 257 705 2 2 16 -114 31 -259 129 -1204 131 -1219 151 -1233 14 -11 60 -14
190 -14 193 0 215 6 215 62 0 18 -29 300 -65 627 -35 328 -87 807 -115 1064
-27 258 -54 477 -60 486 -5 10 -17 21 -26 25 -8 3 -109 6 -224 6 -183 0 -210
-2 -228 -17 -14 -12 -64 -138 -145 -363 -267 -743 -421 -1165 -426 -1172 -3
-4 -127 334 -276 750 -178 500 -277 765 -292 779 -22 22 -27 23 -230 22 -125
0 -217 -5 -230 -11z"/>
<path d="M19800 2520 c-21 -21 -21 -27 -17 -783 3 -756 3 -763 26 -841 111
-391 416 -629 847 -662 111 -8 267 9 383 42 304 87 514 302 599 612 l27 97 3
756 3 757 -27 21 c-25 19 -39 21 -196 21 -166 0 -169 0 -193 -25 l-25 -24 0
-693 c0 -570 -3 -705 -15 -762 -52 -247 -237 -396 -490 -396 -256 0 -442 154
-490 406 -12 62 -15 203 -15 760 l0 685 -25 24 c-24 25 -27 25 -200 25 -163 0
-176 -1 -195 -20z"/>
<path d="M22154 2515 c-25 -25 -25 -26 -22 -190 3 -142 5 -167 21 -182 16 -16
48 -18 325 -23 l307 -5 2 -905 3 -905 21 -17 c18 -16 44 -18 194 -18 155 0
175 2 196 19 l24 19 3 906 2 906 301 0 300 0 24 25 c24 24 25 27 25 185 0 158
-1 161 -25 185 l-24 25 -826 0 -826 0 -25 -25z"/>
<path d="M25131 2523 c-15 -12 -164 -372 -450 -1088 -236 -588 -432 -1083
-435 -1100 -11 -58 -5 -60 196 -63 134 -2 190 1 208 10 19 11 40 53 100 208
l76 195 473 0 473 0 74 -190 c43 -109 83 -197 95 -207 19 -16 45 -18 204 -18
195 0 215 5 215 50 0 10 -194 505 -431 1099 -338 848 -436 1085 -456 1101 -23
18 -41 20 -173 20 -126 0 -151 -3 -169 -17z m333 -1002 c86 -234 156 -429 156
-433 0 -4 -144 -8 -320 -8 -176 0 -320 4 -320 8 0 5 29 85 64 178 35 93 102
273 149 399 112 300 107 288 111 284 2 -2 74 -195 160 -428z"/>
<path d="M26514 2515 c-25 -25 -25 -26 -22 -190 3 -142 5 -167 21 -182 16 -16
48 -18 325 -23 l307 -5 2 -905 3 -905 21 -17 c18 -16 44 -18 194 -18 155 0
175 2 196 19 l24 19 3 906 2 906 301 0 300 0 24 25 c24 24 25 27 25 185 0 158
-1 161 -25 185 l-24 25 -826 0 -826 0 -25 -25z"/>
<path d="M28770 2520 c-20 -20 -20 -33 -20 -1115 0 -1082 0 -1095 20 -1115 19
-19 33 -20 200 -20 167 0 181 1 200 20 20 20 20 33 20 1114 l0 1095 -26 20
c-25 19 -40 21 -200 21 -161 0 -176 -2 -194 -20z"/>
<path d="M32660 2520 c-20 -20 -20 -33 -20 -1115 0 -1082 0 -1095 20 -1115 18
-18 33 -20 193 -20 134 0 178 3 193 14 18 14 19 37 24 797 l5 782 204 -299
c654 -958 875 -1275 891 -1284 10 -6 101 -10 204 -10 173 0 187 1 206 20 20
20 20 33 20 1114 l0 1095 -26 20 c-25 19 -40 21 -194 21 -145 0 -171 -2 -189
-17 l-21 -18 -3 -745 -2 -745 -509 730 c-604 866 -536 771 -564 784 -14 7
-100 11 -217 11 -182 0 -196 -1 -215 -20z"/>
</g>
</svg>
