<?xml version="1.0" standalone="no"?>
<!DOCTYPE svg PUBLIC "-//W3C//DTD SVG 20010904//EN"
 "http://www.w3.org/TR/2001/REC-SVG-20010904/DTD/svg10.dtd">
<svg version="1.0" xmlns="http://www.w3.org/2000/svg"
 width="3508.000000pt" height="1281.000000pt" viewBox="0 0 3508.000000 1281.000000"
 preserveAspectRatio="xMidYMid meet">

<g transform="translate(0.000000,1281.000000) scale(0.100000,-0.100000)"
fill="#000000" stroke="none">
<path d="M6150 10433 c-739 -57 -1359 -400 -1571 -869 -84 -184 -104 -393 -96
-967 3 -196 1 -359 -3 -362 -5 -3 -59 -14 -120 -26 -120 -21 -177 -44 -199
-80 -22 -37 -24 -124 -7 -314 9 -99 25 -292 36 -430 19 -253 27 -298 62 -348
40 -57 87 -67 253 -53 82 7 93 5 123 -14 62 -39 71 -77 93 -408 10 -163 37
-547 59 -852 22 -305 44 -631 50 -725 17 -267 36 -328 120 -375 42 -23 54 -25
170 -24 69 1 342 18 607 37 522 38 531 39 577 100 31 42 30 113 -8 397 -61
458 -216 1879 -216 1978 0 27 16 29 360 43 313 12 343 19 373 82 22 46 22 77
-7 362 -14 132 -29 323 -35 425 -18 308 -19 317 -35 348 -36 70 -100 89 -237
73 -113 -14 -562 -52 -565 -48 -7 7 -24 152 -34 307 -18 252 -1 362 69 441 65
74 139 108 401 180 162 45 212 69 240 115 26 41 26 120 0 204 -11 36 -47 164
-80 285 -98 365 -115 414 -152 452 -18 19 -50 43 -70 54 -36 18 -57 20 -158
12z"/>
<path d="M10560 10019 c-213 -25 -426 -141 -535 -293 -90 -126 -125 -236 -125
-392 0 -339 201 -570 565 -650 123 -26 362 -24 480 5 194 47 333 149 408 297
57 112 71 179 71 334 -1 119 -4 144 -27 215 -37 113 -90 196 -178 280 -124
118 -264 183 -444 204 -100 12 -108 12 -215 0z"/>
<path d="M1860 9331 c-49 -10 -95 -36 -118 -66 -29 -37 -59 -113 -196 -505
-68 -195 -351 -992 -629 -1770 -278 -778 -581 -1629 -674 -1890 l-169 -475
140 -8 c244 -13 903 -12 980 2 189 33 238 92 347 420 46 137 57 161 93 197 24
25 57 46 81 53 22 6 112 11 199 11 88 0 325 5 526 11 544 16 633 3 710 -108
35 -49 68 -135 129 -340 37 -121 75 -176 146 -212 l50 -26 540 0 c563 1 633 5
685 44 30 22 36 65 20 130 -19 75 -596 1588 -918 2406 -219 557 -768 1918
-797 1974 -33 66 -68 105 -112 127 -35 16 -74 18 -473 19 -239 1 -455 4 -480
8 -25 3 -61 2 -80 -2z m683 -2021 c143 -479 208 -710 209 -742 1 -34 -43 -110
-79 -134 -26 -17 -51 -18 -300 -18 -239 1 -275 3 -298 18 -36 23 -65 74 -65
113 0 18 60 207 134 420 237 684 239 691 261 701 11 6 23 7 26 3 4 -3 54 -166
112 -361z"/>
<path d="M12975 8594 c-518 -75 -898 -328 -1208 -804 -117 -180 -206 -391
-252 -595 -34 -146 -45 -395 -25 -552 45 -359 219 -751 476 -1073 88 -109 275
-296 384 -384 464 -371 1021 -576 1566 -576 72 0 156 5 188 11 51 11 55 14 43
28 -30 34 -38 59 -26 85 10 20 8 30 -9 58 -11 18 -23 48 -27 65 -3 18 -11 35
-16 39 -22 13 -39 68 -49 155 -12 100 -53 224 -97 290 -22 33 -24 44 -18 91
13 95 43 200 65 223 19 20 19 24 5 58 -8 20 -14 51 -14 69 2 51 -44 166 -100
253 -51 78 -60 110 -42 157 5 13 12 47 16 75 l7 53 -31 -6 c-26 -6 -31 -3 -31
13 0 10 5 24 12 31 15 15 -9 16 -46 2 -35 -13 -54 -3 -71 36 -26 64 -96 66
-226 8 -50 -23 -62 -25 -90 -15 -47 16 -88 13 -139 -10 -27 -12 -54 -18 -69
-14 -43 11 -161 126 -222 217 -33 48 -59 91 -59 96 0 4 -14 19 -31 31 -24 18
-29 28 -25 47 4 15 0 36 -11 54 -16 28 -16 30 4 52 28 30 46 101 37 141 -4 18
-7 40 -5 49 1 9 -5 31 -14 47 -15 30 -14 33 20 93 19 35 42 79 51 98 34 74 93
150 116 150 9 0 33 14 52 30 31 28 34 36 34 83 0 64 16 107 39 107 32 0 84 40
99 76 17 40 38 52 60 33 22 -18 105 -12 161 13 79 35 165 50 292 49 25 0 51 5
58 11 10 8 24 8 54 -2 35 -12 40 -17 34 -38 -3 -13 0 -31 6 -39 10 -11 9 -20
-5 -45 -22 -37 -20 -39 79 -68 46 -14 77 -30 91 -47 12 -14 46 -34 75 -44 74
-25 82 -25 76 8 -7 39 6 57 52 73 38 12 43 12 64 -7 12 -11 51 -28 87 -37 36
-10 82 -25 103 -32 51 -19 71 -7 93 58 9 29 47 132 84 228 75 192 86 232 76
285 -8 39 -55 99 -95 119 -39 20 -714 222 -876 262 -260 64 -350 76 -585 79
-118 2 -228 1 -245 -1z m7 -1134 c-3 -32 -22 -52 -44 -47 -10 3 -18 2 -18 -3
0 -4 -7 -11 -15 -14 -20 -7 -117 43 -112 58 5 15 76 8 104 -10 21 -13 24 -12
38 17 19 37 51 36 47 -1z"/>
<path d="M7905 8430 c-148 -27 -380 -65 -515 -85 -294 -43 -332 -51 -365 -77
-50 -39 -50 -71 -1 -375 51 -309 80 -528 95 -709 22 -248 33 -976 26 -1679 -8
-759 -8 -758 46 -819 62 -71 58 -71 679 -71 l555 0 42 23 c29 15 50 36 65 65
27 52 28 76 10 722 -8 264 -12 649 -10 855 3 330 6 381 22 425 26 75 75 136
134 168 89 49 168 57 535 57 365 0 376 2 421 63 20 27 21 47 28 330 3 166 12
417 19 557 18 384 8 461 -64 514 -25 18 -43 21 -140 20 -181 0 -231 -15 -668
-204 -215 -93 -395 -167 -399 -165 -4 2 -10 24 -14 47 -3 24 -15 102 -25 175
-21 137 -37 185 -70 203 -35 18 -132 9 -406 -40z"/>
<path d="M10268 8353 l-296 -3 -28 -33 c-63 -75 -64 -99 -23 -522 31 -316 42
-912 36 -2005 -5 -1067 -5 -1054 49 -1111 62 -65 46 -63 623 -67 567 -3 610 0
662 46 59 53 57 20 52 1046 -6 978 0 1307 37 2111 11 231 20 448 20 483 l0 62
-417 -2 c-230 -2 -552 -4 -715 -5z"/>
<path d="M18375 8295 c-188 -36 -562 -98 -749 -125 -237 -34 -263 -44 -285
-107 -14 -39 -12 -59 27 -300 53 -322 68 -433 87 -631 21 -214 38 -1061 31
-1487 -13 -741 -12 -825 11 -876 23 -52 60 -82 118 -97 24 -6 244 -12 550 -14
557 -3 562 -3 609 53 46 54 49 89 37 394 -19 472 -26 1369 -12 1450 17 99 47
159 98 205 73 64 185 89 395 90 l116 0 27 -31 c184 -220 195 -894 25 -1584
-22 -88 -55 -209 -74 -270 -28 -89 -33 -117 -27 -147 14 -63 48 -105 105 -133
l52 -25 551 24 c605 27 594 25 652 92 17 18 34 49 39 68 14 49 -17 840 -53
1356 -53 757 -143 1297 -271 1631 -51 134 -128 280 -171 321 -158 153 -415
197 -656 112 -40 -13 -97 -31 -128 -39 -31 -8 -218 -85 -415 -170 -197 -85
-364 -155 -370 -155 -6 0 -14 19 -18 43 -46 313 -55 347 -91 361 -26 10 -134
5 -210 -9z"/>
<path d="M15661 7800 c-313 -26 -634 -107 -912 -228 l-47 -20 9 -48 c5 -26 20
-62 34 -80 14 -18 25 -38 25 -44 0 -6 11 -26 24 -43 13 -18 36 -59 51 -92 14
-33 35 -69 46 -81 12 -13 23 -44 28 -75 5 -41 15 -61 38 -84 21 -21 32 -44 37
-76 6 -42 13 -51 73 -100 66 -53 103 -100 103 -130 0 -8 6 -23 13 -32 13 -18
8 -19 184 25 45 11 87 17 92 13 6 -3 11 -28 11 -55 0 -38 -12 -74 -61 -177
-59 -124 -65 -132 -168 -233 -59 -58 -129 -131 -156 -164 -43 -51 -49 -64 -48
-100 0 -22 -3 -46 -8 -52 -5 -7 -10 -45 -12 -87 -2 -64 1 -79 21 -106 19 -26
22 -42 22 -124 0 -79 -3 -98 -20 -120 -11 -14 -20 -29 -20 -35 0 -12 -37 -45
-65 -57 -13 -5 -51 -36 -84 -68 l-61 -59 15 -51 c20 -72 -1 -157 -40 -157 -26
0 -65 -41 -65 -69 0 -48 -94 -197 -153 -243 -19 -15 -37 -38 -39 -52 -6 -30
-9 -29 182 -53 204 -25 572 -25 690 0 269 57 473 168 653 356 42 45 80 81 83
81 3 0 4 -83 2 -184 -3 -173 -2 -186 18 -212 54 -74 112 -86 334 -72 85 5 279
6 430 3 260 -6 277 -5 310 13 19 11 44 35 55 53 19 33 20 49 17 509 -4 602
-20 1374 -32 1552 -47 665 -332 949 -1043 1043 -147 19 -429 26 -566 15z
m-253 -2188 c6 -15 13 -51 16 -80 4 -44 1 -58 -19 -89 -14 -20 -25 -49 -25
-65 0 -16 -13 -60 -29 -96 -16 -37 -39 -100 -51 -140 -25 -82 -53 -112 -106
-112 -42 0 -59 18 -78 84 -21 70 -20 71 14 135 27 51 28 56 15 89 -14 31 -13
38 4 78 14 32 30 48 62 65 53 27 129 103 129 129 0 21 27 41 46 33 7 -2 17
-16 22 -31z"/>
<path d="M18325 4386 c-271 -52 -491 -265 -551 -533 -25 -115 -16 -273 23
-384 72 -208 235 -366 448 -436 103 -33 282 -38 385 -9 233 64 406 228 486
461 25 71 28 95 29 210 0 146 -12 201 -72 320 -136 272 -451 428 -748 371z
m252 -254 c209 -66 341 -283 304 -504 -39 -235 -228 -390 -458 -375 -383 23
-546 520 -258 786 48 44 125 87 182 100 65 15 168 12 230 -7z"/>
<path d="M1695 4384 c-278 -45 -496 -232 -576 -494 -28 -89 -32 -260 -10 -350
33 -136 132 -291 239 -375 129 -101 267 -149 437 -149 133 -1 191 12 314 71
257 123 410 411 371 699 -21 162 -81 284 -195 399 -126 126 -278 193 -455 200
-52 2 -108 1 -125 -1z m275 -70 c245 -72 428 -295 449 -544 23 -276 -101 -515
-329 -634 -107 -56 -169 -71 -305 -70 -104 0 -131 4 -200 28 -211 73 -365 234
-421 443 -21 79 -21 241 1 323 63 243 277 434 530 474 56 8 220 -3 275 -20z"/>
<path d="M155 4368 c-3 -7 -4 -312 -3 -678 l3 -665 425 0 425 0 3 23 3 22
-405 0 -406 0 -2 652 c-3 613 -4 653 -21 656 -9 2 -19 -2 -22 -10z"/>
<path d="M2644 4366 c-9 -23 547 -1346 566 -1346 19 0 575 1322 566 1345 -3 8
-12 15 -20 15 -15 0 -2 30 -320 -734 -180 -433 -226 -535 -234 -520 -5 11
-123 291 -262 624 -139 333 -257 611 -262 618 -14 16 -27 15 -34 -2z"/>
<path d="M4115 4368 c-3 -7 -4 -312 -3 -678 l3 -665 464 -3 c470 -2 497 0 484
34 -4 12 -74 14 -454 14 l-449 0 0 315 0 315 363 2 c354 3 362 3 362 23 0 20
-8 20 -362 23 l-363 2 0 290 0 290 439 0 c451 0 457 1 444 38 -7 18 -921 18
-928 0z"/>
<path d="M5365 4368 c-3 -7 -4 -312 -3 -678 l3 -665 360 0 360 0 56 28 c62 30
136 103 167 163 86 169 4 412 -170 498 l-49 25 28 15 c41 21 112 100 134 151
29 65 35 150 15 219 -31 106 -92 176 -196 225 l-55 26 -323 3 c-259 3 -323 1
-327 -10z m697 -71 c223 -110 223 -409 -1 -519 -44 -22 -57 -23 -348 -26
l-303 -3 0 291 0 291 298 -3 297 -3 57 -28z m23 -618 c71 -27 147 -100 183
-176 54 -119 25 -262 -73 -358 -74 -71 -96 -75 -467 -75 l-318 0 0 315 0 315
310 0 c289 0 313 -1 365 -21z"/>
<path d="M6677 4373 c-4 -3 -7 -307 -7 -675 0 -604 2 -669 16 -675 9 -3 20 0
25 8 10 15 13 1308 3 1333 -6 16 -26 21 -37 9z"/>
<path d="M7175 4368 c-3 -7 -4 -312 -3 -678 3 -624 4 -665 21 -668 16 -3 17
14 17 252 0 140 4 257 8 260 4 2 145 6 312 7 l304 2 103 -249 c57 -137 110
-255 117 -263 17 -16 36 -7 36 17 0 9 -48 132 -105 272 -58 140 -102 256 -96
258 5 2 30 17 55 34 94 61 156 161 177 281 36 213 -114 431 -329 476 -78 16
-611 15 -617 -1z m685 -74 c192 -91 270 -312 178 -503 -31 -63 -107 -137 -176
-169 l-57 -27 -297 -3 -298 -3 0 364 c0 200 3 367 7 371 4 4 136 6 293 4 l285
-3 65 -31z"/>
<path d="M8485 4368 c-3 -7 -4 -312 -3 -678 l3 -665 235 -3 c253 -3 335 5 443
43 103 35 173 81 262 170 63 63 90 98 122 165 107 217 93 465 -37 662 -109
166 -279 275 -480 307 -97 16 -539 14 -545 -1z m557 -52 c203 -39 365 -158
457 -335 194 -375 -31 -815 -457 -897 -50 -9 -145 -14 -293 -14 l-219 0 0 630
0 630 219 0 c147 0 243 -5 293 -14z"/>
<path d="M10070 4365 c-7 -8 -39 -269 -82 -665 -56 -518 -68 -654 -58 -665 10
-12 38 -15 121 -15 104 0 110 1 118 23 5 12 28 200 51 417 22 217 44 410 47
429 7 39 0 55 197 -494 60 -165 115 -310 122 -322 13 -21 22 -23 108 -23 63 0
97 4 103 13 6 6 79 202 163 435 84 232 154 421 156 419 2 -1 24 -198 50 -437
26 -239 51 -441 57 -447 14 -19 221 -18 236 1 9 10 -6 172 -59 667 -39 359
-76 659 -82 666 -15 18 -271 18 -285 1 -5 -7 -83 -217 -173 -466 -90 -249
-167 -449 -170 -445 -4 5 -78 206 -164 447 -86 242 -162 448 -167 458 -9 16
-24 18 -143 18 -105 0 -136 -3 -146 -15z"/>
<path d="M11802 4368 c-19 -19 -17 -885 3 -961 33 -127 120 -250 224 -316 163
-105 425 -116 606 -27 124 62 201 147 253 282 l27 69 3 468 c2 349 0 472 -9
483 -15 18 -219 20 -237 2 -9 -9 -12 -118 -12 -427 0 -503 -4 -527 -103 -618
-75 -69 -193 -91 -307 -57 -39 12 -66 29 -105 67 -90 91 -89 85 -93 587 -2
391 -4 436 -19 448 -22 16 -214 17 -231 0z"/>
<path d="M13206 4364 c-12 -12 -16 -37 -16 -109 0 -72 4 -97 16 -109 13 -13
45 -16 195 -16 l179 0 0 -539 c0 -477 2 -541 16 -555 12 -13 38 -16 119 -16
81 0 107 3 119 16 14 14 16 78 16 555 l0 539 179 0 c150 0 182 3 195 16 12 12
16 38 16 114 0 88 -2 100 -19 110 -13 6 -191 10 -510 10 -432 0 -491 -2 -505
-16z"/>
<path d="M14987 4365 c-22 -21 -529 -1294 -525 -1319 3 -20 10 -21 111 -24 59
-1 115 2 126 7 11 6 35 56 62 131 l44 120 285 -2 284 -3 42 -110 c61 -159 44
-146 182 -143 114 3 117 4 120 26 3 22 -498 1292 -520 1320 -16 18 -192 17
-211 -3z m205 -599 c48 -131 88 -243 88 -247 0 -5 -85 -9 -190 -9 -104 0 -190
3 -190 8 0 7 148 407 180 487 9 21 14 26 18 15 3 -8 45 -122 94 -254z"/>
<path d="M15816 4364 c-12 -12 -16 -37 -16 -109 0 -72 4 -97 16 -109 13 -13
45 -16 195 -16 l179 0 0 -539 c0 -477 2 -541 16 -555 12 -13 38 -16 119 -16
81 0 107 3 119 16 14 14 16 78 16 555 l0 539 179 0 c150 0 182 3 195 16 12 12
16 38 16 114 0 88 -2 100 -19 110 -13 6 -191 10 -510 10 -432 0 -491 -2 -505
-16z"/>
<path d="M17172 4368 c-17 -17 -17 -1319 0 -1336 13 -13 202 -17 232 -6 14 6
16 74 16 668 0 502 -3 665 -12 674 -8 8 -49 12 -118 12 -69 0 -110 -4 -118
-12z"/>
<path d="M19502 4368 c-17 -17 -17 -1319 0 -1336 17 -17 224 -17 235 1 4 6 10
220 13 474 l5 462 285 -416 c157 -229 304 -443 328 -475 l42 -59 123 3 122 3
3 669 c2 529 0 671 -10 678 -17 10 -209 10 -225 0 -10 -6 -13 -113 -15 -458
l-3 -449 -289 415 c-159 228 -305 434 -323 458 l-34 42 -123 0 c-81 0 -126 -4
-134 -12z"/>
</g>
</svg>
