<?xml version="1.0" standalone="no"?>
<!DOCTYPE svg PUBLIC "-//W3C//DTD SVG 20010904//EN"
 "http://www.w3.org/TR/2001/REC-SVG-20010904/DTD/svg10.dtd">
<svg version="1.0" xmlns="http://www.w3.org/2000/svg"
 width="549.000000pt" height="211.000000pt" viewBox="0 0 549.000000 211.000000"
 preserveAspectRatio="xMidYMid meet">

<g transform="translate(0.000000,211.000000) scale(0.100000,-0.100000)"
fill="#000000" stroke="none">
<path d="M1484 1935 c-125 -27 -222 -90 -268 -175 -26 -47 -28 -62 -33 -191
-6 -133 -7 -139 -27 -139 -46 0 -49 -10 -42 -131 4 -62 12 -121 17 -131 7 -13
21 -18 49 -18 21 0 42 -5 46 -12 4 -7 16 -127 25 -267 13 -187 22 -258 32
-269 12 -11 39 -12 151 -7 81 5 143 13 153 20 16 12 15 25 -5 206 -12 107 -25
231 -28 277 l-7 82 59 0 c74 0 102 8 108 29 2 9 -1 72 -7 141 l-12 125 -91 -2
-91 -3 -6 57 c-11 107 4 131 101 159 29 9 56 23 60 32 7 19 -33 178 -54 210
-17 25 -40 27 -130 7z"/>
<path d="M2515 1836 c-42 -18 -83 -69 -91 -112 -21 -115 61 -192 196 -182 96
7 144 56 144 148 -1 94 -59 152 -159 157 -36 2 -72 -2 -90 -11z"/>
<path d="M561 1677 c-6 -8 -47 -117 -90 -243 -103 -296 -277 -794 -286 -815
-11 -28 189 -37 276 -13 9 2 24 23 33 47 38 91 38 92 91 99 78 10 254 9 275
-2 10 -5 28 -36 40 -67 12 -32 26 -63 32 -70 16 -19 297 -18 304 1 9 23 -372
1023 -404 1059 -13 14 -33 17 -137 17 -91 0 -125 -4 -134 -13z m177 -444 c12
-38 29 -96 38 -130 23 -82 14 -93 -71 -93 -96 0 -97 6 -46 161 23 71 46 129
51 129 4 0 17 -30 28 -67z"/>
<path d="M3059 1504 c-152 -46 -280 -224 -279 -388 1 -243 228 -482 488 -515
91 -12 122 -6 116 23 -2 11 -8 30 -13 41 -19 43 -32 126 -26 167 4 32 1 52
-14 81 -10 20 -17 46 -14 56 8 30 -39 53 -92 45 -66 -9 -91 1 -119 49 -20 36
-23 50 -17 92 4 28 12 60 19 71 6 12 9 24 6 27 -3 3 3 4 12 4 11 -1 20 6 22
18 5 21 36 47 62 52 8 1 39 5 68 9 46 6 52 5 52 -12 0 -12 14 -26 35 -36 31
-16 35 -16 43 -2 7 13 13 14 30 5 38 -20 49 -13 72 48 31 84 25 94 -73 124
-194 61 -283 71 -378 41z"/>
<path d="M1885 1468 c-60 -11 -115 -25 -121 -31 -8 -9 -7 -43 7 -132 14 -93
18 -182 18 -401 1 -218 4 -284 14 -292 15 -13 278 -19 296 -7 9 5 12 69 10
238 -2 239 1 267 38 282 10 4 61 10 115 12 l96 6 6 30 c3 16 6 87 6 157 0 152
-4 160 -78 143 -26 -5 -84 -26 -129 -46 l-82 -36 -6 37 c-4 20 -8 43 -10 50
-6 16 -47 14 -180 -10z"/>
<path d="M2429 1453 c-6 -40 5 -822 12 -836 9 -15 27 -17 148 -17 99 0 141 4
149 13 6 7 11 165 13 430 l4 417 -162 0 c-90 0 -164 -3 -164 -7z"/>
<path d="M4232 1430 c-56 -9 -105 -20 -109 -24 -4 -3 1 -70 10 -149 12 -97 17
-218 17 -383 0 -182 3 -244 13 -251 17 -14 233 -24 263 -13 l24 10 0 220 c0
130 4 229 10 240 10 19 66 40 107 40 62 0 79 -185 34 -377 -13 -56 -21 -108
-18 -117 12 -30 290 -18 306 13 5 9 5 97 0 196 -17 331 -51 513 -109 578 -26
30 -33 32 -92 32 -52 0 -80 -7 -162 -43 -54 -24 -99 -42 -101 -40 -1 2 -6 21
-11 43 -9 37 -12 40 -44 42 -19 0 -81 -7 -138 -17z"/>
<path d="M3695 1329 c-57 -8 -185 -46 -185 -55 0 -11 83 -162 100 -182 16 -19
26 -22 50 -17 19 4 30 3 30 -5 0 -22 -33 -75 -68 -113 -35 -35 -36 -40 -34
-101 1 -56 -1 -65 -23 -84 -14 -12 -25 -33 -25 -46 0 -13 -4 -26 -8 -28 -4 -2
-18 -21 -30 -42 -30 -51 -22 -56 93 -56 102 0 157 19 213 73 l32 31 0 -46 c0
-26 5 -50 11 -54 7 -4 64 -7 127 -6 85 0 117 4 123 14 8 12 4 347 -6 484 -11
158 -87 223 -275 237 -36 3 -92 1 -125 -4z m-32 -570 c-20 -54 -32 -71 -45
-63 -16 10 3 87 26 109 30 29 39 7 19 -46z"/>
</g>
</svg>
