<?xml version="1.0" standalone="no"?>
<!DOCTYPE svg PUBLIC "-//W3C//DTD SVG 20010904//EN"
 "http://www.w3.org/TR/2001/REC-SVG-20010904/DTD/svg10.dtd">
<svg version="1.0" xmlns="http://www.w3.org/2000/svg"
 width="1000.000000pt" height="385.000000pt" viewBox="0 0 1000.000000 385.000000"
 preserveAspectRatio="xMidYMid meet">

<g transform="translate(0.000000,385.000000) scale(0.100000,-0.100000)"
fill="#000000" stroke="none">
<path d="M4380 3039 c-94 -38 -114 -153 -39 -225 27 -26 37 -29 95 -29 63 0
67 2 100 37 30 33 34 44 34 92 0 40 -6 60 -22 81 -38 48 -110 67 -168 44z"/>
<path d="M180 2500 l0 -530 115 0 115 0 2 298 3 297 23 -50 c13 -27 69 -160
125 -295 l102 -245 88 0 88 0 118 287 c64 158 120 290 124 294 4 4 7 -126 7
-289 l0 -297 115 0 115 0 0 530 0 530 -127 0 -128 -1 -154 -365 c-85 -201
-158 -361 -162 -357 -6 6 -148 335 -292 676 l-20 47 -128 0 -129 0 0 -530z"/>
<path d="M2350 2920 l0 -100 -45 0 -45 0 0 -100 0 -100 45 0 45 0 0 -205 c0
-228 8 -286 50 -343 48 -66 104 -86 248 -90 l122 -4 0 100 0 100 -80 4 c-58 2
-84 7 -90 18 -5 8 -10 106 -10 218 l0 202 90 0 90 0 0 100 0 100 -90 0 -90 0
0 100 0 100 -120 0 -120 0 0 -100z"/>
<path d="M3830 2920 l0 -100 -45 0 -45 0 0 -100 0 -100 44 0 44 0 3 -227 4
-228 30 -60 c24 -47 41 -66 79 -90 47 -29 56 -30 178 -34 l128 -3 0 101 0 101
-68 0 c-115 0 -112 -6 -112 236 l0 204 90 0 90 0 0 100 0 100 -90 0 -90 0 0
100 0 100 -120 0 -120 0 0 -100z"/>
<path d="M3040 2808 c-78 -30 -179 -132 -209 -211 -77 -208 -21 -458 126 -560
79 -54 132 -71 223 -71 91 0 150 19 217 70 l33 25 0 -40 0 -41 120 0 120 0 0
420 0 420 -120 0 -120 0 0 -40 0 -41 -45 31 c-66 46 -117 60 -209 59 -57 0
-97 -6 -136 -21z m279 -208 c76 -38 111 -104 111 -211 0 -112 -71 -198 -177
-215 -63 -10 -144 32 -179 93 -94 160 -7 353 159 353 28 0 64 -8 86 -20z"/>
<path d="M4914 2815 c-116 -37 -206 -115 -257 -223 -30 -63 -31 -74 -32 -187
0 -141 15 -197 76 -278 98 -130 272 -191 440 -153 224 50 353 231 335 469 -13
176 -122 317 -284 367 -74 23 -213 26 -278 5z m215 -209 c42 -22 89 -81 102
-128 16 -61 6 -157 -21 -206 -76 -134 -264 -133 -330 3 -31 64 -32 183 -2 240
20 41 51 74 87 93 29 16 131 15 164 -2z"/>
<path d="M5898 2816 c-20 -8 -54 -26 -75 -41 l-38 -25 -3 35 -3 35 -115 0
-114 0 0 -420 0 -420 115 0 114 0 3 263 c3 243 4 265 24 302 28 54 75 80 144
80 70 -1 114 -26 140 -80 18 -38 20 -63 20 -303 l0 -262 121 0 120 0 -3 298
c-3 282 -5 300 -26 354 -28 69 -90 135 -157 168 -62 30 -207 38 -267 16z"/>
<path d="M1390 2536 c0 -255 2 -290 20 -348 24 -80 81 -148 154 -185 95 -49
254 -43 338 13 21 13 40 24 43 24 3 0 5 -13 5 -30 l0 -30 120 0 120 0 0 420 0
420 -120 0 -120 0 0 -262 c0 -244 -1 -265 -21 -304 -27 -57 -89 -88 -160 -82
-57 6 -95 30 -124 79 -18 31 -20 55 -23 302 l-3 267 -115 0 -114 0 0 -284z"/>
<path d="M4320 2345 l0 -365 115 0 115 0 0 365 0 365 -115 0 -115 0 0 -365z"/>
<path d="M3070 1745 c0 -96 -4 -175 -8 -175 -5 0 -17 9 -26 19 -10 11 -41 30
-69 43 -43 19 -69 23 -152 23 -89 0 -106 -3 -156 -27 -121 -60 -198 -174 -220
-328 -30 -210 63 -402 230 -477 125 -56 282 -35 379 51 l22 19 0 -44 0 -44
120 3 120 3 0 555 0 554 -120 0 -120 0 0 -175z m-88 -331 c52 -36 81 -92 86
-164 8 -111 -43 -201 -134 -236 -187 -71 -340 179 -217 358 56 83 180 102 265
42z"/>
<path d="M2224 1889 c-121 -35 -132 -200 -17 -251 132 -58 253 80 175 200 -28
43 -103 67 -158 51z"/>
<path d="M583 1859 c-73 -14 -171 -67 -237 -130 -137 -127 -193 -323 -152
-521 22 -103 62 -174 141 -254 109 -110 218 -154 380 -154 50 0 110 5 135 11
116 27 245 117 309 217 53 82 71 152 71 269 l0 103 -290 0 -290 0 0 -90 0 -90
170 0 c188 0 186 1 154 -63 -23 -45 -72 -95 -119 -120 -32 -17 -57 -21 -130
-21 -78 0 -97 3 -141 26 -110 58 -172 181 -161 320 15 180 124 288 291 288 94
0 152 -24 204 -86 l36 -44 129 0 128 0 -6 23 c-44 153 -188 282 -353 316 -61
13 -207 13 -269 0z"/>
<path d="M3655 1647 c-113 -30 -203 -107 -256 -220 -33 -69 -34 -76 -34 -192
0 -90 5 -133 18 -171 39 -113 124 -202 234 -245 84 -33 243 -33 328 1 82 32
183 132 212 210 l21 55 -121 3 -122 3 -33 -40 c-74 -90 -222 -75 -280 27 -42
76 -57 72 273 72 l295 0 0 90 c0 188 -73 310 -229 383 -54 26 -78 31 -160 33
-57 2 -116 -2 -146 -9z m222 -213 c32 -24 73 -80 73 -100 0 -11 -35 -14 -176
-14 l-175 0 7 23 c11 35 44 77 78 99 42 26 153 22 193 -8z"/>
<path d="M1292 1343 c3 -300 4 -309 27 -361 31 -69 114 -145 183 -168 74 -24
178 -22 250 5 31 12 62 28 68 36 19 23 30 18 30 -15 l0 -30 120 0 120 0 0 420
0 420 -120 0 -120 0 0 -262 c0 -237 -2 -267 -19 -305 -24 -52 -79 -83 -149
-83 -58 0 -106 28 -136 80 -20 33 -21 54 -24 303 l-3 267 -115 0 -115 0 3
-307z"/>
<path d="M2150 1165 l0 -365 115 0 115 0 0 365 0 365 -115 0 -115 0 0 -365z"/>
<path d="M4445 1370 c-68 -26 -115 -68 -150 -131 -27 -48 -30 -63 -30 -139 0
-77 3 -90 31 -140 37 -66 97 -114 166 -135 76 -22 800 -22 876 0 69 21 129 69
166 135 28 50 31 63 31 140 0 76 -3 91 -30 139 -36 65 -83 105 -153 131 -49
19 -78 20 -455 19 -372 0 -406 -1 -452 -19z m242 -150 c18 -10 40 -31 49 -45
l17 -26 19 31 c34 56 115 75 177 42 98 -53 92 -195 -11 -248 -54 -28 -135 -5
-167 47 l-17 28 -27 -34 c-49 -61 -136 -70 -197 -19 -29 25 -30 25 -30 5 0
-13 -10 -26 -25 -33 -22 -10 -29 -9 -46 9 -15 14 -19 27 -14 42 8 25 50 38 70
21 12 -10 12 -6 4 24 -32 117 96 219 198 156z m448 -57 c16 -40 33 -73 36 -73
3 0 19 33 35 73 l30 72 40 0 39 0 0 -135 0 -135 -37 -3 -38 -3 -1 48 -1 48
-20 -48 c-18 -42 -24 -48 -47 -45 -19 2 -31 14 -48 48 l-22 45 0 -48 -1 -48
-37 3 -38 3 -1 130 c0 72 1 134 3 138 3 4 21 7 41 5 35 -3 38 -6 67 -75z"/>
<path d="M4599 1157 c-18 -9 -25 -22 -27 -50 -2 -21 2 -45 9 -53 15 -18 63
-18 79 1 7 9 29 15 51 15 37 0 39 2 39 30 0 28 -2 30 -39 30 -22 0 -43 4 -46
10 -13 22 -41 29 -66 17z"/>
<path d="M4859 1156 c-18 -8 -25 -21 -27 -49 -4 -50 12 -69 57 -65 29 2 38 8
45 31 21 58 -25 108 -75 83z"/>
</g>
</svg>
